# Blender v2.91.2 OBJ File: 'FireIslandPlatform.blend'
# www.blender.org
mtllib FireIslandPlatform.mtl
o Cube
v 1.039626 1.400484 -1.020926
v 0.934459 0.988651 -1.137345
v 1.039626 1.400484 1.097675
v 0.934459 0.988651 1.214094
v -1.020285 1.400484 -1.020926
v -0.912968 0.988651 -1.137345
v -1.020285 1.400484 1.097675
v -0.912968 0.988651 1.214094
v -1.091725 1.058291 -1.331130
v -1.091725 1.058291 1.407880
v 1.113215 1.058292 -1.331131
v 1.113215 1.058292 1.407879
v -0.728575 0.870982 -0.689009
v -0.728575 0.870982 0.765758
v 0.747916 0.870982 -0.689009
v 0.747916 0.870982 0.765758
v 1.166914 1.238393 -1.398118
v -1.145424 1.238393 1.474866
v 1.166914 1.238393 1.474866
v -1.145423 1.238393 -1.398118
v 0.004298 1.058291 -2.015883
v 0.004298 1.418494 1.444752
v 0.004298 1.058291 2.092632
v 0.004298 1.418494 -1.368003
v 0.004298 0.988651 -1.725205
v 0.004298 0.988651 1.801954
v 0.004298 0.854172 -0.902299
v 0.004298 0.854172 0.979048
v 0.004298 1.238393 -2.116363
v 0.004298 1.238393 2.193113
v -1.255483 1.058291 0.038375
v -0.627204 1.058291 -1.930289
v 1.156417 1.134835 -1.380710
v -1.120815 1.339616 1.402740
v 1.156417 1.134835 1.457459
v -1.134927 1.134835 -1.380710
v -0.635260 1.415409 1.385424
v 1.114060 1.412324 0.038375
v 0.640636 1.058291 2.007038
v -1.093306 1.412324 0.038375
v 0.648413 1.415409 -1.308675
v 1.280197 1.058291 0.038375
v -1.049914 0.988651 0.038375
v -0.524420 0.988651 -1.651722
v 0.537851 0.988651 1.728472
v 1.074628 0.988651 0.038375
v -1.007753 1.022571 -1.251599
v -1.007753 1.022571 1.328348
v 1.029244 1.022571 -1.251599
v 1.029244 1.022571 1.328348
v -0.775985 0.859931 0.038375
v -0.449218 0.857051 -0.866370
v 0.462371 0.857051 0.943120
v 0.796739 0.859931 0.038375
v 0.849435 0.923591 1.038136
v 0.849435 0.923591 -0.961386
v -0.828313 0.923591 -0.961386
v -0.828313 0.923591 1.038136
v 1.141938 1.339616 -1.325991
v -1.134927 1.134835 1.457459
v 1.141938 1.339616 1.402740
v -1.120815 1.339616 -1.325991
v 0.671513 1.238393 -2.026583
v 1.341951 1.238393 0.038374
v -1.317237 1.238393 0.038374
v -0.658081 1.238393 2.103332
v 0.640636 1.058291 -1.930289
v 0.648413 1.415409 1.385424
v -0.627204 1.058291 2.007038
v -0.635260 1.415409 -1.308675
v 0.537851 0.988651 -1.651722
v -0.524420 0.988651 1.728472
v 0.462371 0.857051 -0.866371
v -0.449218 0.857051 0.943120
v -0.658081 1.238393 -2.026583
v 0.671513 1.238393 2.103332
v 0.004298 1.134835 2.167001
v 0.004298 1.134835 -2.090252
v 0.004298 0.921412 1.533116
v 0.004298 0.921412 -1.456367
v 0.004298 0.828957 0.038375
v 0.004298 1.022571 1.973334
v 0.004298 1.022571 -1.896585
v 0.004298 1.341951 -2.009267
v 0.004298 1.341951 2.086015
v 0.004298 1.445509 0.038374
v -0.640584 1.441340 0.038375
v -0.651257 1.341367 2.000515
v -1.284834 1.340784 0.038375
v 0.973235 0.922501 0.038375
v 1.309050 1.340784 0.038375
v 0.664618 1.341367 -1.923766
v -1.158916 1.022571 0.038375
v -0.578921 1.022571 -1.815962
v 0.592352 1.022571 1.892711
v 1.183630 1.022571 0.038375
v 0.459950 0.832848 0.038375
v 0.493810 0.921956 -1.394902
v -0.480448 0.921956 1.471652
v -0.949018 0.922501 0.038375
v 0.665477 1.134835 -2.001559
v 1.329880 1.134835 0.038374
v -1.305166 1.134835 0.038374
v -0.652046 1.134835 2.078308
v 0.665477 1.134835 2.078308
v -0.652046 1.134835 -2.001559
v 0.493810 0.921957 1.471652
v -0.480448 0.921957 -1.394902
v -0.446658 0.832848 0.038375
v -0.578921 1.022571 1.892711
v 0.592352 1.022571 -1.815962
v -0.651257 1.341367 -1.923766
v 0.664618 1.341367 2.000515
v 0.653877 1.441340 0.038374
vt 0.384939 0.159396
vt 0.503729 0.502277
vt 0.261343 0.256922
vt 0.500702 0.144545
vt 0.616400 0.390990
vt 0.861397 0.509723
vt 0.845116 0.625293
vt 0.746071 0.747675
vt 0.862048 0.864976
vt 0.991446 0.747047
vt 0.889490 0.892709
vt 0.958066 0.727733
vt 0.932762 0.543317
vt 0.965313 0.544563
vt 0.751887 0.257165
vt 0.732036 0.276773
vt 0.467991 0.072770
vt 0.467148 0.040205
vt 0.321436 0.683896
vt 0.529905 0.806387
vt 0.543494 0.852665
vt 0.202439 0.473412
vt 0.342120 0.663554
vt 0.264823 0.501747
vt 0.373940 0.632261
vt 0.502614 0.743539
vt 0.072515 0.463422
vt 0.252869 0.750057
vt 0.039933 0.462154
vt 0.144176 0.496725
vt 0.272756 0.730415
vt 0.504840 0.861871
vt 0.537255 0.933939
vt 0.538121 0.966534
vt 0.145482 0.139506
vt 0.015059 0.258175
vt 0.118090 0.111724
vt 0.048400 0.277565
vt 0.161470 0.380076
vt 0.854826 0.546618
vt 0.708644 0.303095
vt 0.890356 0.550404
vt 0.467594 0.152869
vt 0.689275 0.322144
vt 0.464401 0.117281
vt 0.726289 0.285742
vt 0.919018 0.549721
vt 0.872686 0.696575
vt 0.827588 0.828135
vt 0.797944 0.798005
vt 0.909369 0.714875
vt 0.937826 0.725978
vt 0.849068 0.849960
vt 0.139718 0.307810
vt 0.185660 0.175406
vt 0.215292 0.205549
vt 0.120879 0.455289
vt 0.102994 0.289515
vt 0.092225 0.455990
vt 0.074497 0.278403
vt 0.164197 0.153565
vt 0.156394 0.459053
vt 0.302074 0.702938
vt 0.546665 0.888238
vt 0.284436 0.720284
vt 0.578583 0.726229
vt 0.506654 0.501743
vt 0.660273 0.658012
vt 0.430690 0.576449
vt 0.283398 0.426078
vt 0.352969 0.345537
vt 0.694437 0.871862
vt 0.751896 0.751191
vt 0.659558 0.819958
vt 0.317955 0.132510
vt 0.261331 0.252372
vt 0.352849 0.184371
vt 0.481246 0.199112
vt 0.433885 0.278032
vt 0.808818 0.532196
vt 0.668655 0.342422
vt 0.746708 0.503565
vt 0.637371 0.373188
vt 0.508837 0.261692
vt 0.868489 0.869679
vt 0.722752 0.937563
vt 0.740897 0.989912
vt 0.731973 0.962661
vt 0.535623 0.968541
vt 0.542738 0.941761
vt 0.545487 0.916875
vt 0.268185 0.736265
vt 0.249068 0.755067
vt 0.067298 0.458323
vt 0.465563 0.088634
vt 0.742538 0.269762
vt 0.468335 0.063750
vt 0.761646 0.250971
vt 0.943945 0.547364
vt 0.144804 0.133818
vt 0.289644 0.066888
vt 0.271629 0.014508
vt 0.280471 0.041800
vt 0.475535 0.036996
vt 0.040403 0.464991
vt 0.049557 0.268764
vt 0.022459 0.259387
vt 0.970815 0.540612
vt 0.962757 0.735567
vt 0.989898 0.744863
vt 0.191033 0.343550
vt 0.821414 0.660821
vt 0.729119 0.578233
vt 0.581844 0.427796
vt 0.300270 0.095526
vt 0.712117 0.908886
vt 0.283901 0.045190
vt 0.265001 0.011574
vt 0.722801 0.960347
vt 0.741778 0.993924
vt 0.621694 0.846019
vt 0.390246 0.614367
vt 0.309318 0.694301
vt 0.696038 0.312329
vt 0.887980 0.889462
vt 0.125349 0.113999
vn -0.0652 0.9947 -0.0800
vn 0.0000 1.0000 0.0000
vn -0.0000 0.9974 -0.0720
vn -0.2268 0.9722 -0.0581
vn -0.0341 0.9994 0.0000
vn -0.2268 0.9722 0.0581
vn -0.0652 0.9947 0.0800
vn -0.0000 0.9974 0.0720
vn -0.0002 0.8925 0.4509
vn -0.4563 0.2293 0.8598
vn -0.0004 0.2634 0.9647
vn -0.3056 0.8415 0.4455
vn -0.6392 0.7346 0.2275
vn -0.8958 0.1585 0.4152
vn -0.9956 0.0938 0.0000
vn -0.7415 0.6709 0.0000
vn -0.6392 0.7346 -0.2275
vn -0.8958 0.1585 -0.4152
vn 0.4162 -0.9092 0.0000
vn 0.3401 -0.9336 -0.1126
vn 0.2881 -0.9503 -0.1181
vn 0.3401 -0.9336 0.1126
vn 0.4523 -0.8919 0.0000
vn 0.2094 -0.9760 0.0595
vn 0.2139 -0.9768 0.0000
vn 0.2094 -0.9760 -0.0595
vn 0.6360 0.7367 -0.2295
vn 0.9954 0.0959 0.0000
vn 0.8934 0.1602 -0.4197
vn 0.2231 0.9731 -0.0584
vn 0.7385 0.6742 0.0000
vn 0.2231 0.9731 0.0584
vn 0.6360 0.7367 0.2295
vn 0.8934 0.1602 0.4197
vn -0.0002 0.8925 -0.4509
vn 0.4530 0.2297 -0.8614
vn -0.0004 0.2634 -0.9647
vn 0.3020 0.8425 -0.4461
vn 0.0641 0.9947 -0.0798
vn -0.2904 -0.9497 -0.1171
vn -0.3239 -0.9461 0.0000
vn -0.2721 -0.9569 -0.1013
vn -0.2904 -0.9497 0.1171
vn -0.4175 -0.9087 0.0000
vn -0.2721 -0.9569 0.1013
vn -0.6389 -0.7692 0.0000
vn -0.5777 -0.7878 -0.2135
vn -0.1147 -0.9752 -0.1894
vn -0.0001 -0.9696 -0.2446
vn -0.0001 -0.9763 -0.2164
vn -0.1283 -0.9688 -0.2118
vn -0.2935 -0.8281 -0.4776
vn -0.0003 -0.8455 -0.5339
vn 0.1133 -0.9752 0.1899
vn -0.0001 -0.9696 0.2446
vn -0.0001 -0.9763 0.2164
vn 0.2709 -0.9571 0.1026
vn 0.1269 -0.9689 0.2123
vn 0.5761 -0.7882 0.2163
vn 0.2905 -0.8285 0.4787
vn -0.0003 -0.8455 0.5339
vn 0.2881 -0.9503 0.1181
vn 0.3240 -0.9460 0.0000
vn 0.2709 -0.9571 -0.1026
vn 0.6392 -0.7690 0.0000
vn 0.0623 -0.9947 -0.0818
vn -0.0000 -1.0000 0.0000
vn -0.0001 -0.9971 -0.0762
vn 0.0425 -0.9991 0.0000
vn 0.0623 -0.9947 0.0818
vn -0.0001 -0.9971 0.0762
vn 0.1133 -0.9752 -0.1899
vn -0.0001 -0.9823 -0.1872
vn 0.1247 -0.9751 -0.1832
vn -0.1147 -0.9752 0.1894
vn -0.0001 -0.9823 0.1872
vn -0.1270 -0.9749 0.1830
vn -0.3433 -0.9326 0.1116
vn -0.0637 -0.9946 0.0819
vn -0.3433 -0.9326 -0.1116
vn -0.4558 -0.8901 0.0000
vn -0.2134 -0.9752 -0.0590
vn -0.2178 -0.9760 0.0000
vn -0.2134 -0.9752 0.0590
vn -0.0004 -0.4781 -0.8783
vn 0.2905 -0.8285 -0.4787
vn 0.4418 -0.4565 -0.7722
vn 0.8502 -0.3838 -0.3604
vn 0.5761 -0.7882 -0.2163
vn 0.9427 -0.3334 0.0000
vn 0.8502 -0.3838 0.3604
vn -0.5777 -0.7878 0.2135
vn -0.9427 -0.3335 0.0000
vn -0.8522 -0.3832 0.3562
vn -0.8522 -0.3832 -0.3562
vn -0.0004 -0.4781 0.8783
vn -0.2935 -0.8281 0.4776
vn -0.4454 -0.4561 0.7704
vn 0.4418 -0.4565 0.7722
vn 0.4530 0.2297 0.8614
vn -0.4454 -0.4561 -0.7704
vn -0.4563 0.2293 -0.8598
vn 0.1247 -0.9751 0.1832
vn -0.1270 -0.9749 -0.1830
vn -0.0637 -0.9946 -0.0819
vn -0.0434 -0.9991 0.0000
vn -0.1283 -0.9688 0.2118
vn 0.1269 -0.9689 -0.2123
vn -0.3056 0.8415 -0.4455
vn 0.3020 0.8425 0.4461
vn 0.0641 0.9947 0.0798
vn 0.0335 0.9994 0.0000
vn 0.2117 0.9773 0.0000
vn -0.2151 0.9766 0.0000
usemtl Material
s 1
f 70/1/1 86/2/2 24/3/3
f 5/4/4 87/5/5 70/1/1
f 87/5/5 7/6/6 37/7/7
f 86/2/2 37/7/7 22/8/8
f 85/9/9 66/10/10 30/11/11
f 22/8/8 88/12/12 85/9/9
f 37/7/7 34/13/13 88/12/12
f 88/12/12 18/14/14 66/10/10
f 34/13/13 65/15/15 18/14/14
f 7/6/6 89/16/16 34/13/13
f 89/16/16 5/4/4 62/17/17
f 65/15/15 62/17/17 20/18/18
f 46/19/19 56/20/20 2/21/21
f 46/19/19 55/22/22 90/23/23
f 90/23/23 16/24/24 54/25/25
f 90/23/23 15/26/26 56/20/20
f 59/27/27 64/28/28 17/29/29
f 1/30/30 91/31/31 59/27/27
f 91/31/31 3/32/32 61/33/33
f 64/28/28 61/33/33 19/34/34
f 84/35/35 63/36/36 29/37/37
f 24/3/3 92/38/38 84/35/35
f 41/39/39 59/27/27 92/38/38
f 92/38/38 17/29/29 63/36/36
f 6/40/40 93/41/41 47/42/42
f 8/43/43 93/41/41 43/44/44
f 48/45/45 31/46/46 93/41/41
f 47/42/42 31/46/46 9/47/47
f 44/48/48 83/49/49 25/50/50
f 44/48/48 47/42/42 94/51/51
f 94/51/51 9/47/47 32/52/52
f 94/51/51 21/53/53 83/49/49
f 45/54/54 82/55/55 26/56/56
f 45/54/54 50/57/57 95/58/58
f 95/58/58 12/59/59 39/60/60
f 95/58/58 23/61/61 82/55/55
f 4/62/62 96/63/63 50/57/57
f 2/21/21 96/63/63 46/19/19
f 49/64/64 42/65/65 96/63/63
f 50/57/57 42/65/65 12/59/59
f 73/66/66 81/67/67 27/68/68
f 15/26/26 97/69/69 73/66/66
f 97/69/69 16/24/24 53/70/70
f 81/67/67 53/70/70 28/71/71
f 71/72/72 80/73/73 25/50/50
f 2/21/21 98/74/74 71/72/72
f 56/20/20 73/66/66 98/74/74
f 98/74/74 27/68/68 80/73/73
f 72/75/75 79/76/76 26/56/56
f 8/43/43 99/77/77 72/75/75
f 58/78/78 74/79/79 99/77/77
f 99/77/77 28/71/71 79/76/76
f 43/44/44 58/78/78 8/43/43
f 43/44/44 57/80/80 100/81/81
f 100/81/81 13/82/82 51/83/83
f 100/81/81 14/84/84 58/78/78
f 78/85/85 67/86/86 21/53/53
f 78/85/85 63/87/36 101/88/87
f 101/88/87 17/89/29 33/90/88
f 67/86/86 33/90/88 11/91/89
f 11/91/89 102/92/90 42/65/65
f 33/90/88 64/93/28 102/92/90
f 64/93/28 35/94/91 102/92/90
f 102/92/90 12/59/59 42/65/65
f 10/95/92 103/96/93 31/46/46
f 60/97/94 65/98/15 103/96/93
f 65/98/15 36/99/95 103/96/93
f 103/96/93 9/47/47 31/46/46
f 77/100/96 69/101/97 23/61/61
f 77/100/96 66/102/10 104/103/98
f 104/103/98 18/104/14 60/97/94
f 69/101/97 60/97/94 10/95/92
f 35/94/91 39/60/60 12/59/59
f 19/105/34 105/106/99 35/94/91
f 76/107/100 77/100/96 105/106/99
f 39/60/60 77/100/96 23/61/61
f 36/99/95 32/52/52 9/47/47
f 20/108/18 106/109/101 36/99/95
f 75/110/102 78/85/85 106/109/101
f 32/52/52 78/85/85 21/53/53
f 4/62/62 107/111/103 55/22/22
f 45/54/54 79/76/76 107/111/103
f 107/111/103 28/71/71 53/70/70
f 55/22/22 53/70/70 16/24/24
f 6/40/40 108/112/104 57/80/80
f 44/48/48 80/73/73 108/112/104
f 108/112/104 27/68/68 52/113/105
f 57/80/80 52/113/105 13/82/82
f 13/82/82 109/114/106 51/83/83
f 52/113/105 81/67/67 109/114/106
f 81/67/67 74/79/79 109/114/106
f 109/114/106 14/84/84 51/83/83
f 72/75/75 48/45/45 8/43/43
f 72/75/75 82/55/55 110/115/107
f 110/115/107 23/61/61 69/101/97
f 110/115/107 10/95/92 48/45/45
f 71/72/72 49/64/64 2/21/21
f 71/72/72 83/49/49 111/116/108
f 111/116/108 21/53/53 67/86/86
f 111/116/108 11/91/89 49/64/64
f 20/18/18 112/117/109 75/118/102
f 62/17/17 70/1/1 112/117/109
f 112/117/109 24/3/3 84/35/35
f 75/118/102 84/35/35 29/37/37
f 19/34/34 113/119/110 76/120/100
f 61/33/33 68/121/111 113/119/110
f 113/119/110 22/8/8 85/9/9
f 76/120/100 85/9/9 30/11/11
f 1/30/30 114/122/112 38/123/113
f 41/39/39 86/2/2 114/122/112
f 86/2/2 68/121/111 114/122/112
f 114/122/112 3/32/32 38/123/113
f 70/1/1 87/5/5 86/2/2
f 5/4/4 40/124/114 87/5/5
f 87/5/5 40/124/114 7/6/6
f 86/2/2 87/5/5 37/7/7
f 85/9/9 88/12/12 66/10/10
f 22/8/8 37/7/7 88/12/12
f 37/7/7 7/6/6 34/13/13
f 88/12/12 34/13/13 18/14/14
f 34/13/13 89/16/16 65/15/15
f 7/6/6 40/124/114 89/16/16
f 89/16/16 40/124/114 5/4/4
f 65/15/15 89/16/16 62/17/17
f 46/19/19 90/23/23 56/20/20
f 46/19/19 4/62/62 55/22/22
f 90/23/23 55/22/22 16/24/24
f 90/23/23 54/25/25 15/26/26
f 59/27/27 91/31/31 64/28/28
f 1/30/30 38/123/113 91/31/31
f 91/31/31 38/123/113 3/32/32
f 64/28/28 91/31/31 61/33/33
f 84/35/35 92/38/38 63/36/36
f 24/3/3 41/39/39 92/38/38
f 41/39/39 1/30/30 59/27/27
f 92/38/38 59/27/27 17/29/29
f 6/40/40 43/44/44 93/41/41
f 8/43/43 48/45/45 93/41/41
f 48/45/45 10/95/92 31/46/46
f 47/42/42 93/41/41 31/46/46
f 44/48/48 94/51/51 83/49/49
f 44/48/48 6/40/40 47/42/42
f 94/51/51 47/42/42 9/47/47
f 94/51/51 32/52/52 21/53/53
f 45/54/54 95/58/58 82/55/55
f 45/54/54 4/62/62 50/57/57
f 95/58/58 50/57/57 12/59/59
f 95/58/58 39/60/60 23/61/61
f 4/62/62 46/19/19 96/63/63
f 2/21/21 49/64/64 96/63/63
f 49/64/64 11/91/89 42/65/65
f 50/57/57 96/63/63 42/65/65
f 73/66/66 97/69/69 81/67/67
f 15/26/26 54/25/25 97/69/69
f 97/69/69 54/25/25 16/24/24
f 81/67/67 97/69/69 53/70/70
f 71/72/72 98/74/74 80/73/73
f 2/21/21 56/20/20 98/74/74
f 56/20/20 15/26/26 73/66/66
f 98/74/74 73/66/66 27/68/68
f 72/75/75 99/77/77 79/76/76
f 8/43/43 58/78/78 99/77/77
f 58/78/78 14/84/84 74/79/79
f 99/77/77 74/79/79 28/71/71
f 43/44/44 100/81/81 58/78/78
f 43/44/44 6/40/40 57/80/80
f 100/81/81 57/80/80 13/82/82
f 100/81/81 51/83/83 14/84/84
f 78/85/85 101/88/87 67/86/86
f 78/85/85 29/125/37 63/87/36
f 101/88/87 63/87/36 17/89/29
f 67/86/86 101/88/87 33/90/88
f 11/91/89 33/90/88 102/92/90
f 33/90/88 17/89/29 64/93/28
f 64/93/28 19/105/34 35/94/91
f 102/92/90 35/94/91 12/59/59
f 10/95/92 60/97/94 103/96/93
f 60/97/94 18/104/14 65/98/15
f 65/98/15 20/108/18 36/99/95
f 103/96/93 36/99/95 9/47/47
f 77/100/96 104/103/98 69/101/97
f 77/100/96 30/126/11 66/102/10
f 104/103/98 66/102/10 18/104/14
f 69/101/97 104/103/98 60/97/94
f 35/94/91 105/106/99 39/60/60
f 19/105/34 76/107/100 105/106/99
f 76/107/100 30/126/11 77/100/96
f 39/60/60 105/106/99 77/100/96
f 36/99/95 106/109/101 32/52/52
f 20/108/18 75/110/102 106/109/101
f 75/110/102 29/125/37 78/85/85
f 32/52/52 106/109/101 78/85/85
f 4/62/62 45/54/54 107/111/103
f 45/54/54 26/56/56 79/76/76
f 107/111/103 79/76/76 28/71/71
f 55/22/22 107/111/103 53/70/70
f 6/40/40 44/48/48 108/112/104
f 44/48/48 25/50/50 80/73/73
f 108/112/104 80/73/73 27/68/68
f 57/80/80 108/112/104 52/113/105
f 13/82/82 52/113/105 109/114/106
f 52/113/105 27/68/68 81/67/67
f 81/67/67 28/71/71 74/79/79
f 109/114/106 74/79/79 14/84/84
f 72/75/75 110/115/107 48/45/45
f 72/75/75 26/56/56 82/55/55
f 110/115/107 82/55/55 23/61/61
f 110/115/107 69/101/97 10/95/92
f 71/72/72 111/116/108 49/64/64
f 71/72/72 25/50/50 83/49/49
f 111/116/108 83/49/49 21/53/53
f 111/116/108 67/86/86 11/91/89
f 20/18/18 62/17/17 112/117/109
f 62/17/17 5/4/4 70/1/1
f 112/117/109 70/1/1 24/3/3
f 75/118/102 112/117/109 84/35/35
f 19/34/34 61/33/33 113/119/110
f 61/33/33 3/32/32 68/121/111
f 113/119/110 68/121/111 22/8/8
f 76/120/100 113/119/110 85/9/9
f 1/30/30 41/39/39 114/122/112
f 41/39/39 24/3/3 86/2/2
f 86/2/2 22/8/8 68/121/111
f 114/122/112 68/121/111 3/32/32
