# Blender v2.90.0 OBJ File: ''
# www.blender.org
mtllib House.mtl
o House_Plane.001
v 6.814692 4.398631 -1.263709
v 6.867032 -0.051114 -1.232606
v 6.814692 4.398631 -1.832195
v 6.867032 -0.051114 -1.801092
v 6.687337 4.398631 -1.263709
v 6.739676 -0.051114 -1.232606
v 6.687337 4.398631 -1.832195
v 6.739676 -0.051114 -1.801092
v 6.744388 4.407051 -3.953204
v 6.393437 0.019297 -3.747406
v 6.744388 4.407051 3.956666
v 6.393437 0.019297 3.750868
v -6.744389 4.407051 -3.953204
v -6.393438 0.019297 -3.747406
v -6.744389 4.407051 3.956666
v -6.393438 0.019297 3.750868
v 6.744388 7.811958 -0.018044
v 6.744388 -0.097913 -0.018044
v -6.744389 7.811958 -0.018044
v -6.744389 -0.097913 -0.018044
v 6.744388 7.811958 -0.018044
v 6.744388 4.407051 -3.953204
v -6.744389 4.407051 3.956666
v 6.744388 4.407051 3.956666
v -6.744389 7.811958 -0.018044
v -6.744389 4.407051 -3.953204
v 6.744388 7.811958 -0.018044
v 6.744388 4.407051 -3.953204
v -6.744389 4.407051 3.956666
v 6.744388 4.407051 3.956666
v -6.744389 7.811958 -0.018044
v -6.744389 4.407051 -3.953204
v 6.744388 7.811958 -0.018044
v 6.744388 4.407051 -3.953204
v -6.744389 4.407051 3.956666
v 6.744388 4.407051 3.956666
v -6.744389 7.811958 -0.018044
v -6.744389 4.407051 -3.953204
v 6.744388 7.811958 -0.018044
v 6.508606 4.297324 -3.747406
v -6.810213 4.289841 3.750868
v 6.508606 4.297324 3.750868
v -6.744389 7.811958 -0.018044
v -6.810213 4.289841 -3.747406
v 6.744388 9.015301 -0.019981
v 6.744388 4.856151 -4.341790
v -6.744389 4.858067 4.343027
v 6.744388 4.858067 4.343027
v -6.744389 8.595607 -0.019981
v -6.744389 4.856151 -4.341790
v 6.744388 4.145323 -4.255692
v -6.744389 4.145323 -4.255692
v 6.744388 4.594424 -4.644277
v -6.744389 4.594424 -4.644277
v -6.744389 4.146821 4.260444
v 6.744388 4.146821 4.260444
v 6.744388 4.597838 4.646805
v -6.744389 4.597838 4.646805
v 6.814692 4.398631 1.755684
v 6.867032 -0.051114 1.786787
v 6.814692 4.398631 1.187198
v 6.867032 -0.051114 1.218301
v 6.687337 4.398631 1.755684
v 6.739676 -0.051114 1.786787
v 6.687337 4.398631 1.187198
v 6.739676 -0.051114 1.218301
v 6.880288 3.963201 2.295014
v 6.921457 4.173234 -2.157212
v 6.869117 4.772823 2.292533
v 6.932628 4.500585 -2.154731
v 6.752933 3.963201 2.295014
v 6.794101 4.173234 -2.157212
v 6.741761 4.772823 2.292533
v 6.805272 4.500585 -2.154731
vt 0.882244 0.850994
vt 0.977131 0.945881
vt 0.977131 0.850994
vt 0.990150 0.976436
vt 0.974501 0.960787
vt 0.990150 0.960787
vt 0.838621 0.901936
vt 0.993410 0.953533
vt 0.994017 0.901936
vt 0.890462 0.889426
vt 0.976726 0.889426
vt 0.890462 0.950418
vt 0.985553 0.678355
vt 0.985553 0.954458
vt 0.908978 0.954458
vt 0.000000 0.000000
vt 0.000000 1.000000
vt 0.000000 1.000000
vt 0.625000 0.140000
vt 0.378906 0.023438
vt 0.375000 0.140000
vt 0.628906 0.023438
vt 0.378906 0.273438
vt 0.640625 0.059219
vt 0.390625 0.183594
vt 0.390625 0.059219
vt 0.347656 0.039062
vt 0.601562 0.046875
vt 0.351562 0.046875
vt 0.375000 0.124375
vt 0.375000 0.250000
vt 0.375000 0.124375
vt 0.375000 0.110000
vt 0.625000 0.234375
vt 0.375000 0.234375
vt 0.632812 0.085938
vt 0.382812 0.211563
vt 0.382812 0.085938
vt 0.375000 0.625625
vt 0.375000 0.750000
vt 0.375000 0.625625
vt 0.378906 0.074219
vt 0.628906 0.199844
vt 0.378906 0.199844
vt 0.375000 0.015625
vt 0.375000 1.000000
vt 0.375000 0.750000
vt 0.375000 0.625625
vt 0.375000 0.750000
vt 0.375000 1.000000
vt 0.375000 0.250000
vt 0.375000 0.500000
vt 0.375000 0.000000
vt 0.375000 0.000000
vt 0.375000 0.500000
vt 0.375000 0.500000
vt 0.375000 0.625625
vt 0.375000 0.500000
vt 0.375000 0.124375
vt 0.375000 0.250000
vt 0.375000 0.124375
vt 0.375000 0.250000
vt 0.375000 0.000000
vt 0.375000 0.750000
vt 0.375000 1.000000
vt 0.375000 0.750000
vt 0.375000 0.625625
vt 0.375000 0.000000
vt 0.375000 1.000000
vt 0.183594 0.902969
vt 0.183594 0.777344
vt 0.183594 0.777344
vt 0.027344 0.815781
vt 0.027344 0.941406
vt 0.027344 0.815781
vt 0.119384 0.972056
vt 0.138069 0.820667
vt 0.119384 0.877890
vt 0.375000 0.250000
vt 0.375000 0.124375
vt 0.375000 0.500000
vt 0.375000 0.000000
vt 0.265625 0.852188
vt 0.015625 0.976562
vt 0.015625 0.852188
vt 0.148438 0.839844
vt 0.398438 0.965469
vt 0.148438 0.965469
vt 0.093750 0.948594
vt 0.093750 0.824219
vt 0.093750 0.824219
vt 0.070312 0.848281
vt 0.351562 0.753906
vt 0.242188 0.719375
vt 0.132812 0.738281
vt 0.132812 0.738281
vt 0.132812 0.839844
vt 0.382812 0.839844
vt 0.382812 0.839844
vt 0.082031 0.980469
vt 0.050781 0.746094
vt 0.082031 0.730469
vt 0.050781 0.949219
vt 0.050781 0.949219
vt 0.050781 0.949219
vt 0.382812 0.988281
vt 0.382812 0.738281
vt 0.382812 0.738281
vt 0.109375 0.898438
vt 0.109375 0.898438
vt 0.109375 0.898438
vt 0.140625 0.722656
vt 0.140625 0.972656
vt 0.140625 0.722656
vt 0.027344 0.734375
vt 0.027344 0.984375
vt 0.027344 0.734375
vt 0.339844 0.828125
vt 0.339844 0.828125
vt 0.339844 0.828125
vt 0.285156 0.886719
vt 0.285156 0.886719
vt 0.285156 0.886719
vt 0.817857 0.778795
vt 0.986830 0.947768
vt 0.986830 0.778795
vt 0.834746 0.824903
vt 0.992077 0.982234
vt 0.834746 0.982234
vt 0.961199 0.669723
vt 0.890363 0.935746
vt 0.964494 0.936920
vt 0.749928 0.735464
vt 0.979644 0.735464
vt 0.750825 0.948130
vt 0.971896 0.777473
vt 0.971896 0.949089
vt 0.934354 0.949089
vt 0.000000 0.000000
vt 0.000000 1.000000
vt 0.000000 1.000000
vt 0.758061 0.738530
vt 0.982631 0.957483
vt 0.991939 0.738530
vt 0.000000 0.000000
vt 1.000000 1.000000
vt 0.000000 1.000000
vt 0.947937 0.966862
vt 0.949387 0.673990
vt 0.903626 0.673763
vt 0.935731 0.645086
vt 0.938781 0.957222
vt 0.737000 0.648247
vt 0.886441 0.706639
vt 0.992188 0.968750
vt 0.750713 0.712912
vt 0.964844 0.957031
vt 0.945312 0.875000
vt 0.964844 0.957031
vt 0.882244 0.945881
vt 0.974501 0.976436
vt 0.838014 0.953533
vt 0.976726 0.950418
vt 0.908978 0.678355
vt 0.000000 0.000000
vt 0.628906 0.273438
vt 0.640625 0.183594
vt 0.597656 0.039062
vt 0.625000 0.110000
vt 0.632812 0.211563
vt 0.628906 0.074219
vt 0.625000 0.015625
vt 0.375000 1.000000
vt 0.183594 0.902969
vt 0.027344 0.941406
vt 0.138069 0.914833
vt 0.265625 0.976562
vt 0.398438 0.839844
vt 0.093750 0.948594
vt 0.070312 0.972656
vt 0.351562 0.753906
vt 0.132812 0.839844
vt 0.082031 0.980469
vt 0.050781 0.949219
vt 0.382812 0.988281
vt 0.109375 0.898438
vt 0.140625 0.972656
vt 0.027344 0.984375
vt 0.339844 0.828125
vt 0.285156 0.886719
vt 0.817857 0.947768
vt 0.992077 0.824903
vt 0.887068 0.668549
vt 0.980541 0.948130
vt 0.971896 0.777473
vt 0.000000 0.000000
vt 0.758061 0.972407
vt 1.000000 0.000000
vt 0.902175 0.966635
vt 0.740050 0.960383
vt 0.886441 0.852632
vt 0.910156 0.949219
vn -0.9999 -0.0118 0.0000
vn 0.9999 0.0118 0.0000
vn 0.0000 0.0070 1.0000
vn 0.0000 -0.0070 -1.0000
vn 0.0000 1.0000 0.0000
vn 0.0000 -1.0000 0.0000
vn -1.0000 0.0000 0.0000
vn 0.0000 0.0469 -0.9989
vn 1.0000 0.0000 0.0000
vn 0.0000 0.0469 0.9989
vn 0.0000 0.0000 1.0000
vn 0.0000 0.9995 0.0314
vn 0.0000 0.9995 -0.0311
vn 0.0005 -0.8690 -0.4948
vn 0.9967 -0.0677 -0.0458
vn 0.0000 -0.8824 0.4705
vn -0.9591 0.2151 0.1843
vn 0.6783 -0.5557 0.4808
vn 0.0224 -0.7204 0.6932
vn 0.0225 -0.7238 -0.6897
vn -0.9589 0.2343 -0.1601
vn 0.0000 -0.7562 0.6543
vn 0.0000 -0.7594 -0.6506
vn 0.0000 0.6543 0.7562
vn -0.9116 -0.0494 -0.4081
vn -0.0005 0.9619 -0.2735
vn 0.0000 0.6506 -0.7594
vn 0.0000 0.9590 0.2833
vn 0.9922 0.0144 -0.1241
vn -0.9994 0.0342 -0.0076
vn 0.9998 0.0138 0.0134
vn 0.0000 -0.9981 0.0611
vn 0.0000 0.9989 0.0471
vn 0.0000 -0.0076 1.0000
vn 0.0000 -0.0031 -1.0000
vn -0.9919 0.0838 -0.0950
vn 0.9918 0.0838 0.0960
vn 0.9919 0.0838 -0.0950
vn -0.9918 0.0838 0.0960
vn 0.0000 -0.8824 -0.4705
vn -0.9592 0.2138 -0.1850
vn -0.9589 0.2351 0.1592
vn 0.0005 -0.8690 0.4948
vn 0.6776 -0.5585 -0.4785
vn 0.9967 -0.0675 0.0461
vn 0.0000 0.9581 -0.2865
vn 0.9921 0.0150 0.1242
vn -0.0005 0.9628 0.2703
vn -0.9118 -0.0474 0.4079
vn -0.9998 -0.0138 -0.0134
vn 0.9994 -0.0342 0.0076
usemtl Material.001
s off
f 1/1/1 4/2/1 2/3/1
f 5/4/2 8/5/2 7/6/2
f 3/7/3 8/8/3 4/9/3
f 1/10/4 6/11/4 5/12/4
f 4/13/5 6/14/5 2/15/5
f 1/16/6 7/17/6 3/18/6
f 18/19/7 11/20/7 17/21/7
f 12/22/8 15/23/8 11/20/8
f 20/24/9 13/25/9 19/26/9
f 13/27/10 10/28/10 9/29/10
f 17/30/11 24/31/11 21/32/11
f 20/33/12 10/34/12 14/35/12
f 12/36/13 20/37/13 16/38/13
f 19/39/11 26/40/11 25/41/11
f 15/42/9 20/43/9 19/44/9
f 9/45/7 18/19/7 17/21/7
f 26/40/11 28/46/11 32/47/11
f 25/41/11 32/47/11 31/48/11
f 13/49/11 22/50/11 26/40/11
f 11/51/11 23/52/11 24/31/11
f 9/53/11 21/32/11 22/54/11
f 15/55/11 25/41/11 23/52/11
f 29/56/11 37/57/11 35/58/11
f 27/59/11 36/60/11 33/61/11
f 24/31/11 29/56/11 30/62/11
f 21/32/11 30/62/11 27/59/11
f 23/52/11 31/48/11 29/56/11
f 22/54/11 27/59/11 28/63/11
f 38/64/14 40/65/14 44/66/14
f 37/57/11 44/66/11 43/67/11
f 28/63/11 33/61/11 34/68/11
f 31/48/11 38/64/11 37/57/11
f 32/47/11 34/69/11 38/64/11
f 30/62/11 35/58/11 36/60/11
f 43/70/15 47/71/15 41/72/15
f 39/73/7 48/74/7 45/75/7
f 35/76/16 42/77/16 36/78/16
f 33/61/11 42/79/11 39/80/11
f 35/58/17 43/67/17 41/81/17
f 34/68/18 39/80/18 40/82/18
f 49/83/19 46/84/19 45/85/19
f 48/86/20 49/87/20 45/88/20
f 39/89/21 46/90/21 40/91/21
f 43/92/9 50/93/9 49/94/9
f 50/93/22 53/95/22 46/96/22
f 48/97/23 58/98/23 47/99/23
f 51/100/24 54/101/24 52/102/24
f 46/103/25 51/104/25 40/105/25
f 40/106/26 52/107/26 44/108/26
f 50/109/9 52/110/9 54/111/9
f 56/112/27 58/113/27 57/114/27
f 42/115/28 55/116/28 56/117/28
f 47/118/29 55/119/29 41/120/29
f 48/121/7 56/122/7 57/123/7
f 59/124/1 62/125/1 60/126/1
f 63/127/2 66/128/2 65/129/2
f 61/130/3 66/131/3 62/132/3
f 59/133/4 64/134/4 63/135/4
f 62/136/5 64/137/5 60/138/5
f 59/139/6 65/140/6 61/141/6
f 67/142/30 70/143/30 68/144/30
f 71/145/31 74/146/31 73/147/31
f 69/148/32 74/149/32 70/150/32
f 67/151/33 72/152/33 71/153/33
f 68/154/34 74/155/34 72/156/34
f 69/157/35 71/158/35 73/159/35
f 1/1/1 3/160/1 4/2/1
f 5/4/2 6/161/2 8/5/2
f 3/7/3 7/162/3 8/8/3
f 1/10/4 2/163/4 6/11/4
f 4/13/5 8/164/5 6/14/5
f 1/16/6 5/165/6 7/17/6
f 18/19/36 12/22/36 11/20/36
f 12/22/8 16/166/8 15/23/8
f 20/24/37 14/167/37 13/25/37
f 13/27/10 14/168/10 10/28/10
f 17/30/11 11/51/11 24/31/11
f 20/33/12 18/169/12 10/34/12
f 12/36/13 18/170/13 20/37/13
f 19/39/11 13/49/11 26/40/11
f 15/42/38 16/171/38 20/43/38
f 9/45/39 10/172/39 18/19/39
f 26/40/11 22/50/11 28/46/11
f 25/41/11 26/40/11 32/47/11
f 13/49/11 9/173/11 22/50/11
f 11/51/11 15/55/11 23/52/11
f 9/53/11 17/30/11 21/32/11
f 15/55/11 19/39/11 25/41/11
f 29/56/11 31/48/11 37/57/11
f 27/59/11 30/62/11 36/60/11
f 24/31/11 23/52/11 29/56/11
f 21/32/11 24/31/11 30/62/11
f 23/52/11 25/41/11 31/48/11
f 22/54/11 21/32/11 27/59/11
f 38/64/40 34/69/40 40/65/40
f 37/57/41 38/64/41 44/66/41
f 28/63/11 27/59/11 33/61/11
f 31/48/11 32/47/11 38/64/11
f 32/47/11 28/46/11 34/69/11
f 30/62/11 29/56/11 35/58/11
f 43/70/9 49/174/9 47/71/9
f 39/73/42 42/175/42 48/74/42
f 35/76/43 41/176/43 42/77/43
f 33/61/44 36/60/44 42/79/44
f 35/58/11 37/57/11 43/67/11
f 34/68/11 33/61/11 39/80/11
f 49/83/22 50/177/22 46/84/22
f 48/86/23 47/178/23 49/87/23
f 39/89/7 45/179/7 46/90/7
f 43/92/45 44/180/45 50/93/45
f 50/93/22 54/181/22 53/95/22
f 48/97/23 57/182/23 58/98/23
f 51/100/24 53/183/24 54/101/24
f 46/103/7 53/184/7 51/104/7
f 40/106/46 51/185/46 52/107/46
f 50/109/47 44/186/47 52/110/47
f 56/112/27 55/187/27 58/113/27
f 42/115/48 41/188/48 55/116/48
f 47/118/9 58/189/9 55/119/9
f 48/121/49 42/190/49 56/122/49
f 59/124/1 61/191/1 62/125/1
f 63/127/2 64/192/2 66/128/2
f 61/130/3 65/193/3 66/131/3
f 59/133/4 60/194/4 64/134/4
f 62/136/5 66/195/5 64/137/5
f 59/139/6 63/196/6 65/140/6
f 67/142/50 69/197/50 70/143/50
f 71/145/51 72/198/51 74/146/51
f 69/148/32 73/199/32 74/149/32
f 67/151/33 68/200/33 72/152/33
f 68/154/34 70/201/34 74/155/34
f 69/157/35 67/202/35 71/158/35
