# Blender v2.90.0 OBJ File: 'portal.blend'
# www.blender.org
mtllib portal.mtl
o Circle
v -0.041145 1.012660 0.000000
v -0.233071 0.936475 0.000000
v -0.426994 0.936540 0.000000
v -0.615706 0.844130 0.000000
v -0.703942 0.688117 0.000000
v -0.859822 0.583922 0.000000
v -0.955530 0.398509 0.000000
v -1.018765 0.169770 0.000000
v -0.968350 -0.025320 -0.000000
v -0.980785 -0.195090 -0.000000
v -0.946035 -0.430159 -0.000000
v -0.831470 -0.555570 -0.000000
v -0.665962 -0.697612 -0.000000
v -0.561900 -0.850460 -0.000000
v -0.382683 -0.923880 -0.000000
v -0.172935 -0.942805 -0.000000
v 0.000000 -1.000000 -0.000000
v 0.195091 -0.980785 -0.000000
v 0.376354 -0.901724 -0.000000
v 0.587221 -0.872615 -0.000000
v 0.748253 -0.726096 -0.000000
v 0.853625 -0.568230 -0.000000
v 0.898560 -0.338372 -0.000000
v 0.983950 -0.214080 -0.000000
v 0.974680 -0.009494 -0.000000
v 1.021930 0.201421 0.000000
v 0.968189 0.376354 0.000000
v 0.818809 0.546076 0.000000
v 0.694446 0.745088 0.000000
v 0.527084 0.825140 0.000000
v 0.347867 0.961860 0.000000
v 0.163439 0.964960 0.000000
vt 0.016956 0.517193
vt 0.413213 0.962939
vt 0.105017 0.772908
vt 0.928403 0.666004
vt 0.916101 0.760455
vt 0.777497 0.879538
vt 0.859092 0.846487
vt 0.716837 0.948830
vt 0.620447 0.983651
vt 0.967495 0.474702
vt 0.977714 0.577375
vt 0.922525 0.288703
vt 0.977714 0.384683
vt 0.805166 0.128875
vt 0.894181 0.202100
vt 0.650226 0.008027
vt 0.732006 0.045327
vt 0.544498 0.017626
vt 0.379482 0.033782
vt 0.445448 0.000099
vt 0.505022 0.999901
vt 0.329738 0.958198
vt 0.163669 0.862550
vt 0.217462 0.926323
vt 0.181088 0.082327
vt 0.264676 0.041048
vt 0.071899 0.252284
vt 0.099487 0.151436
vt 0.000099 0.429331
vt 0.021865 0.335537
vt 0.037193 0.712506
vt 0.012833 0.620552
vn 0.0000 -0.0000 1.0000
usemtl Material.001
s off
f 16/1/1 9/2/1 13/3/1
f 2/4/1 3/5/1 5/6/1
f 3/5/1 4/7/1 5/6/1
f 5/6/1 6/8/1 7/9/1
f 32/10/1 1/11/1 2/4/1
f 30/12/1 31/13/1 32/10/1
f 28/14/1 29/15/1 30/12/1
f 26/16/1 27/17/1 25/18/1
f 27/17/1 28/14/1 25/18/1
f 23/19/1 24/20/1 25/18/1
f 28/14/1 30/12/1 23/19/1
f 30/12/1 32/10/1 2/4/1
f 2/4/1 5/6/1 9/2/1
f 5/6/1 7/9/1 9/2/1
f 7/9/1 8/21/1 9/2/1
f 9/2/1 10/22/1 12/23/1
f 10/22/1 11/24/1 12/23/1
f 30/12/1 2/4/1 23/19/1
f 23/19/1 2/4/1 16/1/1
f 23/19/1 25/18/1 28/14/1
f 21/25/1 22/26/1 23/19/1
f 19/27/1 20/28/1 21/25/1
f 17/29/1 18/30/1 16/1/1
f 18/30/1 19/27/1 16/1/1
f 14/31/1 15/32/1 13/3/1
f 15/32/1 16/1/1 13/3/1
f 19/27/1 21/25/1 23/19/1
f 12/23/1 13/3/1 9/2/1
f 16/1/1 19/27/1 23/19/1
f 2/4/1 9/2/1 16/1/1
