# Blender v2.91.2 OBJ File: 'tree2.blend'
# www.blender.org
mtllib tree2.mtl
o taiga_tree_1
v -0.164030 0.368126 0.612167
v -0.867017 -0.000000 0.232317
v -0.549666 -0.000000 0.549666
v -0.232317 -0.000000 0.867017
v -0.612167 0.368127 0.164030
v -0.388099 0.368127 0.388099
v -0.634701 0.000000 -0.634701
v -0.448137 0.368127 -0.448137
v 0.232317 0.000000 -0.867017
v 0.164030 0.368127 -0.612166
v -0.100596 1.688013 -0.375430
v -0.375431 1.688013 -0.100596
v -0.274833 1.688013 0.274833
v 0.100596 1.688013 0.375431
v 0.448137 0.368127 0.448137
v 0.375431 1.688013 0.100596
v 0.612167 0.368127 -0.164030
v 0.274833 1.688013 -0.274833
v 0.388099 0.368127 -0.388099
v 0.867017 0.000000 -0.232317
v 0.549666 0.000000 -0.549666
v 0.634701 -0.000000 0.634701
v -0.464634 1.688013 -1.734036
v 1.269402 1.688013 -1.269402
v -1.734036 1.688013 -0.464634
v -0.232317 3.401718 -0.867016
v -0.867017 3.401718 -0.232316
v 0.634701 3.401718 -0.634700
v 0.867017 3.401718 0.232317
v 1.734036 1.688013 0.464634
v 0.232317 3.401718 0.867017
v 0.464634 1.688012 1.734036
v -0.634701 3.401718 0.634702
v -1.269402 1.688012 1.269402
v -0.793376 3.401718 0.793377
v -1.083772 3.401718 -0.290395
v -0.404622 5.115411 0.404623
v -0.552723 5.115411 -0.148101
v 0.290396 3.401718 1.083773
v 0.148102 5.115411 0.552724
v 1.083772 3.401718 0.290397
v 0.552723 5.115411 0.148103
v 0.793376 3.401718 -0.793376
v -0.290396 3.401718 -1.083772
v -0.148102 5.115411 -0.552722
v -0.197469 5.115411 -0.736963
v -0.736964 5.115411 -0.197468
v -0.539496 5.115411 0.539497
v 0.197469 5.115411 0.736965
v 0.736964 5.115411 0.197470
v 0.539496 5.115411 -0.539495
v 0.404622 5.115411 -0.404621
v 0.000000 8.542796 0.000001
vt 0.100285 0.185480
vt 0.029056 0.210037
vt 0.043664 0.158444
vt 0.008833 0.263960
vt 0.083908 0.228108
vt 0.068992 0.271078
vt 0.006208 0.372127
vt 0.063607 0.363190
vt 0.033450 0.474123
vt 0.083313 0.449120
vt 0.240699 0.378860
vt 0.239416 0.333746
vt 0.250065 0.289292
vt 0.272001 0.248598
vt 0.156542 0.110969
vt 0.303642 0.214604
vt 0.228859 0.064825
vt 0.124668 0.515526
vt 0.252976 0.421311
vt 0.274307 0.461236
vt 0.104342 0.484134
vt 0.091782 0.555121
vt 0.063513 0.512701
vt 0.215294 0.006989
vt 0.113473 0.066094
vt 0.209837 0.731096
vt 0.391932 0.671487
vt 0.249262 0.753858
vt 0.209837 0.566355
vt 0.170412 0.753858
vt 0.027742 0.671487
vt 0.654632 0.782431
vt 0.576328 0.458191
vt 0.668321 0.486694
vt 0.744943 0.427500
vt 0.989016 0.200132
vt 0.726948 0.334165
vt 0.650497 0.006855
vt 0.635287 0.302325
vt 0.560397 0.364277
vt 0.315062 0.591561
vt 0.027742 0.881753
vt 0.209837 0.822144
vt 0.170412 0.799382
vt 0.209837 0.986886
vt 0.249262 0.799382
vt 0.391932 0.881753
vt 0.207585 0.569399
vt 0.063868 0.693862
vt 0.027938 0.673118
vt 0.604563 0.367897
vt 0.304146 0.575074
vt 0.332953 0.176786
vt 0.667495 0.013003
vt 0.991502 0.201560
vt 0.654496 0.336938
vt 0.387232 0.880557
vt 0.207585 0.942789
vt 0.351303 0.859813
vt 0.075404 0.853080
vt 0.209415 0.982031
vt 0.030734 0.878870
vt 0.207585 0.984277
vt 0.063867 0.859813
vt 0.351303 0.693862
vt 0.387233 0.673118
vt 0.653111 0.451952
vt 0.610112 0.418085
vt 0.030734 0.672548
vt 0.075404 0.698338
vt 0.343424 0.698337
vt 0.388095 0.878869
vt 0.343424 0.853079
vt 0.209414 0.569386
vt 0.209414 0.620966
vt 0.209414 0.930450
vt 0.653569 0.393408
vt 0.323106 0.584202
vt 0.323106 0.202615
vt 0.653570 0.774994
vt 0.984032 0.584202
vt 0.984032 0.202615
vt 0.653569 0.011822
vt 0.640059 0.784360
vt 0.699881 0.426026
vt 0.991502 0.602125
vt 0.703318 0.373860
vt 0.989016 0.589330
vt 0.313752 0.202569
vt 0.207585 0.610887
vt 0.027938 0.880557
vt 0.388095 0.672547
vn -0.6008 0.5274 0.6008
vn -0.8207 0.5274 -0.2199
vn -0.2199 0.5274 -0.8207
vn -0.2569 0.1205 -0.9589
vn -0.6898 0.2196 -0.6898
vn -0.9589 0.1205 -0.2569
vn -0.9423 0.2196 0.2525
vn -0.7020 0.1205 0.7020
vn -0.2525 0.2196 0.9423
vn 0.2569 0.1205 0.9589
vn 0.6898 0.2196 0.6898
vn 0.9589 0.1205 0.2569
vn 0.9423 0.2196 -0.2525
vn 0.7020 0.1205 -0.7020
vn 0.6008 0.5274 -0.6008
vn 0.8207 0.5274 0.2199
vn 0.2199 0.5274 0.8207
vn 0.2525 0.2196 -0.9423
vn -0.0000 -1.0000 -0.0000
vn -0.6440 0.4131 -0.6440
vn 0.2357 0.4131 -0.8797
vn 0.8797 0.4131 -0.2357
vn 0.6440 0.4131 0.6440
vn -0.2357 0.4131 0.8797
vn -0.8797 0.4131 0.2357
vn -0.9307 0.2677 0.2494
vn -0.2494 0.2677 0.9307
vn 0.6813 0.2677 0.6813
vn -0.6813 0.2677 -0.6813
vn 0.2541 0.1893 -0.9485
vn 0.9485 0.1893 -0.2541
vn 0.6943 0.1893 0.6943
vn -0.2541 0.1893 0.9485
vn -0.9485 0.1893 0.2541
vn -0.6943 0.1893 -0.6943
vn 0.2494 0.2677 -0.9307
vn 0.9307 0.2677 -0.2494
usemtl M_0060_GrassGreen
s off
f 1/1/1 3/2/1 4/3/1
f 2/4/1 6/5/1 5/6/1
f 2/4/2 5/6/2 7/7/2
f 8/8/2 7/7/2 5/6/2
f 7/7/3 8/8/3 9/9/3
f 9/9/3 8/8/3 10/10/3
f 8/8/4 11/11/4 10/10/4
f 8/8/5 12/12/5 11/11/5
f 5/6/6 12/12/6 8/8/6
f 5/6/7 13/13/7 12/12/7
f 13/13/8 6/5/8 1/1/8
f 1/1/9 14/14/9 13/13/9
f 15/15/10 14/14/10 1/1/10
f 15/15/11 16/16/11 14/14/11
f 17/17/12 16/16/12 15/15/12
f 17/18/13 18/19/13 16/20/13
f 19/21/14 18/19/14 17/18/14
f 20/22/15 19/21/15 17/18/15
f 10/10/15 21/23/15 9/9/15
f 20/24/16 17/17/16 22/25/16
f 22/25/16 17/17/16 15/15/16
f 22/25/17 15/15/17 4/3/17
f 4/3/17 15/15/17 1/1/17
f 10/10/18 11/11/18 18/19/18
f 11/26/19 24/27/19 18/28/19
f 23/29/19 12/30/19 25/31/19
f 23/32/20 27/33/20 26/34/20
f 28/35/21 23/32/21 26/34/21
f 30/36/22 28/35/22 29/37/22
f 32/38/23 29/37/23 31/39/23
f 33/40/24 32/38/24 31/39/24
f 25/41/25 33/40/25 27/33/25
f 12/30/19 34/42/19 25/31/19
f 14/43/19 34/42/19 13/44/19
f 32/45/19 16/46/19 30/47/19
f 16/46/19 24/27/19 30/47/19
f 39/48/19 29/49/19 41/50/19
f 37/51/26 36/52/26 35/53/26
f 39/54/27 37/51/27 35/53/27
f 41/55/28 40/56/28 39/54/28
f 36/57/19 26/58/19 27/59/19
f 37/60/19 49/61/19 48/62/19
f 44/63/19 28/64/19 26/58/19
f 36/57/19 33/65/19 35/66/19
f 33/65/19 39/48/19 35/66/19
f 45/67/29 36/52/29 38/68/29
f 37/60/19 47/69/19 38/70/19
f 52/71/19 50/72/19 42/73/19
f 46/74/19 52/71/19 45/75/19
f 50/72/19 40/76/19 42/73/19
f 47/69/19 45/75/19 38/70/19
f 53/77/30 51/78/30 46/79/30
f 53/77/31 50/80/31 51/78/31
f 53/77/32 49/81/32 50/80/32
f 53/77/33 48/82/33 49/81/33
f 53/77/34 47/83/34 48/82/34
f 53/77/35 46/79/35 47/83/35
f 44/84/36 52/85/36 43/86/36
f 41/55/37 52/85/37 42/87/37
f 28/64/19 41/50/19 29/49/19
f 1/1/1 2/4/1 3/2/1
f 2/4/1 1/1/1 6/5/1
f 13/13/8 5/6/8 6/5/8
f 19/21/14 10/10/14 18/19/14
f 20/22/15 10/10/15 19/21/15
f 10/10/15 20/22/15 21/23/15
f 11/26/19 23/29/19 24/27/19
f 23/29/19 11/26/19 12/30/19
f 23/32/20 25/41/20 27/33/20
f 28/35/21 24/88/21 23/32/21
f 30/36/22 24/88/22 28/35/22
f 32/38/23 30/36/23 29/37/23
f 33/40/24 34/89/24 32/38/24
f 25/41/25 34/89/25 33/40/25
f 12/30/19 13/44/19 34/42/19
f 14/43/19 32/45/19 34/42/19
f 32/45/19 14/43/19 16/46/19
f 16/46/19 18/28/19 24/27/19
f 39/48/19 31/90/19 29/49/19
f 37/51/26 38/68/26 36/52/26
f 39/54/27 40/56/27 37/51/27
f 41/55/28 42/87/28 40/56/28
f 36/57/19 44/63/19 26/58/19
f 37/60/19 40/76/19 49/61/19
f 44/63/19 43/91/19 28/64/19
f 36/57/19 27/59/19 33/65/19
f 33/65/19 31/90/19 39/48/19
f 45/67/29 44/84/29 36/52/29
f 37/60/19 48/62/19 47/69/19
f 52/71/19 51/92/19 50/72/19
f 46/74/19 51/92/19 52/71/19
f 50/72/19 49/61/19 40/76/19
f 47/69/19 46/74/19 45/75/19
f 44/84/36 45/67/36 52/85/36
f 41/55/37 43/86/37 52/85/37
f 28/64/19 43/91/19 41/50/19
