# Blender v2.91.2 OBJ File: 'tree3.blend'
# www.blender.org
mtllib tree3.mtl
o taiga_tree_2
v 0.000000 8.439037 0.000001
v -0.527507 5.622323 -0.141344
v -0.386162 5.622323 0.386163
v -0.141345 5.622323 -0.527506
v 0.386162 5.622323 -0.386161
v 0.527507 5.622323 0.141346
v 0.141345 5.622323 0.527508
v -0.289622 5.622323 0.289623
v -0.395630 5.622323 -0.106008
v -0.106009 5.622323 -0.395629
v 0.289622 5.622323 -0.289621
v 0.395630 5.622323 0.106010
v 0.106009 5.622323 0.395631
v 0.207861 4.213966 0.775747
v -0.567886 4.213966 0.567886
v 0.775746 4.213966 0.207861
v 0.620596 4.213966 0.166289
v 0.166289 4.213966 0.620597
v -0.454309 4.213966 0.454309
v -0.620596 4.213966 -0.166288
v -0.775746 4.213966 -0.207860
v -0.207861 4.213966 -0.775746
v 0.567886 4.213966 -0.567885
v 0.454309 4.213966 -0.454308
v -0.166289 4.213966 -0.620596
v -0.332578 2.987334 -1.241194
v -1.241195 2.987334 -0.332577
v 0.908617 2.987334 -0.908617
v -0.289129 2.987334 -1.079044
v -1.079045 2.987334 -0.289129
v -0.908617 2.987333 0.908618
v -0.789915 2.987333 0.789916
v -2.362895 1.571699 -0.633139
v -1.729766 1.571699 1.729766
v -0.633139 1.571699 -2.362895
v 0.789915 2.987334 -0.789915
v 1.729766 1.571699 -1.729765
v 1.079045 2.987334 0.289130
v 1.241195 2.987334 0.332578
v 0.332578 2.987333 1.241195
v 0.289129 2.987333 1.079045
v 0.633139 1.571698 2.362896
v 2.362895 1.571699 0.633139
v 0.268727 1.571699 0.072005
v 0.196721 1.571699 -0.196721
v 0.438179 0.263499 -0.117410
v 0.320769 0.263499 0.320769
v 0.072005 1.571699 0.268727
v -0.196721 1.571699 0.196721
v -0.268727 1.571699 -0.072005
v -0.072005 1.571699 -0.268727
v 0.117410 0.263499 -0.438179
v 0.277795 0.263499 -0.277795
v 0.620596 0.000000 -0.166289
v 0.166289 0.000000 -0.620596
v 0.393442 0.000000 -0.393442
v -0.320769 0.263499 -0.320769
v -0.454309 0.000000 -0.454309
v -0.438179 0.263499 0.117410
v -0.620596 -0.000000 0.166289
v -0.117410 0.263499 0.438179
v -0.277795 0.263499 0.277795
v -0.393442 -0.000000 0.393442
v -0.166289 -0.000000 0.620596
v 0.454309 -0.000000 0.454309
vt 0.634454 0.412351
vt 0.981870 0.211771
vt 0.981869 0.612932
vt 0.634455 0.011190
vt 0.287039 0.211771
vt 0.287039 0.612931
vt 0.634454 0.813512
vt 0.372633 0.888820
vt 0.328147 0.709035
vt 0.372633 0.683351
vt 0.368589 0.888752
vt 0.188826 0.951024
vt 0.332637 0.867995
vt 0.061236 0.863137
vt 0.194692 0.991554
vt 0.016751 0.888820
vt 0.194692 0.940187
vt 0.008860 0.892585
vt 0.032639 0.696136
vt 0.032639 0.878856
vt 0.676443 0.432838
vt 0.978178 0.212981
vt 0.978178 0.594615
vt 0.660208 0.808905
vt 0.332637 0.701936
vt 0.188826 0.577393
vt 0.368589 0.681179
vt 0.190879 0.970216
vt 0.190879 0.997673
vt 0.188826 0.992539
vt 0.045015 0.867995
vt 0.670004 0.387331
vt 0.625108 0.005990
vt 0.593404 0.391130
vt 0.631716 0.375315
vt 0.289465 0.632463
vt 0.281182 0.224227
vt 0.633809 0.452558
vt 0.045016 0.701936
vt 0.009063 0.681179
vt 0.194691 0.580617
vt 0.619387 0.007671
vt 0.720378 0.348266
vt 0.629651 0.318232
vt 0.276504 0.217400
vt 0.538716 0.365445
vt 0.372897 0.892585
vt 0.349118 0.878856
vt 0.372897 0.682408
vt 0.194691 0.631984
vt 0.016751 0.683352
vt 0.630412 0.819974
vt 0.516606 0.489289
vt 0.639026 0.547653
vt 0.987803 0.610791
vt 0.751791 0.476218
vt 0.752919 0.339553
vt 0.987803 0.201927
vt 0.190879 0.604777
vt 0.349118 0.696137
vt 0.554139 0.472065
vt 0.634649 0.820981
vt 0.653722 0.506615
vt 0.995471 0.620169
vt 0.737062 0.445483
vt 0.008860 0.682407
vt 0.283065 0.227303
vt 0.285601 0.624541
vt 0.627580 0.281685
vt 0.632829 0.007505
vt 0.215209 0.803218
vt 0.372603 0.689024
vt 0.372603 0.894089
vt 0.246186 0.248420
vt 0.243141 0.283793
vt 0.053031 0.251455
vt 0.057548 0.322966
vt 0.246785 0.318737
vt 0.195013 0.996621
vt 0.195012 0.814879
vt 0.017421 0.894090
vt 0.174815 0.779896
vt 0.174815 0.803218
vt 0.195011 0.586493
vt 0.017421 0.689025
vt 0.195012 0.768236
vt 0.255801 0.213996
vt 0.065177 0.182068
vt 0.058544 0.216642
vt 0.006675 0.253576
vt 0.014693 0.210698
vt 0.018109 0.170907
vt 0.094307 0.115623
vt 0.053292 0.090594
vt 0.138445 0.065751
vt 0.116422 0.025748
vt 0.085140 0.470195
vt 0.093637 0.415757
vt 0.109611 0.439710
vt 0.076875 0.388694
vt 0.062912 0.438079
vt 0.039550 0.409653
vt 0.014465 0.334152
vt 0.256500 0.351779
vt 0.271555 0.384192
vt 0.271555 0.181970
vt 0.328147 0.863137
vt 0.188826 0.618907
vt 0.009062 0.888752
vt 0.596749 0.432817
vt 0.995470 0.201473
vt 0.061236 0.709035
vt 0.190879 0.577319
vt 0.280282 0.613632
vt 0.519651 0.358126
vt 0.215209 0.779896
vn -0.9526 0.1656 0.2552
vn -0.6973 0.1656 -0.6973
vn 0.2552 0.1656 -0.9526
vn 0.9526 0.1656 -0.2552
vn 0.6973 0.1656 0.6973
vn -0.2552 0.1656 0.9526
vn 0.0000 -1.0000 0.0000
vn -0.2516 0.2352 0.9388
vn 0.6873 0.2352 0.6873
vn -0.9388 0.2352 0.2516
vn -0.6873 0.2352 -0.6873
vn 0.2516 0.2352 -0.9388
vn 0.9388 0.2352 -0.2516
vn -0.6440 0.4131 -0.6440
vn 0.2357 0.4131 -0.8797
vn -0.7494 0.6309 0.2008
vn -0.5486 0.6309 -0.5486
vn 0.2008 0.6309 -0.7494
vn 0.8797 0.4131 -0.2357
vn 0.6440 0.4131 0.6440
vn -0.2357 0.4131 0.8797
vn -0.8797 0.4131 0.2357
vn -0.2008 0.6309 0.7494
vn 0.5486 0.6309 0.5486
vn 0.7494 0.6309 -0.2008
vn 0.9534 0.1605 -0.2555
vn 0.9622 0.0873 0.2578
vn 0.6979 0.1605 0.6979
vn 0.2555 0.1605 -0.9534
vn 0.7044 0.0873 -0.7044
vn 0.6008 0.5274 -0.6008
vn -0.2199 0.5274 -0.8207
vn -0.8207 0.5274 -0.2199
vn -0.6008 0.5274 0.6008
vn 0.2199 0.5274 0.8207
vn 0.8207 0.5274 0.2199
vn 0.2578 0.0873 0.9622
vn -0.2555 0.1605 0.9534
vn -0.7044 0.0873 0.7044
vn -0.9534 0.1605 0.2555
vn -0.9622 0.0873 -0.2578
vn -0.6979 0.1605 -0.6979
vn -0.2578 0.0873 -0.9622
usemtl Color_C08
s off
f 1/1/1 2/2/1 3/3/1
f 1/1/2 4/4/2 2/2/2
f 1/1/3 5/5/3 4/4/3
f 1/1/4 6/6/4 5/5/4
f 1/1/5 7/7/5 6/6/5
f 1/1/6 3/3/6 7/7/6
f 6/8/7 11/9/7 5/10/7
f 21/11/7 25/12/7 20/13/7
f 8/14/7 7/15/7 3/16/7
f 13/17/7 6/8/7 7/15/7
f 28/18/7 38/19/7 36/20/7
f 13/21/8 15/22/8 14/23/8
f 16/24/9 13/21/9 14/23/9
f 19/25/7 14/26/7 15/27/7
f 28/18/7 29/28/7 26/29/7
f 22/30/7 24/31/7 25/12/7
f 8/32/10 21/33/10 15/22/10
f 10/34/11 21/33/11 9/35/11
f 10/34/12 23/36/12 22/37/12
f 23/36/13 12/38/13 16/24/13
f 14/26/7 17/39/7 16/40/7
f 11/9/7 4/41/7 5/10/7
f 21/11/7 19/25/7 15/27/7
f 26/42/14 20/43/14 25/44/14
f 28/45/15 25/44/15 24/46/15
f 27/47/7 29/28/7 30/48/7
f 30/48/7 31/49/7 27/47/7
f 10/50/7 2/51/7 4/41/7
f 33/52/16 32/53/16 30/54/16
f 35/55/17 30/54/17 29/56/17
f 35/55/18 36/57/18 37/58/18
f 41/59/7 31/49/7 32/60/7
f 17/61/19 28/45/19 24/46/19
f 40/62/20 17/61/20 18/63/20
f 31/64/21 18/63/21 19/65/21
f 20/43/22 31/64/22 19/65/22
f 39/66/7 41/59/7 38/19/7
f 42/67/23 32/53/23 34/68/23
f 38/69/24 42/67/24 43/70/24
f 36/57/25 43/70/25 37/58/25
f 44/71/7 37/72/7 43/73/7
f 45/74/26 44/75/26 46/76/26
f 46/76/27 44/75/27 47/77/27
f 44/75/28 48/78/28 47/77/28
f 44/71/7 42/79/7 48/80/7
f 34/81/7 48/80/7 42/79/7
f 34/81/7 50/82/7 49/83/7
f 35/84/7 50/82/7 33/85/7
f 37/72/7 51/86/7 35/84/7
f 51/87/29 45/74/29 52/88/29
f 45/74/30 53/89/30 52/88/30
f 54/90/31 53/89/31 46/76/31
f 52/88/31 56/91/31 55/92/31
f 55/92/32 57/93/32 52/88/32
f 58/94/32 57/93/32 55/92/32
f 57/93/33 58/94/33 59/95/33
f 60/96/33 59/95/33 58/94/33
f 60/97/34 62/98/34 59/99/34
f 61/100/34 63/101/34 64/102/34
f 64/102/35 47/77/35 61/100/35
f 65/103/35 47/77/35 64/102/35
f 65/103/36 46/76/36 47/77/36
f 54/90/36 46/76/36 65/103/36
f 47/77/37 48/78/37 61/100/37
f 48/78/38 49/104/38 61/100/38
f 49/104/39 62/98/39 61/100/39
f 49/104/40 50/105/40 59/99/40
f 59/95/41 50/106/41 57/93/41
f 50/106/42 51/87/42 57/93/42
f 57/93/43 51/87/43 52/88/43
f 24/31/7 16/40/7 17/39/7
f 2/51/7 8/14/7 3/16/7
f 6/8/7 12/107/7 11/9/7
f 21/11/7 22/30/7 25/12/7
f 8/14/7 13/17/7 7/15/7
f 13/17/7 12/107/7 6/8/7
f 28/18/7 39/66/7 38/19/7
f 13/21/8 8/32/8 15/22/8
f 16/24/9 12/38/9 13/21/9
f 19/25/7 18/108/7 14/26/7
f 28/18/7 36/20/7 29/28/7
f 22/30/7 23/109/7 24/31/7
f 8/32/10 9/35/10 21/33/10
f 10/34/11 22/37/11 21/33/11
f 10/34/12 11/110/12 23/36/12
f 23/36/13 11/110/13 12/38/13
f 14/26/7 18/108/7 17/39/7
f 11/9/7 10/50/7 4/41/7
f 21/11/7 20/13/7 19/25/7
f 26/42/14 27/111/14 20/43/14
f 28/45/15 26/42/15 25/44/15
f 27/47/7 26/29/7 29/28/7
f 30/48/7 32/60/7 31/49/7
f 10/50/7 9/112/7 2/51/7
f 33/52/16 34/68/16 32/53/16
f 35/55/17 33/52/17 30/54/17
f 35/55/18 29/56/18 36/57/18
f 41/59/7 40/113/7 31/49/7
f 17/61/19 39/114/19 28/45/19
f 40/62/20 39/114/20 17/61/20
f 31/64/21 40/62/21 18/63/21
f 20/43/22 27/111/22 31/64/22
f 39/66/7 40/113/7 41/59/7
f 42/67/23 41/115/23 32/53/23
f 38/69/24 41/115/24 42/67/24
f 36/57/25 38/69/25 43/70/25
f 44/71/7 45/116/7 37/72/7
f 44/71/7 43/73/7 42/79/7
f 34/81/7 49/83/7 48/80/7
f 34/81/7 33/85/7 50/82/7
f 35/84/7 51/86/7 50/82/7
f 37/72/7 45/116/7 51/86/7
f 45/74/30 46/76/30 53/89/30
f 54/90/31 52/88/31 53/89/31
f 52/88/31 54/90/31 56/91/31
f 60/97/34 61/100/34 62/98/34
f 61/100/34 60/97/34 63/101/34
f 49/104/39 59/99/39 62/98/39
f 24/31/7 23/109/7 16/40/7
f 2/51/7 9/112/7 8/14/7
