# Blender v2.90.0 OBJ File: 'Coin2.blend'
# www.blender.org
o Sphere
v -0.707107 1.208317 0.000000
v -0.923880 0.883894 0.000000
v -0.923880 0.118527 0.000000
v -0.382683 -0.422669 0.000000
v -0.353553 1.425090 -0.020461
v -0.653281 1.208317 -0.037806
v -0.853553 0.883894 -0.049396
v -0.923880 0.501210 -0.053466
v -0.853553 0.118527 -0.049396
v -0.653281 -0.205896 -0.037806
v -0.353553 -0.422669 -0.020461
v -0.270598 1.425090 -0.037806
v -0.500000 1.208317 -0.069857
v -0.653282 0.883894 -0.091273
v -0.707107 0.501210 -0.098793
v -0.653282 0.118527 -0.091273
v -0.500000 -0.205896 -0.069857
v -0.270598 -0.422669 -0.037806
v -0.146447 1.425090 -0.049397
v -0.270598 1.208317 -0.091273
v -0.353553 0.883894 -0.119254
v -0.382683 0.501210 -0.129079
v -0.353553 0.118527 -0.119254
v -0.270598 -0.205896 -0.091273
v -0.146447 -0.422669 -0.049397
v -0.000000 1.425090 -0.053467
v -0.000000 1.208317 -0.098793
v -0.000000 0.883894 -0.129080
v -0.000000 0.501210 -0.139715
v -0.000000 0.118527 -0.129080
v -0.000000 -0.205896 -0.098793
v -0.000000 -0.422669 -0.053467
v 0.146446 1.425090 -0.049397
v 0.270598 1.208317 -0.091273
v 0.353553 0.883894 -0.119254
v 0.382683 0.501210 -0.129080
v 0.353553 0.118527 -0.119254
v 0.270598 -0.205896 -0.091273
v 0.146446 -0.422669 -0.049397
v 0.270598 1.425090 -0.037807
v 0.500000 1.208317 -0.069858
v 0.653281 0.883894 -0.091273
v 0.707107 0.501210 -0.098794
v 0.653281 0.118527 -0.091273
v 0.500000 -0.205896 -0.069858
v 0.270598 -0.422669 -0.037807
v 0.353553 1.425090 -0.020461
v 0.653281 1.208317 -0.037807
v 0.853553 0.883894 -0.049397
v 0.923879 0.501210 -0.053467
v 0.853553 0.118527 -0.049397
v 0.653281 -0.205896 -0.037807
v 0.353553 -0.422669 -0.020461
v 0.382683 1.425090 -0.000000
v 0.707106 1.208317 -0.000000
v 0.923879 0.883894 -0.000000
v 1.000000 0.501210 -0.000000
v 0.923879 0.118527 -0.000000
v 0.707106 -0.205896 -0.000000
v 0.382683 -0.422669 -0.000000
v 0.353553 1.425090 0.020461
v 0.653281 1.208317 0.037806
v 0.853553 0.883894 0.049396
v 0.923879 0.501210 0.053466
v 0.853553 0.118527 0.049396
v 0.653281 -0.205896 0.037806
v 0.353553 -0.422669 0.020461
v 0.270598 1.425090 0.037806
v 0.499999 1.208317 0.069857
v 0.653281 0.883894 0.091273
v 0.707106 0.501210 0.098793
v 0.653281 0.118527 0.091273
v 0.499999 -0.205896 0.069857
v 0.270598 -0.422669 0.037806
v 0.146446 1.425090 0.049397
v 0.270598 1.208317 0.091273
v 0.353553 0.883894 0.119254
v 0.382683 0.501210 0.129079
v 0.353553 0.118527 0.119254
v 0.270598 -0.205896 0.091273
v 0.146446 -0.422669 0.049397
v -0.000000 1.425090 0.053467
v -0.000000 1.208317 0.098793
v -0.000000 0.883894 0.129080
v -0.000001 0.501210 0.139715
v -0.000000 0.118527 0.129080
v -0.000000 -0.205896 0.098793
v -0.000000 -0.422669 0.053467
v -0.146447 1.425090 0.049397
v -0.270598 1.208317 0.091273
v -0.353554 0.883894 0.119254
v -0.382684 0.501210 0.129080
v -0.353554 0.118527 0.119254
v -0.270598 -0.205896 0.091273
v -0.146447 -0.422669 0.049397
v -0.270598 1.425090 0.037807
v -0.500000 1.208317 0.069858
v -0.653282 0.883894 0.091273
v -0.707107 0.501210 0.098794
v -0.653282 0.118527 0.091273
v -0.500000 -0.205896 0.069858
v -0.270598 -0.422669 0.037807
v -0.353553 1.425090 0.020461
v -0.653281 1.208317 0.037807
v -0.853553 0.883894 0.049397
v -0.923880 0.501210 0.053467
v -0.853553 0.118527 0.049397
v -0.653281 -0.205896 0.037807
v -0.353553 -0.422669 0.020461
v -0.000000 1.501210 0.000000
v -0.382683 1.425090 0.000000
v -1.000000 0.501210 0.000000
v -0.707106 -0.205896 0.000000
v -0.000000 -0.498790 0.000000
vt 0.750000 0.375000
vt 0.750000 0.500000
vt 0.687500 0.500000
vt 0.687500 0.375000
vt 0.750000 0.625000
vt 0.750000 0.750000
vt 0.687500 0.750000
vt 0.687500 0.625000
vt 0.750000 0.875000
vt 0.718750 1.000000
vt 0.687500 0.875000
vt 0.718750 0.000000
vt 0.750000 0.125000
vt 0.687500 0.125000
vt 0.750000 0.250000
vt 0.687500 0.250000
vt 0.656250 0.000000
vt 0.625000 0.125000
vt 0.625000 0.375000
vt 0.625000 0.250000
vt 0.625000 0.625000
vt 0.625000 0.500000
vt 0.625000 0.875000
vt 0.625000 0.750000
vt 0.656250 1.000000
vt 0.562500 0.875000
vt 0.562500 0.750000
vt 0.562500 0.250000
vt 0.562500 0.125000
vt 0.562500 0.500000
vt 0.562500 0.375000
vt 0.562500 0.625000
vt 0.593750 1.000000
vt 0.593750 0.000000
vt 0.500000 0.250000
vt 0.500000 0.125000
vt 0.500000 0.500000
vt 0.500000 0.375000
vt 0.500000 0.750000
vt 0.500000 0.625000
vt 0.531250 1.000000
vt 0.500000 0.875000
vt 0.531250 0.000000
vt 0.468750 1.000000
vt 0.437500 0.875000
vt 0.468750 0.000000
vt 0.437500 0.125000
vt 0.437500 0.375000
vt 0.437500 0.250000
vt 0.437500 0.625000
vt 0.437500 0.500000
vt 0.437500 0.750000
vt 0.375000 0.375000
vt 0.375000 0.250000
vt 0.375000 0.625000
vt 0.375000 0.500000
vt 0.375000 0.875000
vt 0.375000 0.750000
vt 0.375000 0.125000
vt 0.406250 1.000000
vt 0.406250 0.000000
vt 0.312500 0.250000
vt 0.312500 0.125000
vt 0.312500 0.500000
vt 0.312500 0.375000
vt 0.312500 0.750000
vt 0.312500 0.625000
vt 0.343750 1.000000
vt 0.312500 0.875000
vt 0.343750 0.000000
vt 0.250000 0.500000
vt 0.250000 0.375000
vt 0.250000 0.750000
vt 0.250000 0.625000
vt 0.281250 1.000000
vt 0.250000 0.875000
vt 0.281250 0.000000
vt 0.250000 0.125000
vt 0.250000 0.250000
vt 0.218750 0.000000
vt 0.187500 0.125000
vt 0.187500 0.375000
vt 0.187500 0.250000
vt 0.187500 0.625000
vt 0.187500 0.500000
vt 0.187500 0.875000
vt 0.187500 0.750000
vt 0.218750 1.000000
vt 0.125000 0.625000
vt 0.125000 0.500000
vt 0.125000 0.875000
vt 0.125000 0.750000
vt 0.125000 0.250000
vt 0.125000 0.125000
vt 0.125000 0.375000
vt 0.156250 1.000000
vt 0.156250 0.000000
vt 0.062500 0.250000
vt 0.062500 0.125000
vt 0.062500 0.500000
vt 0.062500 0.375000
vt 0.062500 0.750000
vt 0.062500 0.625000
vt 0.093750 1.000000
vt 0.062500 0.875000
vt 0.093750 0.000000
vt 0.000000 0.750000
vt 0.000000 0.625000
vt 0.031250 1.000000
vt 0.000000 0.875000
vt 0.031250 0.000000
vt 0.000000 0.125000
vt 0.000000 0.375000
vt 0.000000 0.250000
vt 0.000000 0.500000
vt 0.968750 0.000000
vt 1.000000 0.125000
vt 0.937500 0.125000
vt 1.000000 0.250000
vt 1.000000 0.375000
vt 0.937500 0.375000
vt 0.937500 0.250000
vt 1.000000 0.500000
vt 1.000000 0.625000
vt 0.937500 0.625000
vt 0.937500 0.500000
vt 1.000000 0.750000
vt 1.000000 0.875000
vt 0.937500 0.875000
vt 0.937500 0.750000
vt 0.968750 1.000000
vt 0.875000 0.875000
vt 0.875000 0.750000
vt 0.875000 0.250000
vt 0.875000 0.125000
vt 0.875000 0.500000
vt 0.875000 0.375000
vt 0.875000 0.625000
vt 0.906250 1.000000
vt 0.906250 0.000000
vt 0.812500 0.250000
vt 0.812500 0.125000
vt 0.812500 0.500000
vt 0.812500 0.375000
vt 0.812500 0.750000
vt 0.812500 0.625000
vt 0.843750 1.000000
vt 0.812500 0.875000
vt 0.843750 0.000000
vt 0.781250 1.000000
vt 0.781250 0.000000
vn -0.9366 -0.3505 0.0000
vn -1.0000 0.0000 0.0000
vn -0.4166 0.0000 -0.9091
vn -0.4065 -0.1867 -0.8943
vn -0.9366 0.3505 0.0000
vn -0.7536 0.6573 0.0000
vn -0.3645 0.4142 -0.8340
vn -0.4065 0.1867 -0.8943
vn -0.4712 0.8820 0.0000
vn 0.0000 1.0000 0.0000
vn -0.2436 0.7120 -0.6585
vn 0.0000 -1.0000 0.0000
vn -0.4712 -0.8820 0.0000
vn -0.2436 -0.7120 -0.6585
vn -0.7536 -0.6573 0.0000
vn -0.3645 -0.4142 -0.8340
vn -0.1256 -0.5301 -0.8385
vn -0.1534 -0.0904 -0.9840
vn -0.1505 -0.2217 -0.9634
vn -0.1534 0.0904 -0.9840
vn -0.1538 0.0000 -0.9881
vn -0.1256 0.5301 -0.8385
vn -0.1505 0.2217 -0.9634
vn -0.0572 0.4303 -0.9008
vn -0.0620 0.1635 -0.9846
vn -0.0620 -0.1635 -0.9846
vn -0.0572 -0.4303 -0.9008
vn -0.0619 0.0000 -0.9981
vn -0.0620 -0.0662 -0.9959
vn -0.0620 0.0662 -0.9959
vn 0.0000 -0.1489 -0.9888
vn 0.0000 -0.3966 -0.9180
vn 0.0000 0.0000 -1.0000
vn 0.0000 -0.0603 -0.9982
vn 0.0000 0.1489 -0.9888
vn 0.0000 0.0603 -0.9982
vn 0.0000 0.3966 -0.9180
vn 0.0572 0.4303 -0.9008
vn 0.0572 -0.4303 -0.9008
vn 0.0620 -0.0662 -0.9959
vn 0.0620 -0.1635 -0.9846
vn 0.0620 0.0662 -0.9959
vn 0.0619 0.0000 -0.9981
vn 0.0620 0.1635 -0.9846
vn 0.1534 -0.0904 -0.9840
vn 0.1505 -0.2217 -0.9634
vn 0.1534 0.0904 -0.9840
vn 0.1538 0.0000 -0.9881
vn 0.1256 0.5301 -0.8386
vn 0.1505 0.2217 -0.9634
vn 0.1256 -0.5301 -0.8385
vn 0.3645 -0.4142 -0.8340
vn 0.2436 -0.7120 -0.6585
vn 0.4166 0.0000 -0.9091
vn 0.4065 -0.1867 -0.8943
vn 0.3645 0.4142 -0.8340
vn 0.4065 0.1867 -0.8943
vn 0.2436 0.7120 -0.6585
vn 1.0000 0.0000 0.0000
vn 0.9366 -0.3505 0.0000
vn 0.7536 0.6573 0.0000
vn 0.9366 0.3505 0.0000
vn 0.4712 0.8820 0.0000
vn 0.4712 -0.8820 0.0000
vn 0.7536 -0.6573 0.0000
vn 0.2436 -0.7120 0.6585
vn 0.4065 -0.1867 0.8943
vn 0.3645 -0.4142 0.8340
vn 0.4065 0.1867 0.8943
vn 0.4166 0.0000 0.9091
vn 0.2436 0.7120 0.6585
vn 0.3645 0.4142 0.8340
vn 0.1534 0.0904 0.9840
vn 0.1538 0.0000 0.9881
vn 0.1256 0.5301 0.8385
vn 0.1505 0.2217 0.9634
vn 0.1505 -0.2217 0.9634
vn 0.1256 -0.5301 0.8385
vn 0.1534 -0.0904 0.9840
vn 0.0620 -0.1635 0.9846
vn 0.0572 -0.4303 0.9008
vn 0.0619 0.0000 0.9981
vn 0.0620 -0.0662 0.9959
vn 0.0620 0.1635 0.9846
vn 0.0620 0.0662 0.9959
vn 0.0572 0.4303 0.9008
vn 0.0000 0.1489 0.9888
vn 0.0000 0.0603 0.9982
vn 0.0000 0.3966 0.9180
vn 0.0000 -0.3966 0.9180
vn 0.0000 -0.0603 0.9982
vn 0.0000 -0.1489 0.9888
vn 0.0000 0.0000 1.0000
vn -0.0572 -0.4303 0.9008
vn -0.0620 -0.0662 0.9959
vn -0.0620 -0.1635 0.9846
vn -0.0620 0.0662 0.9959
vn -0.0619 0.0000 0.9981
vn -0.0572 0.4303 0.9008
vn -0.0620 0.1635 0.9846
vn -0.1256 0.5301 0.8385
vn -0.1505 0.2217 0.9634
vn -0.1505 -0.2217 0.9634
vn -0.1256 -0.5301 0.8385
vn -0.1538 0.0000 0.9881
vn -0.1534 -0.0904 0.9840
vn -0.1534 0.0904 0.9840
vn -0.3645 -0.4142 0.8340
vn -0.2436 -0.7120 0.6585
vn -0.4166 0.0000 0.9091
vn -0.4065 -0.1867 0.8943
vn -0.3645 0.4142 0.8340
vn -0.4065 0.1867 0.8943
vn -0.2436 0.7120 0.6585
s 1
f 3/1/1 112/2/2 8/3/3 9/4/4
f 2/5/5 1/6/6 6/7/7 7/8/8
f 111/9/9 110/10/10 5/11/11
f 114/12/12 4/13/13 11/14/14
f 113/15/15 3/1/1 9/4/4 10/16/16
f 112/2/2 2/5/5 7/8/8 8/3/3
f 1/6/6 111/9/9 5/11/11 6/7/7
f 4/13/13 113/15/15 10/16/16 11/14/14
f 114/17/12 11/14/14 18/18/17
f 10/16/16 9/4/4 16/19/18 17/20/19
f 8/3/3 7/8/8 14/21/20 15/22/21
f 6/7/7 5/11/11 12/23/22 13/24/23
f 11/14/14 10/16/16 17/20/19 18/18/17
f 9/4/4 8/3/3 15/22/21 16/19/18
f 7/8/8 6/7/7 13/24/23 14/21/20
f 5/11/11 110/25/10 12/23/22
f 13/24/23 12/23/22 19/26/24 20/27/25
f 18/18/17 17/20/19 24/28/26 25/29/27
f 16/19/18 15/22/21 22/30/28 23/31/29
f 14/21/20 13/24/23 20/27/25 21/32/30
f 12/23/22 110/33/10 19/26/24
f 114/34/12 18/18/17 25/29/27
f 17/20/19 16/19/18 23/31/29 24/28/26
f 15/22/21 14/21/20 21/32/30 22/30/28
f 25/29/27 24/28/26 31/35/31 32/36/32
f 23/31/29 22/30/28 29/37/33 30/38/34
f 21/32/30 20/27/25 27/39/35 28/40/36
f 19/26/24 110/41/10 26/42/37
f 114/43/12 25/29/27 32/36/32
f 24/28/26 23/31/29 30/38/34 31/35/31
f 22/30/28 21/32/30 28/40/36 29/37/33
f 20/27/25 19/26/24 26/42/37 27/39/35
f 26/42/37 110/44/10 33/45/38
f 114/46/12 32/36/32 39/47/39
f 31/35/31 30/38/34 37/48/40 38/49/41
f 29/37/33 28/40/36 35/50/42 36/51/43
f 27/39/35 26/42/37 33/45/38 34/52/44
f 32/36/32 31/35/31 38/49/41 39/47/39
f 30/38/34 29/37/33 36/51/43 37/48/40
f 28/40/36 27/39/35 34/52/44 35/50/42
f 38/49/41 37/48/40 44/53/45 45/54/46
f 36/51/43 35/50/42 42/55/47 43/56/48
f 34/52/44 33/45/38 40/57/49 41/58/50
f 39/47/39 38/49/41 45/54/46 46/59/51
f 37/48/40 36/51/43 43/56/48 44/53/45
f 35/50/42 34/52/44 41/58/50 42/55/47
f 33/45/38 110/60/10 40/57/49
f 114/61/12 39/47/39 46/59/51
f 46/59/51 45/54/46 52/62/52 53/63/53
f 44/53/45 43/56/48 50/64/54 51/65/55
f 42/55/47 41/58/50 48/66/56 49/67/57
f 40/57/49 110/68/10 47/69/58
f 114/70/12 46/59/51 53/63/53
f 45/54/46 44/53/45 51/65/55 52/62/52
f 43/56/48 42/55/47 49/67/57 50/64/54
f 41/58/50 40/57/49 47/69/58 48/66/56
f 51/65/55 50/64/54 57/71/59 58/72/60
f 49/67/57 48/66/56 55/73/61 56/74/62
f 47/69/58 110/75/10 54/76/63
f 114/77/12 53/63/53 60/78/64
f 52/62/52 51/65/55 58/72/60 59/79/65
f 50/64/54 49/67/57 56/74/62 57/71/59
f 48/66/56 47/69/58 54/76/63 55/73/61
f 53/63/53 52/62/52 59/79/65 60/78/64
f 114/80/12 60/78/64 67/81/66
f 59/79/65 58/72/60 65/82/67 66/83/68
f 57/71/59 56/74/62 63/84/69 64/85/70
f 55/73/61 54/76/63 61/86/71 62/87/72
f 60/78/64 59/79/65 66/83/68 67/81/66
f 58/72/60 57/71/59 64/85/70 65/82/67
f 56/74/62 55/73/61 62/87/72 63/84/69
f 54/76/63 110/88/10 61/86/71
f 64/85/70 63/84/69 70/89/73 71/90/74
f 62/87/72 61/86/71 68/91/75 69/92/76
f 67/81/66 66/83/68 73/93/77 74/94/78
f 65/82/67 64/85/70 71/90/74 72/95/79
f 63/84/69 62/87/72 69/92/76 70/89/73
f 61/86/71 110/96/10 68/91/75
f 114/97/12 67/81/66 74/94/78
f 66/83/68 65/82/67 72/95/79 73/93/77
f 74/94/78 73/93/77 80/98/80 81/99/81
f 72/95/79 71/90/74 78/100/82 79/101/83
f 70/89/73 69/92/76 76/102/84 77/103/85
f 68/91/75 110/104/10 75/105/86
f 114/106/12 74/94/78 81/99/81
f 73/93/77 72/95/79 79/101/83 80/98/80
f 71/90/74 70/89/73 77/103/85 78/100/82
f 69/92/76 68/91/75 75/105/86 76/102/84
f 77/103/85 76/102/84 83/107/87 84/108/88
f 75/105/86 110/109/10 82/110/89
f 114/111/12 81/99/81 88/112/90
f 80/98/80 79/101/83 86/113/91 87/114/92
f 78/100/82 77/103/85 84/108/88 85/115/93
f 76/102/84 75/105/86 82/110/89 83/107/87
f 81/99/81 80/98/80 87/114/92 88/112/90
f 79/101/83 78/100/82 85/115/93 86/113/91
f 114/116/12 88/117/90 95/118/94
f 87/119/92 86/120/91 93/121/95 94/122/96
f 85/123/93 84/124/88 91/125/97 92/126/98
f 83/127/87 82/128/89 89/129/99 90/130/100
f 88/117/90 87/119/92 94/122/96 95/118/94
f 86/120/91 85/123/93 92/126/98 93/121/95
f 84/124/88 83/127/87 90/130/100 91/125/97
f 82/128/89 110/131/10 89/129/99
f 90/130/100 89/129/99 96/132/101 97/133/102
f 95/118/94 94/122/96 101/134/103 102/135/104
f 93/121/95 92/126/98 99/136/105 100/137/106
f 91/125/97 90/130/100 97/133/102 98/138/107
f 89/129/99 110/139/10 96/132/101
f 114/140/12 95/118/94 102/135/104
f 94/122/96 93/121/95 100/137/106 101/134/103
f 92/126/98 91/125/97 98/138/107 99/136/105
f 102/135/104 101/134/103 108/141/108 109/142/109
f 100/137/106 99/136/105 106/143/110 107/144/111
f 98/138/107 97/133/102 104/145/112 105/146/113
f 96/132/101 110/147/10 103/148/114
f 114/149/12 102/135/104 109/142/109
f 101/134/103 100/137/106 107/144/111 108/141/108
f 99/136/105 98/138/107 105/146/113 106/143/110
f 97/133/102 96/132/101 103/148/114 104/145/112
f 103/148/114 110/150/10 111/9/9
f 114/151/12 109/142/109 4/13/13
f 108/141/108 107/144/111 3/1/1 113/15/15
f 106/143/110 105/146/113 2/5/5 112/2/2
f 104/145/112 103/148/114 111/9/9 1/6/6
f 109/142/109 108/141/108 113/15/15 4/13/13
f 107/144/111 106/143/110 112/2/2 3/1/1
f 105/146/113 104/145/112 1/6/6 2/5/5
