# Blender v2.90.0 OBJ File: 'portal_updated.blend'
# www.blender.org
o Circle
v -0.000000 -1.012660 0.041145
v -0.000000 -0.936475 0.233071
v -0.000000 -0.936540 0.426994
v -0.000000 -0.844130 0.615706
v -0.000000 -0.688117 0.703942
v -0.000000 -0.583922 0.859822
v -0.000000 -0.398509 0.955530
v -0.000000 -0.169770 1.018765
v -0.000000 0.025320 0.968350
v -0.000000 0.195090 0.980785
v -0.000000 0.430159 0.946035
v -0.000000 0.555570 0.831470
v -0.000000 0.697612 0.665962
v -0.000000 0.850460 0.561900
v -0.000000 0.923880 0.382683
v -0.000000 0.942805 0.172935
v 0.000000 1.000000 -0.000000
v 0.000000 0.980785 -0.195091
v 0.000000 0.901724 -0.376354
v 0.000000 0.872615 -0.587221
v 0.000000 0.726096 -0.748253
v 0.000000 0.568230 -0.853625
v 0.000000 0.338372 -0.898560
v 0.000000 0.214080 -0.983950
v 0.000000 0.009494 -0.974680
v 0.000000 -0.201421 -1.021930
v 0.000000 -0.376354 -0.968189
v 0.000000 -0.546076 -0.818809
v 0.000000 -0.745088 -0.694446
v 0.000000 -0.825140 -0.527084
v 0.000000 -0.961860 -0.347867
v 0.000000 -0.964960 -0.163439
vt 0.928403 0.666004
vt 0.916101 0.760455
vt 0.859092 0.846487
vt 0.777497 0.879538
vt 0.716837 0.948830
vt 0.620447 0.983651
vt 0.505022 0.999901
vt 0.413213 0.962939
vt 0.329738 0.958198
vt 0.217462 0.926323
vt 0.163669 0.862550
vt 0.105017 0.772908
vt 0.037193 0.712506
vt 0.012833 0.620552
vt 0.016956 0.517193
vt 0.000099 0.429331
vt 0.021865 0.335537
vt 0.071899 0.252284
vt 0.099487 0.151436
vt 0.181088 0.082327
vt 0.264676 0.041048
vt 0.379482 0.033782
vt 0.445448 0.000099
vt 0.544498 0.017626
vt 0.650226 0.008027
vt 0.732006 0.045327
vt 0.805166 0.128875
vt 0.894181 0.202100
vt 0.922525 0.288703
vt 0.977714 0.384683
vt 0.967495 0.474702
vt 0.977714 0.577375
vn -1.0000 -0.0000 -0.0000
s off
f 2/1/1 3/2/1 4/3/1 5/4/1 6/5/1 7/6/1 8/7/1 9/8/1 10/9/1 11/10/1 12/11/1 13/12/1 14/13/1 15/14/1 16/15/1 17/16/1 18/17/1 19/18/1 20/19/1 21/20/1 22/21/1 23/22/1 24/23/1 25/24/1 26/25/1 27/26/1 28/27/1 29/28/1 30/29/1 31/30/1 32/31/1 1/32/1
