# Blender v2.90.1 OBJ File: 'Fence Parts.blend'
# www.blender.org
mtllib Fence.mtl
o Cube.004
v -0.005721 1.421594 -4.851324
v -0.005721 1.661189 -4.851324
v -0.095570 1.601290 -4.851324
v 0.084127 1.601290 -4.851324
v -0.110544 1.511442 -4.851324
v 0.099101 1.511442 -4.851324
v 0.054177 1.631239 -3.123824
v -0.065620 1.631239 -3.123824
v 0.084127 1.481492 -3.123824
v -0.110544 1.511442 -3.123824
v -0.035671 1.436568 -3.123824
v -0.000000 1.931223 -2.750000
v 0.250000 1.931223 -3.000000
v -0.250000 1.931223 -3.000000
v -0.125000 1.931223 -3.187500
v 0.125000 1.931223 -2.812500
v -0.125000 1.931223 -2.812500
v 0.062500 1.931223 -3.218750
v -0.000000 0.000000 -2.750000
v -0.250000 0.000000 -3.000000
v -0.125000 0.000000 -3.187500
v -0.125000 0.000000 -2.812500
v 0.187500 0.000000 -2.875000
v 0.062500 0.000000 -3.218750
v -0.005721 0.661189 -4.851324
v -0.125519 0.541391 -4.851324
v 0.054177 0.451543 -4.851324
v -0.065620 0.451543 -4.851324
v 0.099101 0.571341 -4.851324
v -0.005721 0.661189 -3.123824
v -0.125519 0.541391 -3.123824
v 0.054177 0.451543 -3.123824
v -0.065620 0.451543 -3.123824
v 0.084127 0.601290 -3.123824
vt 0.000000 0.000000
vt 0.000000 0.000000
vt 0.000000 0.000000
vt 0.000000 0.000000
vt 0.000000 0.000000
vt 0.000000 0.000000
vt 0.000000 0.000000
vt 0.000000 0.000000
vt 0.000000 0.000000
vt 0.000000 0.000000
vt 0.000000 0.000000
vt 0.000000 0.000000
vt 0.000000 0.000000
vt 0.000000 0.000000
vt 0.000000 0.000000
vt 0.000000 0.000000
vt 0.000000 0.000000
vt 0.000000 0.000000
vt 0.000000 0.000000
vt 0.000000 0.000000
vt 0.000000 0.000000
vt 0.000000 0.000000
vt 0.000000 0.000000
vt 0.000000 0.000000
vt 0.000000 0.000000
vt 0.000000 0.000000
vt 0.000000 0.000000
vt 0.000000 0.000000
vt 0.000000 0.000000
vt 0.000000 0.000000
vt 0.000000 0.000000
vt 0.000000 0.000000
vt 0.000000 0.000000
vt 0.000000 0.000000
vn 0.9805 0.1961 0.0136
vn 0.3511 -0.9362 0.0142
vn -0.5547 0.8320 -0.0048
vn 0.0000 0.9998 0.0173
vn 0.5547 0.8320 -0.0048
vn 0.9863 0.1644 0.0114
vn -0.9864 0.1644 0.0000
vn 0.6508 -0.7592 -0.0075
vn -0.7071 -0.7071 0.0000
vn -0.9363 0.3511 0.0101
vn 0.0000 0.0000 -1.0000
vn 0.0000 0.0000 1.0000
vn -0.6508 -0.7592 -0.0047
vn -0.8321 0.0000 -0.5547
vn 0.5547 -0.0090 0.8320
vn -0.4472 0.0000 0.8944
vn -0.8320 -0.0000 0.5547
vn 0.9398 0.0000 -0.3417
vn -0.8321 0.0000 0.5547
vn 0.8320 0.0090 0.5547
vn -0.1644 -0.0000 -0.9864
vn 0.0000 1.0000 -0.0000
vn 0.0000 -1.0000 0.0000
vn 0.4472 0.0000 0.8944
vn 0.7576 -0.0665 -0.6493
vn -0.8321 -0.5547 -0.0000
vn -0.7071 0.7071 0.0000
vn 0.6508 0.7592 -0.0075
vn 0.9363 -0.3511 -0.0000
vn 0.5547 0.8321 0.0000
vn 0.9805 -0.1961 0.0119
usemtl Material.004
s off
f 4/1/1 7/2/1 9/3/1
f 1/4/2 9/3/2 11/5/2
f 2/6/3 3/7/3 8/8/3
f 2/6/4 8/8/4 7/2/4
f 4/1/5 2/6/5 7/2/5
f 6/9/6 4/1/6 9/3/6
f 3/7/7 5/10/7 10/11/7
f 1/4/8 6/9/8 9/3/8
f 5/10/9 11/5/9 10/11/9
f 3/7/10 10/11/10 8/8/10
f 6/9/11 1/4/11 5/10/11
f 10/11/12 11/5/12 9/3/12
f 5/10/13 1/4/13 11/5/13
f 5/10/11 3/7/11 6/9/11
f 3/7/11 2/6/11 4/1/11
f 6/9/11 3/7/11 4/1/11
f 7/2/12 8/8/12 9/3/12
f 8/8/12 10/11/12 9/3/12
usemtl Material.006
f 15/12/14 20/13/14 14/14/14
f 16/15/15 19/16/15 23/17/15
f 17/18/16 19/16/16 12/19/16
f 17/18/17 20/13/17 22/20/17
f 18/21/18 23/17/18 24/22/18
f 17/18/19 14/14/19 20/13/19
f 13/23/20 16/15/20 23/17/20
f 18/21/21 21/24/21 15/12/21
f 18/21/22 15/12/22 12/19/22
f 19/16/23 22/20/23 21/24/23
f 15/12/14 21/24/14 20/13/14
f 16/15/24 12/19/24 19/16/24
f 17/18/16 22/20/16 19/16/16
f 18/21/25 13/23/25 23/17/25
f 18/21/21 24/22/21 21/24/21
f 15/12/22 14/14/22 17/18/22
f 17/18/22 12/19/22 15/12/22
f 12/19/22 16/15/22 18/21/22
f 16/15/22 13/23/22 18/21/22
f 22/20/23 20/13/23 21/24/23
f 21/24/23 24/22/23 19/16/23
f 24/22/23 23/17/23 19/16/23
usemtl Material.005
f 28/25/26 31/26/26 26/27/26
f 27/28/23 33/29/23 28/25/23
f 26/27/27 30/30/27 25/31/27
f 25/31/28 34/32/28 29/33/28
f 29/33/29 32/34/29 27/28/29
f 29/33/11 27/28/11 28/25/11
f 33/29/12 34/32/12 30/30/12
f 28/25/26 33/29/26 31/26/26
f 27/28/23 32/34/23 33/29/23
f 26/27/27 31/26/27 30/30/27
f 25/31/30 30/30/30 34/32/30
f 29/33/31 34/32/31 32/34/31
f 28/25/11 26/27/11 25/31/11
f 25/31/11 29/33/11 28/25/11
f 30/30/12 31/26/12 33/29/12
f 33/29/12 32/34/12 34/32/12
