# Blender v2.90.1 OBJ File: 'flower.blend'
# www.blender.org
mtllib flower.mtl
o Plane.001
v 0.015000 0.233679 0.015975
v 0.015000 0.353167 0.001259
v 0.015000 0.572343 -0.076418
v 0.015000 0.704043 -0.128461
v 0.015000 0.872030 -0.112414
v 0.015000 1.320326 -0.069408
v 0.015000 1.458037 -0.136223
v -0.000000 1.543179 -0.131031
v 0.015000 1.218358 -0.011712
v 0.015000 0.748070 -0.080304
v 0.015000 -0.005379 -0.079686
v -0.000000 1.630495 -0.054011
v -0.000000 1.711207 -0.035838
v -0.000000 1.405973 -0.250921
v -0.081069 1.611683 -0.064873
v -0.120562 1.683231 -0.051990
v -0.140416 1.560287 -0.094546
v -0.208820 1.606797 -0.096119
v -0.162139 1.490079 -0.135081
v -0.241125 1.502388 -0.156400
v -0.140417 1.419871 -0.175616
v -0.208820 1.397977 -0.216681
v -0.081070 1.368474 -0.205289
v -0.120563 1.321544 -0.260810
v -0.065379 1.617281 -0.128923
v -0.035319 1.519917 -0.145980
v -0.113240 1.575832 -0.152853
v -0.130758 1.519213 -0.185543
v -0.035319 1.484598 -0.166371
v -0.113240 1.462593 -0.218232
v -0.065379 1.421145 -0.242162
v -0.083407 1.384858 -0.241762
v -0.144465 1.582200 -0.127827
v -0.166814 1.509968 -0.169530
v -0.144465 1.437736 -0.211233
v -0.083407 1.635078 -0.097298
v 0.010000 1.154185 -0.048447
v 0.010000 1.014527 -0.070490
v -0.040000 -0.005379 -0.003215
v -0.040000 1.460054 -0.107624
v -0.040000 1.381413 -0.070835
v -0.040000 1.231701 -0.037484
v -0.040000 1.083652 -0.030708
v -0.040000 0.880582 -0.085223
v -0.040000 0.692421 -0.104433
v -0.040000 0.469050 -0.015239
v -0.040000 0.287929 0.033876
v -0.015000 1.387547 -0.046908
v 0.081069 1.611683 -0.064873
v 0.120562 1.683231 -0.051990
v 0.140416 1.560287 -0.094546
v 0.208820 1.606797 -0.096119
v 0.162139 1.490079 -0.135081
v 0.241125 1.502388 -0.156400
v 0.140416 1.419871 -0.175616
v 0.208820 1.397978 -0.216681
v 0.081070 1.368474 -0.205289
v 0.120563 1.321544 -0.260810
v 0.000000 1.349662 -0.216150
v 0.000000 1.293567 -0.276963
v 0.000000 1.632452 -0.120164
v 0.065379 1.617281 -0.128923
v 0.113239 1.575832 -0.152853
v 0.130758 1.519213 -0.185543
v 0.113239 1.462593 -0.218232
v 0.020391 1.471671 -0.173835
v 0.065379 1.421145 -0.242162
v 0.000000 1.365504 -0.252937
v 0.083407 1.384858 -0.241762
v 0.144465 1.582200 -0.127827
v 0.083407 1.635078 -0.097298
v 0.166814 1.509968 -0.169530
v 0.144465 1.437736 -0.211233
v 0.000000 1.654432 -0.086123
v 0.015000 -0.005379 0.062797
v 0.015000 0.171890 0.047237
v 0.015000 0.297368 0.055093
v 0.015000 0.541777 -0.019515
v 0.015000 0.904440 -0.061290
v 0.015000 1.070093 -0.013784
v 0.015000 1.496100 -0.110601
v 0.040000 1.505791 -0.153362
v 0.040000 -0.005379 -0.003215
v 0.040000 1.460054 -0.107624
v 0.040000 1.381413 -0.070835
v 0.040000 1.231701 -0.037484
v 0.040000 1.083652 -0.030708
v 0.040000 0.880582 -0.085223
v 0.040000 0.692421 -0.104433
v 0.040000 0.469050 -0.015239
v 0.040000 0.287929 0.033876
v 0.110743 1.394172 -0.190452
v 0.247037 1.264892 -0.279919
v 0.113936 1.411297 -0.226498
v 0.090422 1.177962 -0.325130
v 0.040535 1.359069 -0.210720
v 0.041703 1.375181 -0.247349
v -0.090422 1.177962 -0.325130
v -0.040535 1.359069 -0.210720
v -0.041703 1.375181 -0.247349
v -0.110743 1.394172 -0.190452
v -0.247037 1.264892 -0.279919
v -0.113936 1.411297 -0.226498
v -0.151278 1.454975 -0.155348
v -0.337459 1.415458 -0.201611
v -0.155639 1.473852 -0.190382
v -0.151278 1.525183 -0.114813
v -0.337459 1.589317 -0.111189
v -0.155639 1.546084 -0.148678
v -0.110743 1.585985 -0.079709
v -0.247037 1.739884 -0.032882
v -0.113936 1.608639 -0.112562
v -0.040535 1.621089 -0.059442
v -0.090422 1.826813 0.012329
v -0.041703 1.644755 -0.091711
v 0.041703 1.644755 -0.091711
v 0.040535 1.621089 -0.059442
v 0.090422 1.826813 0.012329
v 0.110743 1.585985 -0.079709
v 0.247037 1.739884 -0.032882
v 0.113936 1.608639 -0.112562
v 0.151278 1.525183 -0.114813
v 0.337459 1.589317 -0.111189
v 0.155639 1.546084 -0.148678
v 0.151278 1.454975 -0.155348
v 0.337459 1.415458 -0.201611
v 0.155639 1.473852 -0.190382
vt 0.141707 0.499540
vt 0.141707 0.499540
vt 0.182063 0.508679
vt 0.141707 0.499540
vt 0.141707 0.499539
vt 0.182063 0.508679
vt 0.141707 0.499540
vt 0.141707 0.499539
vt 0.182063 0.508680
vt 0.141707 0.499540
vt 0.141707 0.499540
vt 0.182063 0.508679
vt 0.141707 0.499540
vt 0.141707 0.499539
vt 0.182063 0.508679
vt 0.141707 0.499540
vt 0.141707 0.499540
vt 0.182063 0.508680
vt 0.294324 0.607182
vt 0.294324 0.607182
vt 0.263841 0.569484
vt 0.294324 0.607182
vt 0.263841 0.569484
vt 0.294324 0.607182
vt 0.294324 0.607182
vt 0.263841 0.569484
vt 0.294324 0.607182
vt 0.294324 0.607182
vt 0.314559 0.608254
vt 0.170094 0.524704
vt 0.170094 0.524704
vt 0.314559 0.608254
vt 0.314559 0.608254
vt 0.314559 0.608254
vt 0.170094 0.524704
vt 0.170094 0.524704
vt 0.141707 0.499540
vt 0.170094 0.524704
vt 0.170094 0.524704
vt 0.314559 0.608254
vt 0.170094 0.524704
vt 0.170094 0.524704
vt 0.314559 0.608254
vt 0.314559 0.608254
vt 0.170094 0.524704
vt 0.170094 0.524704
vt 0.170094 0.524704
vt 0.170094 0.524704
vt 0.000000 0.000000
vt 0.000000 0.000000
vt 0.000000 0.000000
vt 0.000000 0.000000
vt 0.000000 0.000000
vt 0.000000 0.000000
vt 0.000000 0.000000
vt 0.000000 0.000000
vt 0.000000 0.000000
vt 0.000000 0.000000
vt 0.000000 0.000000
vt 0.000000 0.000000
vt 0.000000 0.000000
vt 0.000000 0.000000
vt 0.000000 0.000000
vt 0.000000 0.000000
vt 0.000000 0.000000
vt 0.000000 0.000000
vt 0.000000 0.000000
vt 0.000000 0.000000
vt 0.000000 0.000000
vt 0.000000 0.000000
vt 0.000000 0.000000
vt 0.000000 0.000000
vt 0.263841 0.569484
vt 0.000000 0.000000
vt 0.000000 0.000000
vt 0.000000 0.000000
vt 0.000000 0.000000
vt 0.000000 0.000000
vt 0.000000 0.000000
vt 0.000000 0.000000
vt 0.000000 0.000000
vt 0.000000 0.000000
vt 0.000000 0.000000
vt 0.182063 0.508679
vt 0.141707 0.499540
vt 0.141707 0.499540
vt 0.182063 0.508679
vt 0.141707 0.499539
vt 0.141707 0.499540
vt 0.182063 0.508680
vt 0.141707 0.499539
vt 0.141707 0.499540
vt 0.182063 0.508679
vt 0.141707 0.499540
vt 0.141707 0.499540
vt 0.182063 0.508679
vt 0.141707 0.499539
vt 0.141707 0.499540
vt 0.182063 0.508679
vt 0.141707 0.499539
vt 0.294324 0.607182
vt 0.263841 0.569484
vt 0.294324 0.607182
vt 0.294324 0.607182
vt 0.294324 0.607182
vt 0.294324 0.607182
vt 0.314559 0.608254
vt 0.314559 0.608254
vt 0.170094 0.524704
vt 0.314559 0.608254
vt 0.314559 0.608254
vt 0.314559 0.608254
vt 0.314559 0.608254
vt 0.314559 0.608254
vt 0.170094 0.524704
vt 0.170094 0.524704
vt 0.170094 0.524704
vt 0.314559 0.608254
vt 0.314559 0.608254
vt 0.170094 0.524704
vt 0.170094 0.524704
vt 0.000000 0.000000
vt 0.000000 0.000000
vt 0.000000 0.000000
vt 0.182063 0.508679
vt 0.182063 0.508679
vt 0.000000 0.000000
vt 0.182063 0.508679
vt 0.000000 0.000000
vt 0.182063 0.508679
vt 0.182063 0.508679
vt 0.000000 0.000000
vt 0.000000 0.000000
vt 0.000000 0.000000
vt 0.000000 0.000000
vt 0.000000 0.000000
vt 0.000000 0.000000
vt 0.182063 0.508679
vt 0.182063 0.508679
vt 0.182063 0.508679
vt 0.182063 0.508679
vt 0.170094 0.524704
vt 0.170095 0.524704
vt 0.182063 0.508679
vt 0.170094 0.524704
vt 0.170094 0.524704
vt 0.170094 0.524704
vt 0.170094 0.524704
vt 0.314559 0.608254
vt 0.314559 0.608254
vt 0.182063 0.508679
vt 0.314559 0.608254
vt 0.314559 0.608254
vt 0.314559 0.608254
vt 0.314559 0.608254
vt 0.314559 0.608254
vt 0.182063 0.508679
vt 0.314559 0.608254
vn 0.1992 0.3655 -0.9093
vn 0.2420 0.4722 -0.8476
vn 0.1971 0.6154 -0.7632
vn 0.0176 0.7241 -0.6895
vn -0.2073 0.6950 -0.6885
vn -0.3217 0.5674 -0.7580
vn -0.1044 -0.1202 0.9872
vn -0.2570 -0.2432 0.9353
vn -0.3511 -0.3843 0.8538
vn -0.3511 -0.5473 0.7597
vn -0.2570 -0.6884 0.6783
vn -0.0851 -0.7471 0.6592
vn 0.4529 -0.3365 0.8256
vn 0.1461 -0.6158 0.7743
vn 0.1214 -0.8339 0.5384
vn 0.3316 -0.1545 0.9307
vn 0.3316 -0.7288 0.5991
vn 0.0535 -0.6621 0.7475
vn 0.1996 -0.5355 0.8206
vn 0.4529 -0.5467 0.7042
vn 0.1996 -0.4429 0.8741
vn -0.1214 -0.8339 0.5384
vn 0.0535 -0.3163 0.9471
vn 0.1461 -0.3627 0.9204
vn 0.6966 -0.3040 -0.6499
vn 0.0000 1.0000 0.0000
vn 0.7905 -0.2275 0.5686
vn 0.7671 -0.0561 -0.6391
vn 0.4513 0.1120 -0.8853
vn 0.2976 -0.2787 -0.9131
vn 0.3505 0.0585 -0.9347
vn 0.3851 -0.2415 -0.8907
vn 0.5772 -0.2308 -0.7833
vn 0.3858 -0.3421 -0.8568
vn 0.3165 0.0963 -0.9437
vn 0.2942 0.2478 -0.9231
vn 0.3549 0.1129 -0.9281
vn 0.2971 0.0133 -0.9548
vn 0.3418 0.2591 -0.9034
vn 0.3975 -0.1188 -0.9099
vn 0.4157 -0.0416 -0.9086
vn 0.3141 -0.5435 -0.7784
vn 0.7027 -0.1547 -0.6945
vn 0.3049 -0.5306 -0.7909
vn 0.4945 -0.2086 -0.8438
vn 0.2205 0.9064 0.3602
vn -0.0040 -0.5128 0.8585
vn 0.4375 0.3810 0.8145
vn 0.2113 0.2125 0.9540
vn 0.2785 0.0439 0.9594
vn 0.3793 -0.2399 0.8936
vn 0.4955 -0.1354 0.8580
vn 0.3190 0.3515 0.8802
vn 0.2534 0.2532 0.9336
vn 0.4190 0.3963 0.8169
vn 0.3881 0.3079 0.8687
vn 0.1953 -0.1230 0.9730
vn 0.4055 0.1117 0.9072
vn 0.3664 0.1056 0.9244
vn 0.4298 -0.0917 0.8982
vn 0.4141 -0.0866 0.9061
vn 0.3986 -0.2460 0.8835
vn 0.3122 0.3491 0.8835
vn -0.1992 0.3655 -0.9093
vn -0.2420 0.4722 -0.8476
vn -0.1971 0.6154 -0.7632
vn -0.0176 0.7241 -0.6895
vn 0.2073 0.6950 -0.6885
vn 0.3217 0.5674 -0.7580
vn 0.1044 -0.1202 0.9872
vn 0.2698 -0.2644 0.9259
vn 0.3585 -0.3811 0.8522
vn 0.3504 -0.5473 0.7601
vn 0.2925 -0.6100 0.7364
vn 0.0941 -0.7699 0.6312
vn -0.1214 -0.0494 0.9914
vn 0.1679 -0.6304 0.7579
vn -0.4529 -0.5467 0.7042
vn 0.1214 -0.0494 0.9914
vn -0.4529 -0.3365 0.8256
vn 0.2444 -0.5296 0.8123
vn -0.0003 -0.6543 0.7562
vn -0.1326 -0.5691 0.8115
vn -0.3316 -0.7288 0.5991
vn -0.1074 -0.3876 0.9156
vn -0.1550 -0.4600 0.8743
vn -0.4037 -0.3877 -0.8287
vn 0.1884 0.4467 -0.8746
vn 0.1920 0.5346 -0.8230
vn 0.1284 0.6061 -0.7849
vn 0.1315 0.6052 -0.7852
vn 0.0530 0.6606 -0.7489
vn -0.0919 0.6333 -0.7684
vn -0.0530 0.6606 -0.7489
vn -0.1439 0.6141 -0.7760
vn 0.2574 0.8841 0.3899
vn 0.9973 -0.0370 0.0640
vn -0.9432 -0.1234 0.3084
vn -0.9347 -0.0311 -0.3540
vn -0.7437 0.0839 -0.6632
vn -0.5656 -0.2408 -0.7888
vn -0.6357 0.0482 -0.7705
vn -0.6762 -0.1928 -0.7110
vn -0.8411 -0.1529 -0.5188
vn -0.6770 -0.2729 -0.6835
vn -0.5917 0.0819 -0.8020
vn -0.5607 0.2147 -0.7997
vn -0.6410 0.0926 -0.7619
vn -0.5648 0.0115 -0.8251
vn -0.6248 0.2152 -0.7505
vn -0.6206 -0.2637 -0.7385
vn -0.7090 -0.0322 -0.7045
vn -0.4292 -0.3659 -0.8258
vn -0.4095 -0.1984 -0.8905
vn -0.6831 -0.5164 -0.5164
vn -0.7191 -0.4565 -0.5239
vn -0.8780 0.4764 0.0469
vn -0.6546 0.5345 0.5345
vn -0.7307 0.2893 0.6184
vn -0.4295 0.1964 0.8815
vn -0.4351 0.0412 0.8995
vn -0.5642 -0.2141 0.7974
vn -0.6890 -0.1130 0.7159
vn -0.5951 0.2980 0.7464
vn -0.4993 0.2268 0.8362
vn -0.7124 0.3063 0.6313
vn -0.6796 0.2451 0.6915
vn -0.4013 -0.1149 0.9087
vn -0.6984 0.0875 0.7103
vn -0.5957 0.1182 0.7945
vn -0.7232 -0.0701 0.6870
vn -0.7075 -0.0672 0.7036
vn -0.6797 -0.2289 0.6969
vn -0.5859 0.2978 0.7537
vn 0.1732 0.4317 -0.8853
vn 0.1439 0.3650 -0.9198
vn 0.0527 0.3194 -0.9462
vn -0.0485 0.3345 -0.9411
vn -0.1439 0.3650 -0.9198
vn -0.1965 0.4439 -0.8742
vn -0.1886 0.4910 -0.8505
vn -0.1965 0.5352 -0.8216
vn -0.1461 -0.3627 0.9204
vn -0.2544 0.3545 -0.8998
vn -0.0535 -0.3163 0.9471
vn -0.3175 0.4424 -0.8387
vn 0.0795 0.7327 -0.6759
vn 0.2171 0.6639 -0.7156
vn 0.2966 0.5447 -0.7844
vn 0.2966 0.4070 -0.8639
vn 0.2171 0.2878 -0.9328
vn 0.0795 0.2190 -0.9725
vn -0.0535 -0.6621 0.7475
vn 0.1188 0.3013 -0.9461
vn -0.1461 -0.6158 0.7743
vn 0.0236 0.2718 -0.9621
vn -0.1996 -0.5355 0.8206
vn -0.0753 0.2728 -0.9591
vn -0.1996 -0.4429 0.8741
vn -0.1695 0.3004 -0.9386
vn -0.3316 -0.1545 0.9307
vn -0.2407 -0.2391 0.9407
vn -0.3348 -0.4711 0.8160
vn -0.0850 -0.7471 0.6592
vn -0.1679 -0.6304 0.7579
vn -0.2444 -0.5296 0.8123
vn 0.0003 -0.6543 0.7562
vn 0.1326 -0.5691 0.8115
vn 0.1073 -0.3876 0.9156
vn 0.1550 -0.4600 0.8743
vn -0.0089 -0.5000 0.8660
vn -0.0149 -0.5244 0.8513
vn -0.0795 0.2190 -0.9725
vn -0.2171 0.2878 -0.9328
vn -0.2966 0.4070 -0.8639
vn -0.2966 0.5447 -0.7844
vn -0.2171 0.6639 -0.7156
vn -0.0795 0.7327 -0.6759
vn 0.2422 -0.2600 0.9347
vn 0.2570 -0.6884 0.6783
vn 0.1315 0.6051 -0.7852
vn -0.1965 0.5351 -0.8216
vn -0.0195 -0.3583 0.9334
vn 0.0388 -0.3583 0.9328
vn -0.0388 -0.3583 0.9328
vn 0.3175 0.4424 -0.8387
vn 0.0195 -0.3583 0.9334
vn 0.2544 0.3545 -0.8998
vn 0.0595 -0.3639 0.9295
vn 0.1695 0.3004 -0.9386
vn 0.1036 -0.3661 0.9248
vn 0.0753 0.2728 -0.9591
vn 0.1649 -0.3843 0.9084
vn -0.0236 0.2718 -0.9621
vn 0.2252 -0.4373 0.8707
vn -0.1188 0.3013 -0.9461
vn -0.2252 -0.4373 0.8707
vn -0.1649 -0.3843 0.9084
vn -0.1036 -0.3661 0.9248
vn -0.0595 -0.3639 0.9295
usemtl None
s off
f 16/1/1 114/2/1 113/3/1
f 18/4/2 111/5/2 110/6/2
f 20/7/3 108/8/3 107/9/3
f 22/10/4 105/11/4 104/12/4
f 24/13/5 102/14/5 101/15/5
f 60/16/6 98/17/6 99/18/6
f 61/19/7 25/20/7 8/21/7
f 25/20/8 27/22/8 26/23/8
f 27/22/9 28/24/9 26/23/9
f 28/24/10 30/25/10 29/26/10
f 30/25/11 31/27/11 29/26/11
f 29/26/12 31/27/12 14/28/12
f 106/29/13 30/25/13 28/24/13
f 112/30/14 36/31/14 16/1/14
f 115/32/15 25/20/15 61/19/15
f 103/33/16 31/27/16 30/25/16
f 112/34/17 27/22/17 25/20/17
f 115/35/18 74/36/18 13/37/18
f 109/38/19 33/39/19 18/4/19
f 109/40/20 28/24/20 27/22/20
f 106/41/21 34/42/21 20/7/21
f 61/19/22 116/43/22 74/44/22
f 100/45/23 32/46/23 24/13/23
f 103/47/24 35/48/24 22/10/24
f 41/49/25 40/50/25 48/51/25
f 11/52/26 39/53/26 75/54/26
f 39/53/27 11/52/27 1/55/27
f 76/56/28 75/54/28 39/53/28
f 76/56/29 39/53/29 47/57/29
f 78/58/30 77/59/30 46/60/30
f 77/59/31 76/56/31 47/57/31
f 46/60/32 77/59/32 47/57/32
f 10/61/33 78/58/33 45/62/33
f 46/60/34 45/62/34 78/58/34
f 45/62/35 44/63/35 10/61/35
f 44/63/36 43/64/36 79/65/36
f 10/61/37 44/63/37 79/65/37
f 9/66/38 80/67/38 43/64/38
f 80/67/39 79/65/39 43/64/39
f 48/51/40 9/66/40 42/68/40
f 42/68/41 9/66/41 43/64/41
f 81/69/42 48/51/42 40/50/42
f 41/49/43 48/51/43 42/68/43
f 40/50/44 26/70/44 81/69/44
f 26/70/45 8/71/45 81/69/45
f 40/50/46 7/72/46 66/73/46
f 82/74/47 29/75/47 66/76/47
f 40/50/48 41/49/48 7/72/48
f 41/49/49 42/68/49 6/77/49
f 42/68/50 43/64/50 37/78/50
f 43/64/51 44/63/51 38/79/51
f 37/78/52 43/64/52 38/79/52
f 45/62/53 46/60/53 3/80/53
f 46/60/54 47/57/54 2/81/54
f 41/49/55 6/77/55 7/72/55
f 46/60/56 2/81/56 3/80/56
f 47/57/57 39/53/57 1/55/57
f 2/81/58 47/57/58 1/55/58
f 42/68/59 37/78/59 6/77/59
f 44/63/60 45/62/60 5/82/60
f 4/83/61 5/82/61 45/62/61
f 5/82/62 38/79/62 44/63/62
f 3/80/63 4/83/63 45/62/63
f 117/84/64 118/85/64 50/86/64
f 119/87/65 120/88/65 52/89/65
f 122/90/66 123/91/66 54/92/66
f 125/93/67 126/94/67 56/95/67
f 92/96/68 93/97/68 58/98/68
f 96/99/69 95/100/69 60/16/69
f 61/19/70 8/21/70 62/101/70
f 62/101/71 8/21/71 82/102/71
f 63/103/72 82/102/72 64/104/72
f 64/104/73 82/102/73 65/105/73
f 65/105/74 82/102/74 66/73/74
f 67/106/75 66/73/75 14/28/75
f 67/106/76 97/107/76 69/108/76
f 121/109/77 120/88/77 50/86/77
f 63/103/78 124/110/78 70/111/78
f 100/112/79 14/28/79 31/27/79
f 64/104/80 127/113/80 72/114/80
f 116/115/81 118/85/81 13/37/81
f 124/116/82 123/91/82 52/89/82
f 127/117/83 126/94/83 54/92/83
f 62/101/84 121/118/84 71/119/84
f 97/120/85 95/100/85 58/98/85
f 94/121/86 93/97/86 56/95/86
f 85/122/87 48/51/87 84/123/87
f 11/52/26 75/54/26 83/124/26
f 125/93/88 55/125/88 82/74/88
f 82/74/89 51/126/89 122/90/89
f 82/74/90 8/71/90 49/127/90
f 82/74/91 49/128/91 119/87/91
f 117/84/92 49/128/92 8/71/92
f 26/70/93 15/129/93 8/71/93
f 8/71/94 15/130/94 113/3/94
f 26/70/95 17/131/95 110/6/95
f 29/26/96 40/50/96 66/73/96
f 29/26/97 26/70/97 40/50/97
f 83/124/98 1/55/98 11/52/98
f 76/56/99 83/124/99 75/54/99
f 76/56/100 91/132/100 83/124/100
f 78/58/101 90/133/101 77/59/101
f 77/59/102 91/132/102 76/56/102
f 90/133/103 91/132/103 77/59/103
f 10/61/104 89/134/104 78/58/104
f 90/133/105 78/58/105 89/134/105
f 89/134/106 10/61/106 88/135/106
f 88/135/107 79/65/107 87/136/107
f 10/61/108 79/65/108 88/135/108
f 9/66/109 87/136/109 80/67/109
f 80/67/110 87/136/110 79/65/110
f 48/51/111 86/137/111 9/66/111
f 86/137/112 87/136/112 9/66/112
f 81/69/113 84/123/113 48/51/113
f 85/122/114 86/137/114 48/51/114
f 84/123/115 81/69/115 82/74/115
f 82/74/116 81/69/116 8/71/116
f 7/72/117 82/74/117 66/73/117
f 82/74/118 7/72/118 84/123/118
f 84/123/119 7/72/119 85/122/119
f 85/122/120 6/77/120 86/137/120
f 86/137/121 37/78/121 87/136/121
f 87/136/122 38/79/122 88/135/122
f 37/78/123 38/79/123 87/136/123
f 89/134/124 3/80/124 90/133/124
f 90/133/125 2/81/125 91/132/125
f 85/122/126 7/72/126 6/77/126
f 90/133/127 3/80/127 2/81/127
f 91/132/128 1/55/128 83/124/128
f 2/81/129 1/55/129 91/132/129
f 86/137/130 6/77/130 37/78/130
f 88/135/131 5/82/131 89/134/131
f 4/83/132 89/134/132 5/82/132
f 5/82/133 88/135/133 38/79/133
f 3/80/134 89/134/134 4/83/134
f 66/76/135 82/74/135 55/125/135
f 92/96/136 57/138/136 66/76/136
f 66/76/137 57/138/137 96/99/137
f 99/18/138 23/139/138 66/76/138
f 66/76/138 23/139/138 29/26/138
f 29/26/139 23/139/139 101/15/139
f 29/26/140 21/140/140 104/12/140
f 29/26/141 19/141/141 26/23/141
f 26/23/142 19/141/142 107/9/142
f 94/121/143 69/142/143 58/98/143
f 56/95/144 93/97/144 92/96/144
f 97/120/145 68/143/145 60/16/145
f 58/98/146 95/100/146 96/99/146
f 60/16/23 68/143/23 100/45/23
f 24/13/147 23/139/147 99/18/147
f 24/13/24 32/46/24 103/47/24
f 22/10/148 21/140/148 101/15/148
f 22/10/21 35/48/21 106/41/21
f 20/7/149 19/141/149 104/12/149
f 20/7/19 34/42/19 109/38/19
f 18/4/150 17/131/150 107/9/150
f 18/4/14 33/39/14 112/30/14
f 16/1/151 15/130/151 110/6/151
f 16/1/18 36/31/18 115/35/18
f 13/37/152 12/144/152 113/3/152
f 116/115/153 71/145/153 50/86/153
f 13/37/154 118/85/154 117/84/154
f 121/109/155 70/146/155 52/89/155
f 50/86/156 120/88/156 119/87/156
f 124/116/157 72/147/157 54/92/157
f 52/89/158 123/91/158 122/90/158
f 127/117/159 73/148/159 56/95/159
f 54/92/160 126/94/160 125/93/160
f 65/105/161 94/149/161 73/150/161
f 16/1/152 113/3/152 15/130/152
f 18/4/151 110/6/151 17/131/151
f 20/7/150 107/9/150 19/141/150
f 22/10/149 104/12/149 21/140/149
f 24/13/148 101/15/148 23/139/148
f 60/16/147 99/18/147 59/151/147
f 25/20/162 26/23/162 8/21/162
f 28/24/163 29/26/163 26/23/163
f 29/26/164 14/28/164 66/73/164
f 30/25/13 106/29/13 35/152/13
f 106/29/13 28/24/13 34/153/13
f 112/30/165 16/1/165 111/5/165
f 25/20/15 115/32/15 36/154/15
f 115/32/15 61/19/15 74/44/15
f 31/27/16 103/33/16 32/155/16
f 103/33/16 30/25/16 35/152/16
f 27/22/17 112/34/17 33/156/17
f 112/34/17 25/20/17 36/154/17
f 115/35/166 13/37/166 114/2/166
f 109/38/167 18/4/167 108/8/167
f 28/24/20 109/40/20 34/153/20
f 109/40/20 27/22/20 33/156/20
f 106/41/168 20/7/168 105/11/168
f 116/43/22 62/101/22 71/119/22
f 62/101/22 116/43/22 61/19/22
f 100/45/169 24/13/169 98/17/169
f 103/47/170 22/10/170 102/14/170
f 29/75/171 82/74/171 26/70/171
f 26/70/172 82/74/172 8/71/172
f 117/84/173 50/86/173 49/128/173
f 119/87/174 52/89/174 51/126/174
f 122/90/175 54/92/175 53/157/175
f 125/93/176 56/95/176 55/125/176
f 92/96/177 58/98/177 57/138/177
f 96/99/178 60/16/178 59/151/178
f 62/101/179 82/102/179 63/103/179
f 65/105/180 66/73/180 67/106/180
f 97/107/76 14/28/76 68/158/76
f 14/28/76 97/107/76 67/106/76
f 121/109/155 50/86/155 71/145/155
f 124/110/78 64/104/78 72/114/78
f 64/104/78 124/110/78 63/103/78
f 14/28/79 100/112/79 68/158/79
f 100/112/79 31/27/79 32/155/79
f 127/113/80 65/105/80 73/150/80
f 65/105/80 127/113/80 64/104/80
f 116/115/153 13/37/153 74/36/153
f 124/116/157 52/89/157 70/146/157
f 127/117/159 54/92/159 72/147/159
f 121/118/84 63/103/84 70/111/84
f 63/103/84 121/118/84 62/101/84
f 97/120/145 58/98/145 69/142/145
f 94/121/143 56/95/143 73/148/143
f 125/93/88 82/74/88 53/157/88
f 82/74/89 122/90/89 53/157/89
f 82/74/181 119/87/181 51/126/181
f 117/84/92 8/71/92 12/144/92
f 8/71/94 113/3/94 12/144/94
f 26/70/95 110/6/95 15/130/95
f 92/96/136 66/76/136 55/125/136
f 66/76/137 96/99/137 59/151/137
f 99/18/138 66/76/138 59/151/138
f 29/26/139 101/15/139 21/140/139
f 29/26/140 104/12/140 19/141/140
f 26/23/182 107/9/182 17/131/182
f 94/121/183 58/98/183 93/97/183
f 56/95/177 92/96/177 55/125/177
f 97/120/184 60/16/184 95/100/184
f 58/98/178 96/99/178 57/138/178
f 60/16/185 100/45/185 98/17/185
f 24/13/186 99/18/186 98/17/186
f 24/13/187 103/47/187 102/14/187
f 22/10/188 101/15/188 102/14/188
f 22/10/189 106/41/189 105/11/189
f 20/7/190 104/12/190 105/11/190
f 20/7/191 109/38/191 108/8/191
f 18/4/192 107/9/192 108/8/192
f 18/4/193 112/30/193 111/5/193
f 16/1/194 110/6/194 111/5/194
f 16/1/195 115/35/195 114/2/195
f 13/37/196 113/3/196 114/2/196
f 116/115/197 50/86/197 118/85/197
f 13/37/173 117/84/173 12/144/173
f 121/109/198 52/89/198 120/88/198
f 50/86/174 119/87/174 49/128/174
f 124/116/199 54/92/199 123/91/199
f 52/89/175 122/90/175 51/126/175
f 127/117/200 56/95/200 126/94/200
f 54/92/176 125/93/176 53/157/176
f 94/149/161 67/106/161 69/108/161
f 67/106/161 94/149/161 65/105/161
