# Blender v2.90.0 OBJ File: 'mailbox.blend'
# www.blender.org
mtllib mailbox.mtl
o Mailbox_Cylinder.001
v -0.000000 2.295204 -0.590290
v -0.000000 2.295204 0.590290
v 0.064999 2.288803 -0.590290
v 0.064999 2.288803 0.590290
v 0.127500 2.269843 -0.590290
v 0.127500 2.269843 0.590290
v 0.185102 2.239055 -0.590290
v 0.185102 2.239055 0.590290
v 0.235590 2.197620 -0.590290
v 0.235590 2.197620 0.590290
v 0.277024 2.147132 -0.590290
v 0.277024 2.147132 0.590290
v 0.307813 2.089530 -0.590290
v 0.307813 2.089530 0.590290
v 0.326773 2.027029 -0.590290
v 0.326773 2.027029 0.590290
v -0.326773 2.027029 -0.590290
v -0.326773 2.027029 0.590290
v -0.307813 2.089531 -0.590290
v -0.307813 2.089531 0.590290
v -0.277025 2.147132 -0.590290
v -0.277025 2.147132 0.590290
v -0.235590 2.197620 -0.590290
v -0.235590 2.197620 0.590290
v -0.185102 2.239055 -0.590290
v -0.185102 2.239055 0.590290
v -0.127500 2.269844 -0.590290
v -0.127500 2.269844 0.590290
v -0.064999 2.288803 -0.590290
v -0.064999 2.288803 0.590290
v 0.326773 1.745486 -0.590290
v 0.326773 1.745486 0.590290
v -0.326773 1.745486 -0.590290
v -0.326773 1.745486 0.590290
v 0.089222 1.820532 -0.093349
v 0.089222 0.000000 -0.093349
v 0.089222 1.820532 0.093349
v 0.089222 0.000000 0.093349
v -0.089222 1.820532 -0.093349
v -0.089222 0.000000 -0.093349
v -0.089222 1.820532 0.093349
v -0.089222 0.000000 0.093349
v -0.326772 1.930508 -0.187149
v -0.326772 1.843484 -0.187132
v -0.326772 1.930508 -0.535707
v -0.326772 1.907881 -0.535702
v -0.326772 1.907881 -0.361423
v -0.326772 1.907881 -0.274284
v -0.326772 1.843484 -0.230702
v -0.363333 1.930508 -0.187149
v -0.363333 1.843484 -0.187132
v -0.363333 1.930508 -0.535707
v -0.363333 1.907881 -0.535703
v -0.363333 1.907881 -0.361424
v -0.363333 1.907881 -0.274284
v -0.363333 1.843484 -0.230702
vt 0.216797 1.000000
vt 0.185547 0.000000
vt 0.216797 0.000000
vt 0.185547 1.000000
vt 0.154297 0.000000
vt 0.154297 1.000000
vt 0.123047 0.000000
vt 0.123047 1.000000
vt 0.091797 0.000000
vt 0.091797 1.000000
vt 0.060547 0.000000
vt 0.060547 1.000000
vt 0.029297 0.000000
vt 0.060547 1.000000
vt 0.029297 0.000000
vt 0.060547 0.000000
vt 0.218750 1.000000
vt 0.187500 0.000000
vt 0.218750 0.000000
vt 0.187500 1.000000
vt 0.156250 0.000000
vt 0.125000 1.000000
vt 0.125000 0.000000
vt 0.093750 0.000000
vt 0.093750 1.000000
vt 0.062500 0.000000
vt 0.062500 1.000000
vt 0.031250 0.000000
vt 0.031250 1.000000
vt 0.000000 0.000000
vt 0.171669 0.851181
vt -0.001953 0.000000
vt 0.277082 0.204626
vt 0.168069 0.691066
vt 0.003806 0.480809
vt 0.168069 0.480809
vt 0.014299 0.850348
vt 0.072101 0.850348
vt 0.404462 0.850348
vt 0.027860 0.601562
vt 0.127197 0.601562
vt 0.061655 0.601562
vt 0.218750 0.000000
vt 0.000000 0.000000
vt 0.875000 0.500000
vt 0.625000 0.750000
vt 0.625000 0.500000
vt 0.958984 0.027344
vt 0.708984 0.277344
vt 0.708984 0.027344
vt 0.884766 0.007812
vt 0.634766 0.257812
vt 0.634766 0.007812
vt 0.960937 0.015625
vt 0.710937 0.265625
vt 0.710937 0.015625
vt 0.976562 0.019531
vt 0.726562 0.269531
vt 0.726562 0.019531
vt 0.984375 0.019531
vt 0.734375 0.269531
vt 0.734375 0.019531
vt 0.976562 0.849392
vt 0.976562 0.983073
vt 0.976562 0.983073
vt 0.000000 0.000000
vt 0.463632 0.129651
vt 0.432628 0.291855
vt 0.830874 0.846499
vt 0.938657 0.873445
vt 0.938657 0.859972
vt 0.962891 0.949219
vt 0.962891 0.824219
vt 0.962891 0.949219
vt 0.988803 0.767578
vt 0.702603 0.767578
vt 0.702603 0.767578
vt 0.725733 0.740234
vt 0.989110 0.740234
vt 0.989110 0.740234
vt 0.824219 0.957031
vt 0.824219 0.832031
vt 0.824219 0.957031
vt 0.816406 0.796585
vt 0.816406 0.980759
vt 0.816406 0.980759
vt 0.029297 1.000000
vt 0.029297 1.000000
vt 0.156250 1.000000
vt 0.000000 1.000000
vt -0.001953 1.000000
vt 0.003806 0.480809
vt 0.447813 0.850348
vt 0.462263 0.850348
vt 0.028750 0.850348
vt 0.043200 0.850348
vt 0.057651 0.850348
vt 0.086551 0.850348
vt 0.101002 0.850348
vt 0.115452 0.850348
vt 0.014299 0.387933
vt 0.375561 0.850348
vt 0.375561 0.850348
vt 0.390011 0.850348
vt 0.418912 0.850348
vt 0.433363 0.850348
vt 0.012499 0.601562
vt 0.109788 0.601562
vt 0.093402 0.601562
vt 0.077017 0.601562
vt 0.060631 0.601562
vt 0.044246 0.601562
vt 0.011475 0.601562
vt 0.011475 0.601562
vt 0.012499 0.601562
vt 0.110812 0.601562
vt 0.094426 0.601562
vt 0.078041 0.601562
vt 0.045270 0.601562
vt 0.028884 0.601562
vt 0.875000 0.750000
vt 0.958984 0.277344
vt 0.884766 0.257812
vt 0.960937 0.265625
vt 0.976562 0.269531
vt 0.984375 0.269531
vt 0.976562 0.849392
vt 0.976562 0.782552
vt 0.976562 0.782552
vt 0.429528 0.105413
vt 0.460532 0.523253
vt 0.435387 0.917913
vt 0.000000 1.000000
vt 0.830874 0.954282
vt 0.938657 0.900391
vt 0.938657 0.954282
vt 0.938657 0.846499
vt 0.962891 0.824219
vt 0.988803 0.767578
vt 0.725733 0.740234
vt 0.824219 0.832031
vt 0.816406 0.796585
vn 0.0980 0.9952 0.0000
vn 0.2903 0.9569 0.0000
vn 0.4714 0.8819 0.0000
vn 0.6344 0.7730 0.0000
vn 0.7730 0.6344 0.0000
vn 0.8819 0.4714 0.0000
vn 0.9569 0.2903 0.0000
vn -0.9569 0.2903 0.0000
vn -0.8819 0.4714 0.0000
vn -0.7730 0.6344 0.0000
vn -0.6344 0.7730 0.0000
vn -0.4714 0.8819 0.0000
vn -0.2903 0.9569 0.0000
vn -0.0980 0.9952 0.0000
vn 1.0000 0.0000 0.0000
vn -0.0000 -1.0000 0.0000
vn 0.0000 0.0000 1.0000
vn 0.0000 0.0000 -1.0000
vn -1.0000 0.0000 0.0000
vn 0.0000 1.0000 0.0000
vn 0.0000 -0.5605 -0.8282
vn 0.0000 -0.0002 -1.0000
vn -0.0000 0.0002 1.0000
usemtl Material
s off
f 2/1/1 3/2/1 1/3/1
f 4/4/2 5/5/2 3/2/2
f 6/6/3 7/7/3 5/5/3
f 8/8/4 9/9/4 7/7/4
f 10/10/5 11/11/5 9/9/5
f 12/12/6 13/13/6 11/11/6
f 14/14/7 15/15/7 13/16/7
f 18/17/8 19/18/8 17/19/8
f 20/20/9 21/21/9 19/18/9
f 21/21/10 24/22/10 23/23/10
f 24/22/11 25/24/11 23/23/11
f 26/25/12 27/26/12 25/24/12
f 28/27/13 29/28/13 27/26/13
f 30/29/14 1/30/14 29/28/14
f 16/31/15 31/32/15 15/33/15
f 32/34/16 33/35/16 31/36/16
f 2/37/17 24/38/17 12/39/17
f 13/40/18 17/41/18 25/42/18
f 18/17/19 33/43/19 34/44/19
f 39/45/20 37/46/20 35/47/20
f 37/48/17 42/49/17 38/50/17
f 41/51/19 40/52/19 42/53/19
f 36/54/16 42/55/16 40/56/16
f 35/57/15 38/58/15 36/59/15
f 39/60/18 36/61/18 40/62/18
f 54/63/16 53/64/16 46/65/16
f 43/66/15 49/67/15 48/68/15
f 50/69/19 55/70/19 56/71/19
f 48/72/21 56/73/21 55/74/21
f 46/75/22 52/76/22 45/77/22
f 43/78/23 51/79/23 44/80/23
f 49/81/16 51/82/16 56/83/16
f 45/84/20 50/85/20 43/86/20
f 2/1/1 4/4/1 3/2/1
f 4/4/2 6/6/2 5/5/2
f 6/6/3 8/8/3 7/7/3
f 8/8/4 10/10/4 9/9/4
f 10/10/5 12/12/5 11/11/5
f 12/12/6 14/87/6 13/13/6
f 14/14/7 16/88/7 15/15/7
f 18/17/8 20/20/8 19/18/8
f 20/20/9 22/89/9 21/21/9
f 21/21/10 22/89/10 24/22/10
f 24/22/11 26/25/11 25/24/11
f 26/25/12 28/27/12 27/26/12
f 28/27/13 30/29/13 29/28/13
f 30/29/14 2/90/14 1/30/14
f 16/31/15 32/91/15 31/32/15
f 32/34/16 34/92/16 33/35/16
f 6/93/17 4/94/17 2/37/17
f 2/37/17 30/95/17 28/96/17
f 28/96/17 26/97/17 2/37/17
f 26/97/17 24/38/17 2/37/17
f 24/38/17 22/98/17 20/99/17
f 20/99/17 18/100/17 12/39/17
f 18/100/17 34/101/17 16/102/17
f 12/39/17 18/100/17 16/102/17
f 34/101/17 32/103/17 16/102/17
f 16/102/17 14/104/17 12/39/17
f 12/39/17 10/105/17 2/37/17
f 10/105/17 8/106/17 2/37/17
f 8/106/17 6/93/17 2/37/17
f 24/38/17 20/99/17 12/39/17
f 1/107/18 3/108/18 5/109/18
f 5/109/18 7/110/18 9/111/18
f 9/111/18 11/112/18 5/109/18
f 11/112/18 13/40/18 5/109/18
f 13/40/18 15/113/18 17/41/18
f 15/113/18 31/114/18 17/41/18
f 31/114/18 33/115/18 17/41/18
f 17/41/18 19/116/18 25/42/18
f 19/116/18 21/117/18 25/42/18
f 21/117/18 23/118/18 25/42/18
f 25/42/18 27/119/18 29/120/18
f 29/120/18 1/107/18 25/42/18
f 1/107/18 5/109/18 25/42/18
f 5/109/18 13/40/18 25/42/18
f 18/17/19 17/19/19 33/43/19
f 39/45/20 41/121/20 37/46/20
f 37/48/17 41/122/17 42/49/17
f 41/51/19 39/123/19 40/52/19
f 36/54/16 38/124/16 42/55/16
f 35/57/15 37/125/15 38/58/15
f 39/60/18 35/126/18 36/61/18
f 46/65/16 47/127/16 54/63/16
f 47/127/16 48/128/16 54/63/16
f 48/128/16 55/129/16 54/63/16
f 43/66/15 44/130/15 49/67/15
f 48/68/15 47/131/15 43/66/15
f 47/131/15 46/132/15 45/133/15
f 43/66/15 47/131/15 45/133/15
f 50/69/19 52/134/19 54/135/19
f 52/134/19 53/136/19 54/135/19
f 54/135/19 55/70/19 50/69/19
f 56/71/19 51/137/19 50/69/19
f 48/72/21 49/138/21 56/73/21
f 46/75/22 53/139/22 52/76/22
f 43/78/23 50/140/23 51/79/23
f 49/81/16 44/141/16 51/82/16
f 45/84/20 52/142/20 50/85/20
