# Blender v2.90.0 OBJ File: ''
# www.blender.org
mtllib Rock.mtl
o Cube
v -0.756398 0.712465 0.113438
v -0.634795 1.033647 0.148486
v -0.459204 1.102332 0.439477
v -0.377843 0.143228 -0.161523
v -0.253696 0.430092 -0.442381
v 0.563324 0.972572 -0.013633
v 0.492181 1.222112 -0.008105
v 0.446102 1.313611 -0.090541
v -0.700477 1.003349 0.380164
v -0.684158 0.954913 0.644282
v -0.346301 1.100503 0.722935
v 0.140615 1.239561 -0.309025
v 0.019894 0.976865 -0.439383
v 0.044583 0.614794 -0.562305
v 0.217505 0.310610 -0.603647
v -0.049708 0.030512 0.596299
v 0.511871 0.217718 -0.318931
v 0.177813 0.600588 -0.590971
v 0.535482 0.353620 -0.527090
v 0.401719 0.363563 -0.610987
v 0.551859 0.543284 -0.556347
v 0.576194 0.753129 -0.494112
v 0.595226 0.640378 -0.240282
v 0.566393 0.984081 -0.402380
v 0.223840 1.023942 -0.463699
v 0.509263 1.216122 -0.274382
v 0.385206 1.280661 -0.263783
v 0.312031 0.815208 0.514084
v 0.471311 0.805338 0.243573
v 0.123081 0.680619 0.711757
v -0.084858 1.178730 0.704414
v 0.073131 0.971723 0.706303
v 0.176313 1.247286 0.480774
v 0.364030 1.315054 0.152271
v -0.056413 1.163042 -0.287992
v -0.504881 1.047192 -0.037307
v -0.322779 1.083855 -0.182095
v -0.636839 0.566571 -0.114986
v -0.518658 0.416117 -0.266746
v -0.391043 0.064125 0.097283
v -0.446878 0.087519 0.448293
v -0.235753 0.089033 0.693573
v -0.524725 0.358485 0.783998
v -0.465069 0.223693 0.785487
v -0.786837 0.766722 0.299890
v -0.775641 0.780245 0.504491
v -0.684836 0.630317 0.726581
v -0.683110 0.818424 0.750850
v -0.141322 0.312476 0.781246
v 0.461032 0.156164 -0.167805
v 0.251156 0.037884 0.202898
v 0.332632 0.073244 0.069486
v 0.079743 0.017136 0.449931
v -0.398900 0.214642 -0.333184
v -0.048248 0.261589 -0.513084
v 0.361623 0.176822 -0.293895
vt 0.742474 0.513836
vt 0.720353 0.529855
vt 0.678980 0.499279
vt 0.855454 0.533006
vt 0.872420 0.645027
vt 0.830941 0.649566
vt 0.765249 0.654336
vt 0.781800 0.706482
vt 0.719861 0.727624
vt 0.855022 0.717048
vt 0.802860 0.718439
vt 0.783406 0.749781
vt 0.766859 0.495989
vt 0.805859 0.537705
vt 0.449902 0.838048
vt 0.511699 0.872857
vt 0.444641 0.878055
vt 0.406516 0.952192
vt 0.402619 0.898365
vt 0.586539 0.048751
vt 0.510511 0.071597
vt 0.582566 0.889183
vt 0.374507 0.944556
vt 0.373728 0.923147
vt 0.611034 0.104134
vt 0.604175 0.245793
vt 0.511262 0.269137
vt 0.265680 0.512544
vt 0.134818 0.637568
vt 0.125866 0.591477
vt 0.289170 0.583896
vt 0.360417 0.611245
vt 0.333483 0.625835
vt 0.296965 0.647705
vt 0.338017 0.685524
vt 0.277038 0.669051
vt 0.217513 0.709063
vt 0.234423 0.685580
vt 0.189279 0.685738
vt 0.198224 0.724456
vt 0.158514 0.665939
vt 0.125000 0.713935
vt 0.544217 0.338195
vt 0.611235 0.362840
vt 0.577320 0.440607
vt 0.625480 0.304917
vt 0.639931 0.410940
vt 0.737250 0.566741
vt 0.704245 0.622595
vt 0.149371 0.718677
vt 0.749843 0.606731
vt 0.759560 0.749438
vt 0.405916 0.807695
vt 0.494703 0.795191
vt 0.599933 0.790481
vt 0.624145 0.885964
vt 0.626731 0.908439
vt 0.623652 0.972948
vt 0.622155 0.036562
vt 0.225252 0.753880
vt 0.136995 0.743438
vt 0.462504 0.557413
vt 0.398237 0.591237
vt 0.367583 0.383219
vt 0.610977 0.501993
vt 0.512817 0.545835
vt 0.421095 0.242480
vt 0.443748 0.316925
vt 0.407184 0.350677
vt 0.367584 0.866791
vt 0.413236 0.992383
vt 0.444318 0.064533
vt 0.388781 0.173810
vt 0.375000 0.124158
vt 0.402562 0.047994
vt 0.240615 0.495312
vt 0.632225 0.831510
vt 0.294642 0.760773
vt 0.244792 0.755208
vn 0.2573 -0.8223 -0.5076
vn -0.1819 0.3050 -0.9348
vn 0.9727 0.2315 0.0145
vn 0.0486 0.5945 -0.8026
vn 0.4179 0.8542 -0.3094
vn 0.2206 -0.8368 -0.5011
vn -0.0503 0.0367 -0.9981
vn 0.5286 0.4102 0.7431
vn -0.2771 0.9537 0.1165
vn -0.3002 0.9529 -0.0424
vn -0.4253 0.8852 0.1886
vn -0.4904 0.2500 -0.8348
vn -0.8637 -0.4831 -0.1435
vn -0.2064 -0.9611 0.1835
vn -0.3765 -0.8659 0.3294
vn 0.2961 -0.4547 0.8400
vn -0.4916 -0.1070 0.8642
vn -0.9336 -0.0374 0.3564
vn -0.9214 0.2347 0.3097
vn -0.8954 0.3666 -0.2528
vn -0.3526 -0.0376 -0.9350
vn 0.0294 -0.9126 -0.4078
vn -0.2089 0.0141 -0.9778
vn 0.1628 -0.8760 -0.4541
vn 0.5139 -0.1740 -0.8400
vn 0.9815 -0.1911 -0.0134
vn -0.9167 0.3791 0.1262
vn -0.1699 0.3006 -0.9385
vn 0.9970 0.0612 -0.0476
vn 0.9960 0.0885 0.0105
vn 0.9605 0.2726 0.0555
vn 0.8752 0.4816 0.0453
vn -0.2173 0.5122 -0.8309
vn -0.1393 0.9806 -0.1375
vn 0.6715 0.1289 0.7297
vn 0.0162 0.0215 0.9996
vn 0.8129 0.2641 0.5190
vn -0.1648 0.9804 0.1081
vn -0.2335 0.9711 0.0499
vn 0.7544 0.6064 0.2514
vn -0.1879 0.9797 -0.0693
vn -0.4093 0.8966 0.1688
vn -0.4422 0.4498 -0.7760
vn -0.2906 0.5291 -0.7972
vn -0.8674 -0.4862 -0.1056
vn 0.9905 -0.0820 -0.1107
vn 0.1235 -0.4073 0.9049
vn -0.8637 -0.4708 0.1797
vn -0.4090 0.5596 0.7208
vn -0.3821 0.9240 0.0125
vn -0.8959 0.3956 -0.2023
vn -0.0241 -0.9947 -0.1003
vn 0.1334 -0.9558 -0.2618
vn 0.9273 -0.2107 0.3093
vn -0.5499 -0.0519 -0.8336
vn -0.4341 -0.1570 -0.8871
vn -0.3140 -0.0496 -0.9481
vn -0.0692 -0.9241 -0.3759
vn 0.2011 -0.9290 -0.3107
vn 0.2052 0.3688 -0.9066
vn 0.0090 0.0150 0.9998
vn -0.2298 0.9691 -0.0901
vn -0.2783 0.9563 -0.0895
vn -0.2620 0.9612 -0.0861
vn -0.3599 0.9327 0.0217
vn -0.7522 0.3012 -0.5861
vn -0.7790 0.3516 -0.5191
vn -0.6307 0.2895 -0.7200
vn -0.5241 0.2667 -0.8089
vn -0.6089 0.2730 -0.7448
vn -0.5429 0.2605 -0.7984
vn -0.8494 -0.5016 -0.1642
vn -0.8692 -0.4852 -0.0953
vn -0.8461 -0.4962 -0.1948
vn -0.9422 0.3339 0.0295
vn 0.7051 0.2720 0.6549
vn 0.8276 0.2967 0.4765
vn 0.8422 0.2617 0.4714
vn 0.8204 0.2222 0.5268
vn 0.9893 -0.1016 -0.1045
vn -0.8996 -0.4298 0.0776
vn -0.8928 -0.4501 -0.0148
vn -0.8982 -0.4329 0.0763
vn -0.9091 -0.4011 0.1129
vn -0.1323 -0.9908 -0.0265
vn -0.1325 -0.9902 0.0449
vn 0.0089 -0.9564 -0.2919
vn -0.0168 -0.9427 -0.3331
vn -0.0055 -0.9616 -0.2745
vn -0.0099 -0.9651 -0.2618
vn 0.8270 -0.2636 0.4966
vn 0.7822 -0.2834 0.5548
vn 0.6313 -0.3200 0.7065
vn 0.7254 -0.1969 0.6596
vn 0.8028 -0.2635 0.5349
vn 0.8521 -0.2683 0.4493
vn 0.8844 -0.2597 0.3878
vn 0.9470 -0.2287 0.2254
vn 0.9555 -0.0980 0.2781
vn 0.1294 0.2681 -0.9546
vn 0.1201 0.1956 -0.9733
vn 0.1274 0.2728 -0.9536
vn 0.2000 0.5207 -0.8300
vn 0.2087 0.5113 -0.8337
vn 0.1159 0.1032 0.9879
vn 0.0589 0.0393 0.9975
vn 0.0174 0.0778 0.9968
vn 0.0165 0.0781 0.9968
usemtl Material
s off
f 20/1/1 19/2/1 17/3/1
f 14/4/2 13/5/2 25/6/2
f 24/7/3 26/8/3 6/9/3
f 25/6/4 12/10/4 27/11/4
f 26/8/5 27/11/5 8/12/5
f 15/13/6 20/1/6 17/3/6
f 15/13/7 18/14/7 20/1/7
f 32/15/8 33/16/8 31/17/8
f 31/17/9 3/18/9 11/19/9
f 35/20/10 37/21/10 34/22/10
f 11/19/11 9/23/11 10/24/11
f 13/25/12 14/26/12 5/27/12
f 40/28/13 1/29/13 38/30/13
f 41/31/14 16/32/14 42/33/14
f 41/31/15 42/33/15 44/34/15
f 16/32/16 49/35/16 42/33/16
f 43/36/17 48/37/17 47/38/17
f 47/38/18 48/37/18 46/39/18
f 48/37/19 10/40/19 46/39/19
f 45/41/20 2/42/20 1/29/20
f 14/26/21 55/43/21 5/27/21
f 55/43/22 15/44/22 56/45/22
f 18/46/23 15/44/23 14/26/23
f 15/44/24 17/47/24 56/45/24
f 19/2/25 20/1/25 21/48/25
f 17/3/26 19/2/26 23/49/26
f 9/50/27 46/39/27 10/40/27
f 18/14/28 14/4/28 25/6/28
f 23/49/29 22/51/29 24/7/29
f 24/7/30 6/9/30 23/49/30
f 6/9/31 26/8/31 7/52/31
f 7/52/32 26/8/32 8/12/32
f 25/6/33 13/5/33 12/10/33
f 27/11/34 12/10/34 8/12/34
f 30/53/35 28/54/35 32/15/35
f 30/53/36 32/15/36 31/17/36
f 34/22/37 33/16/37 29/55/37
f 33/16/38 34/22/38 31/17/38
f 31/17/39 34/22/39 3/18/39
f 34/22/40 7/56/40 8/57/40
f 34/22/41 8/57/41 12/58/41
f 11/19/42 3/18/42 9/23/42
f 35/20/43 13/25/43 37/21/43
f 35/20/44 12/59/44 13/25/44
f 40/28/45 41/31/45 1/29/45
f 23/49/46 21/48/46 22/51/46
f 42/33/47 49/35/47 44/34/47
f 47/38/48 41/31/48 43/36/48
f 10/40/49 48/37/49 11/60/49
f 2/42/50 9/50/50 3/61/50
f 45/41/51 9/50/51 2/42/51
f 51/62/52 53/63/52 40/64/52
f 56/45/53 50/65/53 52/66/53
f 50/65/54 23/49/54 29/55/54
f 39/67/55 5/27/55 54/68/55
f 54/68/56 5/27/56 55/43/56
f 14/26/57 15/44/57 55/43/57
f 54/68/58 55/43/58 4/69/58
f 56/45/59 17/47/59 50/65/59
f 24/7/60 22/51/60 25/6/60
f 43/36/61 44/34/61 49/70/61
f 2/71/62 3/18/62 36/72/62
f 3/18/63 34/22/63 37/21/63
f 36/72/64 3/18/64 37/21/64
f 34/22/65 12/59/65 35/20/65
f 38/73/66 1/74/66 36/72/66
f 1/74/67 2/75/67 36/72/67
f 36/72/68 37/21/68 38/73/68
f 37/21/69 13/25/69 5/27/69
f 38/73/70 37/21/70 39/67/70
f 5/27/71 39/67/71 37/21/71
f 38/30/72 39/67/72 4/76/72
f 39/67/73 54/68/73 4/76/73
f 4/76/74 40/28/74 38/30/74
f 9/50/75 45/41/75 46/39/75
f 33/16/76 32/15/76 28/54/76
f 28/54/77 29/55/77 33/16/77
f 29/55/78 6/77/78 34/22/78
f 6/77/79 7/56/79 34/22/79
f 23/49/80 19/2/80 21/48/80
f 46/39/81 45/41/81 47/38/81
f 45/41/82 1/29/82 41/31/82
f 47/38/83 45/41/83 41/31/83
f 41/31/84 44/34/84 43/36/84
f 16/32/85 41/31/85 53/63/85
f 41/31/86 40/64/86 53/63/86
f 40/64/87 4/69/87 51/62/87
f 4/69/88 55/43/88 56/45/88
f 52/66/89 4/69/89 56/45/89
f 52/66/90 51/62/90 4/69/90
f 29/55/91 28/54/91 51/62/91
f 28/54/92 30/78/92 51/62/92
f 30/78/93 49/35/93 53/63/93
f 49/35/94 16/32/94 53/63/94
f 53/63/95 51/62/95 30/78/95
f 51/62/96 52/66/96 29/55/96
f 52/66/97 50/65/97 29/55/97
f 50/65/98 17/3/98 23/49/98
f 23/49/99 6/9/99 29/55/99
f 22/51/100 21/48/100 18/14/100
f 21/48/101 20/1/101 18/14/101
f 18/14/102 25/6/102 22/51/102
f 25/6/103 27/11/103 26/8/103
f 26/8/104 24/7/104 25/6/104
f 49/70/105 30/53/105 11/60/105
f 30/53/106 31/79/106 11/60/106
f 11/60/107 48/37/107 43/36/107
f 49/70/108 11/60/108 43/36/108
