# Blender v2.90.0 OBJ File: 'untitledTestObj.blend'
# www.blender.org
mtllib TextObject1.mtl
o Cube
v -0.622169 1.000000 0.622169
v -0.682245 -1.000000 0.682245
v -0.622169 1.000000 -0.622169
v -0.682245 -1.000000 -0.682245
v 0.622169 1.000000 0.622169
v 0.682245 -1.000000 0.682245
v 0.622169 1.000000 -0.622169
v 0.682245 -1.000000 -0.682245
v -1.000000 1.000000 -1.000000
v 1.000000 1.000000 -1.000000
v -1.000000 1.000000 1.000000
v 1.000000 1.000000 1.000000
v -0.622169 2.168821 -0.622169
v 0.622169 2.168821 -0.622169
v -0.622169 2.168821 0.622169
v 0.622169 2.168821 0.622169
v 1.000000 -1.000000 1.000000
v 1.000000 -1.000000 -1.000000
v -1.000000 -1.000000 1.000000
v -1.000000 -1.000000 -1.000000
v 0.682245 -2.205625 0.682245
v 0.682245 -2.205625 -0.682245
v -0.682245 -2.205625 0.682245
v -0.682245 -2.205625 -0.682245
vt 0.827771 0.547229
vt 0.672229 0.547229
vt 0.672229 0.547229
vt 0.625000 0.750000
vt 0.375000 1.000000
vt 0.375000 0.750000
vt 0.625000 0.000000
vt 0.375000 0.250000
vt 0.375000 0.000000
vt 0.335281 0.710281
vt 0.335281 0.539719
vt 0.335281 0.539719
vt 0.625000 0.500000
vt 0.375000 0.500000
vt 0.625000 0.250000
vt 0.827771 0.702771
vt 0.672229 0.702771
vt 0.875000 0.750000
vt 0.875000 0.500000
vt 0.827771 0.547229
vt 0.672229 0.702771
vt 0.827771 0.702771
vt 0.164719 0.710281
vt 0.125000 0.500000
vt 0.164719 0.539719
vt 0.125000 0.750000
vt 0.164719 0.710281
vt 0.164719 0.539719
vt 0.335281 0.710281
vt 0.625000 1.000000
vn 0.0000 0.0000 1.0000
vn 0.0000 0.0000 -1.0000
vn 1.0000 0.0000 0.0000
vn -1.0000 0.0000 0.0000
vn 0.0000 1.0000 0.0000
vn 0.0000 -1.0000 0.0000
usemtl Material.001
s off
f 5/1/1 15/2/1 1/3/1
f 9/4/2 18/5/2 20/6/2
f 10/7/3 17/8/3 18/9/3
f 4/10/4 23/11/4 2/12/4
f 11/13/4 20/6/4 19/14/4
f 12/15/1 19/14/1 17/8/1
f 7/16/5 9/4/5 3/17/5
f 3/17/5 11/13/5 1/3/5
f 5/1/5 10/18/5 7/16/5
f 1/3/5 12/19/5 5/1/5
f 16/20/5 13/21/5 15/2/5
f 1/3/4 13/21/4 3/17/4
f 7/16/3 16/20/3 5/1/3
f 3/17/2 14/22/2 7/16/2
f 8/23/6 17/24/6 6/25/6
f 6/25/6 19/14/6 2/12/6
f 4/10/6 18/26/6 8/23/6
f 2/12/6 20/6/6 4/10/6
f 23/11/6 22/27/6 21/28/6
f 2/12/1 21/28/1 6/25/1
f 8/23/2 24/29/2 4/10/2
f 6/25/3 22/27/3 8/23/3
f 5/1/1 16/20/1 15/2/1
f 9/4/2 10/30/2 18/5/2
f 10/7/3 12/15/3 17/8/3
f 4/10/4 24/29/4 23/11/4
f 11/13/4 9/4/4 20/6/4
f 12/15/1 11/13/1 19/14/1
f 7/16/5 10/18/5 9/4/5
f 3/17/5 9/4/5 11/13/5
f 5/1/5 12/19/5 10/18/5
f 1/3/5 11/13/5 12/19/5
f 16/20/5 14/22/5 13/21/5
f 1/3/4 15/2/4 13/21/4
f 7/16/3 14/22/3 16/20/3
f 3/17/2 13/21/2 14/22/2
f 8/23/6 18/26/6 17/24/6
f 6/25/6 17/24/6 19/14/6
f 4/10/6 20/6/6 18/26/6
f 2/12/6 19/14/6 20/6/6
f 23/11/6 24/29/6 22/27/6
f 2/12/1 23/11/1 21/28/1
f 8/23/2 22/27/2 24/29/2
f 6/25/3 21/28/3 22/27/3
