# Blender v2.91.2 OBJ File: 'ice crystal.blend'
# www.blender.org
mtllib ice crystal.mtl
o Icosphere
v 0.000000 -3.416958 0.000000
v 0.723607 -0.724843 0.917665
v -0.276388 -0.724844 1.111942
v -0.894426 -0.871817 0.130646
v -0.276388 -0.643189 -1.111942
v 0.723607 -0.643189 -0.787018
v 0.276388 0.708513 0.785326
v -0.723607 0.447220 0.525725
v -0.723607 0.512543 -0.672702
v 0.276388 0.512543 -0.997626
v 0.894426 0.447216 0.000000
v 0.000000 2.404449 0.000000
v -0.162456 -1.928487 0.646972
v 0.425323 -1.993810 0.243688
v 0.262869 -0.803361 1.070304
v 0.850648 -0.950337 0.130646
v 0.425323 -2.108126 -0.309011
v -0.525730 -2.108123 0.000000
v -0.688189 -0.803360 0.891936
v -0.162456 -1.601871 -0.842942
v -0.688189 -0.721706 -0.761290
v 0.262869 -0.721707 -1.070304
v 0.951058 0.000000 0.309013
v 0.951058 0.000000 -0.309013
v -0.000000 0.179639 1.081654
v 0.587786 -0.081654 0.972325
v -0.951058 0.000000 0.309013
v -0.587786 -0.081654 0.972325
v -0.587786 -0.097985 -0.907001
v -0.951058 0.000000 -0.309013
v 0.587786 -0.097985 -0.907001
v -0.000000 -0.097985 -1.097985
v 0.688189 0.525736 0.499997
v -0.262869 0.787030 0.743688
v -0.850648 0.525736 0.000000
v -0.262869 0.591061 -0.955989
v 0.688189 0.591059 -0.646974
v 0.162456 1.144609 0.712296
v 0.525730 1.144606 0.212300
v -0.425323 1.144609 0.521312
v -0.425323 1.193601 -0.439658
v 0.162456 1.193601 -0.630642
vt 0.208826 0.964622
vt 0.067153 0.618760
vt 0.227565 0.599354
vt 0.164192 0.340889
vt 0.000099 0.355137
vt 0.338204 0.683575
vt 0.513840 0.692690
vt 0.511025 0.868485
vt 0.124356 0.140988
vt 0.303517 0.410132
vt 0.229580 0.386919
vt 0.339039 0.286365
vt 0.430789 0.506406
vt 0.351734 0.447497
vt 0.468148 0.403613
vt 0.598421 0.581034
vt 0.536820 0.551762
vt 0.597760 0.498889
vt 0.723942 0.677476
vt 0.649833 0.633410
vt 0.747826 0.585379
vt 0.240235 0.261283
vt 0.383331 0.363053
vt 0.531649 0.443359
vt 0.667384 0.540516
vt 0.870224 0.627216
vt 0.370524 0.177262
vt 0.278534 0.113128
vt 0.451339 0.136530
vt 0.470082 0.332485
vt 0.447903 0.240213
vt 0.524225 0.226755
vt 0.608459 0.416402
vt 0.537250 0.365052
vt 0.665312 0.313096
vt 0.741447 0.480156
vt 0.676413 0.438970
vt 0.778994 0.348563
vt 0.975872 0.547728
vt 0.830310 0.491740
vt 0.999901 0.323325
vt 0.767185 0.026061
vt 0.411491 0.000099
vt 0.192424 0.005654
vt 0.999901 0.695489
vt 0.810509 0.863204
vt 0.564118 0.984903
vn 0.5187 -0.2926 0.8034
vn 0.9069 -0.3431 0.2447
vn -0.7871 -0.3161 0.5297
vn -0.7873 -0.3163 -0.5292
vn 0.4535 -0.3417 -0.8232
vn 0.9705 -0.1394 0.1966
vn 0.0783 0.0094 0.9969
vn -0.9558 -0.1172 0.2695
vn -0.6379 -0.0763 -0.7663
vn 0.5297 -0.0543 -0.8464
vn 0.8610 0.1403 0.4888
vn -0.2253 0.1013 0.9690
vn -0.9979 -0.0648 0.0000
vn -0.3041 0.1781 -0.9359
vn 0.8440 0.0940 -0.5281
vn 0.6282 0.2853 0.7239
vn -0.5552 0.2425 0.7956
vn -0.8786 0.4445 -0.1746
vn 0.0011 0.4745 -0.8803
vn 0.8516 0.4991 -0.1605
vn 0.8805 0.3065 -0.3616
vn 0.7210 0.6365 -0.2737
vn 0.5180 0.4713 -0.7138
vn -0.2814 0.4133 -0.8660
vn -0.2494 0.5905 -0.7675
vn -0.5188 0.4713 -0.7132
vn -0.9452 0.3260 0.0166
vn -0.8347 0.5500 0.0280
vn -0.8845 0.3800 0.2705
vn -0.2766 0.4457 0.8514
vn -0.2817 0.4112 0.8669
vn -0.0542 0.1511 0.9870
vn 0.7414 0.4002 0.5387
vn 0.7277 0.4368 0.5287
vn 0.8774 0.3715 0.3036
vn 0.9309 0.2799 -0.2345
vn 0.8467 0.0754 -0.5267
vn 0.6130 0.1992 -0.7645
vn -0.0491 0.1836 -0.9818
vn -0.3081 0.0779 -0.9482
vn -0.5376 0.1952 -0.8203
vn -0.9402 0.2872 -0.1832
vn -0.9822 0.1876 0.0000
vn -0.9050 0.3304 0.2680
vn -0.6186 0.4081 0.6714
vn -0.3198 0.3512 0.8800
vn 0.0035 0.4874 0.8732
vn 0.6353 0.4059 0.6570
vn 0.8383 0.2416 0.4888
vn 0.8897 0.3304 0.3151
vn 0.3090 0.0164 -0.9509
vn 0.3078 0.0877 -0.9474
vn 0.0752 -0.0126 -0.9971
vn -0.8539 0.0097 -0.5203
vn -0.8534 0.0157 -0.5210
vn -0.9494 -0.1884 -0.2512
vn -0.8499 0.1951 0.4895
vn -0.8716 0.0672 0.4856
vn -0.4660 -0.0337 0.8842
vn 0.3138 0.3340 0.8888
vn 0.2009 0.0424 0.9787
vn 0.3166 -0.0138 0.9485
vn 0.9921 0.1256 0.0000
vn 0.9945 -0.1051 0.0000
vn 0.9611 -0.1930 -0.1976
vn 0.5325 -0.3586 -0.7667
vn 0.3985 -0.4051 -0.8228
vn 0.0356 -0.2661 -0.9633
vn -0.5902 -0.2823 -0.7563
vn -0.7376 -0.3894 -0.5517
vn -0.9330 -0.2510 -0.2580
vn -0.9132 -0.3013 0.2745
vn -0.7189 -0.4511 0.5289
vn -0.3839 -0.3641 0.8485
vn 0.9400 -0.2625 -0.2180
vn 0.9262 -0.3692 0.0764
vn 0.9534 -0.2954 0.0611
vn 0.0198 -0.3586 0.9333
vn 0.4668 -0.4605 0.7550
vn 0.3479 -0.5022 0.7917
usemtl Material
s off
f 1/1/1 14/2/1 13/3/1
f 2/4/2 14/2/2 16/5/2
f 1/1/3 13/3/3 18/6/3
f 1/1/4 18/6/4 20/7/4
f 1/1/5 20/7/5 17/8/5
f 2/4/6 16/5/6 23/9/6
f 3/10/7 15/11/7 25/12/7
f 4/13/8 19/14/8 27/15/8
f 5/16/9 21/17/9 29/18/9
f 6/19/10 22/20/10 31/21/10
f 2/4/11 23/9/11 26/22/11
f 3/10/12 25/12/12 28/23/12
f 4/13/13 27/15/13 30/24/13
f 5/16/14 29/18/14 32/25/14
f 6/19/15 31/21/15 24/26/15
f 7/27/16 33/28/16 38/29/16
f 8/30/17 34/31/17 40/32/17
f 9/33/18 35/34/18 41/35/18
f 10/36/19 36/37/19 42/38/19
f 11/39/20 37/40/20 39/41/20
f 39/41/21 42/38/21 12/42/21
f 39/41/22 37/40/22 42/38/22
f 37/40/23 10/36/23 42/38/23
f 42/38/24 41/35/24 12/42/24
f 42/38/25 36/37/25 41/35/25
f 36/37/26 9/33/26 41/35/26
f 41/35/27 40/32/27 12/42/27
f 41/35/28 35/34/28 40/32/28
f 35/34/29 8/30/29 40/32/29
f 40/32/30 38/29/30 12/42/30
f 40/32/31 34/31/31 38/29/31
f 34/31/32 7/27/32 38/29/32
f 38/29/33 39/43/33 12/42/33
f 38/29/34 33/28/34 39/43/34
f 33/28/35 11/44/35 39/43/35
f 24/26/36 37/40/36 11/39/36
f 24/26/37 31/21/37 37/40/37
f 31/21/38 10/36/38 37/40/38
f 32/25/39 36/37/39 10/36/39
f 32/25/40 29/18/40 36/37/40
f 29/18/41 9/33/41 36/37/41
f 30/24/42 35/34/42 9/33/42
f 30/24/43 27/15/43 35/34/43
f 27/15/44 8/30/44 35/34/44
f 28/23/45 34/31/45 8/30/45
f 28/23/46 25/12/46 34/31/46
f 25/12/47 7/27/47 34/31/47
f 26/22/48 33/28/48 7/27/48
f 26/22/49 23/9/49 33/28/49
f 23/9/50 11/44/50 33/28/50
f 31/21/51 32/25/51 10/36/51
f 31/21/52 22/20/52 32/25/52
f 22/20/53 5/16/53 32/25/53
f 29/18/54 30/24/54 9/33/54
f 29/18/55 21/17/55 30/24/55
f 21/17/56 4/13/56 30/24/56
f 27/15/57 28/23/57 8/30/57
f 27/15/58 19/14/58 28/23/58
f 19/14/59 3/10/59 28/23/59
f 25/12/60 26/22/60 7/27/60
f 25/12/61 15/11/61 26/22/61
f 15/11/62 2/4/62 26/22/62
f 23/45/63 24/26/63 11/39/63
f 23/45/64 16/46/64 24/26/64
f 16/46/65 6/19/65 24/26/65
f 17/8/66 22/20/66 6/19/66
f 17/8/67 20/7/67 22/20/67
f 20/7/68 5/16/68 22/20/68
f 20/7/69 21/17/69 5/16/69
f 20/7/70 18/6/70 21/17/70
f 18/6/71 4/13/71 21/17/71
f 18/6/72 19/14/72 4/13/72
f 18/6/73 13/3/73 19/14/73
f 13/3/74 3/10/74 19/14/74
f 16/46/75 17/8/75 6/19/75
f 16/46/76 14/47/76 17/8/76
f 14/47/77 1/1/77 17/8/77
f 13/3/78 15/11/78 3/10/78
f 13/3/79 14/2/79 15/11/79
f 14/2/80 2/4/80 15/11/80
