# Blender v2.90.0 OBJ File: ''
# www.blender.org
mtllib Bush.mtl
o Bush_Icosphere.002
v 0.000000 -0.039465 0.000000
v 0.272976 -0.006554 0.198326
v -0.104265 -0.006248 0.320901
v -0.337416 -0.006554 0.000000
v -0.104265 -0.006248 -0.320901
v 0.272976 -0.006554 -0.198326
v 0.104265 0.391473 0.320901
v -0.272976 0.391472 0.198326
v -0.272976 0.391472 -0.198326
v 0.104265 0.391473 -0.320901
v 0.337416 0.391471 0.000000
v 0.000000 0.600005 0.000000
v -0.061285 -0.026447 0.188620
v 0.160450 -0.026447 0.116572
v 0.099165 -0.009658 0.305194
v 0.320901 -0.009863 0.000000
v 0.160450 -0.026447 -0.116572
v -0.198328 -0.026447 0.000000
v -0.259614 -0.009863 0.188620
v -0.061285 -0.026447 -0.188620
v -0.259614 -0.009863 -0.188620
v 0.099165 -0.009658 -0.305194
v 0.358780 0.222762 0.116573
v 0.358780 0.222762 -0.116573
v 0.000000 0.222762 0.377243
v 0.221738 0.222762 0.305196
v -0.358780 0.222762 0.116573
v -0.221738 0.222762 0.305196
v -0.221738 0.222762 -0.305196
v -0.358780 0.222762 -0.116573
v 0.221738 0.222762 -0.305196
v 0.000000 0.222762 -0.377243
v 0.259614 0.421092 0.188620
v -0.099165 0.421093 0.305194
v -0.320901 0.421092 0.000000
v -0.099165 0.421093 -0.305194
v 0.259614 0.421092 -0.188620
v 0.061285 0.543665 0.188620
v 0.198328 0.543664 0.000000
v -0.160450 0.543665 0.116572
v -0.160450 0.543665 -0.116572
v 0.061285 0.543665 -0.188620
v -0.661260 -0.050825 0.480639
v -0.144320 0.011498 0.856212
v -0.858709 0.012079 1.088335
v -1.300230 0.011499 0.480639
v -0.858709 0.012079 -0.127058
v -0.144320 0.011498 0.105065
v -0.463810 0.765249 1.088335
v -1.178199 0.765249 0.856212
v -1.178199 0.765249 0.105065
v -0.463810 0.765249 -0.127058
v -0.022289 0.765247 0.480639
v -0.661260 1.160151 0.480639
v -0.777317 -0.026173 0.837831
v -0.357413 -0.026173 0.701394
v -0.473468 0.005620 1.058590
v -0.053564 0.005232 0.480639
v -0.357413 -0.026173 0.259883
v -1.036837 -0.026173 0.480639
v -1.152896 0.005232 0.837832
v -0.777317 -0.026173 0.123446
v -1.152896 0.005232 0.123445
v -0.473468 0.005620 -0.097313
v 0.018168 0.445759 0.701395
v 0.018168 0.445759 0.259883
v -0.661260 0.445759 1.195030
v -0.241350 0.445759 1.058594
v -1.340688 0.445759 0.701395
v -1.081169 0.445759 1.058594
v -1.081169 0.445759 -0.097316
v -1.340688 0.445759 0.259883
v -0.241350 0.445759 -0.097316
v -0.661260 0.445759 -0.233753
v -0.169623 0.821341 0.837832
v -0.849051 0.821342 1.058590
v -1.268955 0.821341 0.480639
v -0.849051 0.821342 -0.097313
v -0.169623 0.821341 0.123445
v -0.545203 1.053460 0.837831
v -0.285683 1.053458 0.480639
v -0.965107 1.053460 0.701394
v -0.965107 1.053460 0.259883
v -0.545203 1.053460 0.123446
v -0.661260 -0.041922 -0.477720
v -0.217313 0.011602 -0.155178
v -0.830829 0.012100 0.044169
v -1.210007 0.011602 -0.477720
v -0.830829 0.012100 -0.999609
v -0.217313 0.011602 -0.800263
v -0.491690 0.658922 0.044169
v -1.105206 0.658922 -0.155178
v -1.105206 0.658922 -0.800263
v -0.491690 0.658922 -0.999609
v -0.112512 0.658920 -0.477720
v -0.661260 0.998063 -0.477720
v -0.760929 -0.020751 -0.170964
v -0.400316 -0.020751 -0.288136
v -0.499985 0.006553 0.018624
v -0.139371 0.006220 -0.477720
v -0.400316 -0.020751 -0.667304
v -0.983805 -0.020750 -0.477720
v -1.083477 0.006220 -0.170963
v -0.760929 -0.020751 -0.784477
v -1.083477 0.006220 -0.784478
v -0.499985 0.006553 -0.974064
v -0.077768 0.384544 -0.288135
v -0.077768 0.384544 -0.667305
v -0.661260 0.384544 0.135799
v -0.300642 0.384544 0.018627
v -1.244751 0.384544 -0.288135
v -1.021877 0.384544 0.018627
v -1.021877 0.384544 -0.974067
v -1.244751 0.384544 -0.667305
v -0.300642 0.384544 -0.974067
v -0.661260 0.384544 -1.091239
v -0.239042 0.707093 -0.170963
v -0.822535 0.707094 0.018624
v -1.183148 0.707093 -0.477720
v -0.822535 0.707094 -0.974064
v -0.239042 0.707093 -0.784478
v -0.561590 0.906437 -0.170964
v -0.338715 0.906435 -0.477720
v -0.922203 0.906437 -0.288136
v -0.922203 0.906437 -0.667304
v -0.561590 0.906437 -0.784477
vt 0.818181 0.000000
vt 0.772726 0.078731
vt 0.863635 0.078731
vt 0.727272 0.157461
vt 0.681818 0.078731
vt 0.636363 0.157461
vt 0.090909 0.000000
vt 0.045454 0.078731
vt 0.136363 0.078731
vt 0.272727 0.000000
vt 0.227273 0.078731
vt 0.318182 0.078731
vt 0.454545 0.000000
vt 0.409090 0.078731
vt 0.500000 0.078731
vt 0.681818 0.236191
vt 0.909090 0.157461
vt 0.818181 0.157461
vt 0.863635 0.236191
vt 0.181818 0.157461
vt 0.090909 0.157461
vt 0.136363 0.236191
vt 0.363636 0.157461
vt 0.272727 0.157461
vt 0.318182 0.236191
vt 0.545454 0.157461
vt 0.454545 0.157461
vt 0.500000 0.236191
vt 0.772726 0.236191
vt 0.954545 0.236191
vt 0.227273 0.236191
vt 0.409090 0.236191
vt 0.590909 0.236191
vt 0.818181 0.314921
vt 0.727272 0.314921
vt 0.772726 0.393651
vt 1.000000 0.314921
vt 0.909091 0.314921
vt 0.954545 0.393651
vt 0.272727 0.314921
vt 0.181818 0.314921
vt 0.227273 0.393651
vt 0.454545 0.314921
vt 0.363636 0.314921
vt 0.409090 0.393651
vt 0.636363 0.314921
vt 0.545454 0.314921
vt 0.590909 0.393651
vt 0.500000 0.393651
vt 0.545454 0.472382
vt 0.318182 0.393651
vt 0.363636 0.472382
vt 0.136363 0.393651
vt 0.181818 0.472382
vt 0.090909 0.314921
vt 0.863635 0.393651
vt 0.909090 0.472382
vt 0.681818 0.393651
vt 0.727272 0.472382
vt 0.045454 0.236191
vt 0.000000 0.157461
vt 0.590909 0.078731
vt 0.636363 0.000000
vt 0.818181 0.000000
vt 0.772726 0.078731
vt 0.863635 0.078731
vt 0.727272 0.157461
vt 0.681818 0.078731
vt 0.636363 0.157461
vt 0.090909 0.000000
vt 0.045454 0.078731
vt 0.136363 0.078731
vt 0.272727 0.000000
vt 0.227273 0.078731
vt 0.318182 0.078731
vt 0.454545 0.000000
vt 0.409090 0.078731
vt 0.500000 0.078731
vt 0.681818 0.236191
vt 0.909090 0.157461
vt 0.818181 0.157461
vt 0.863635 0.236191
vt 0.181818 0.157461
vt 0.090909 0.157461
vt 0.136363 0.236191
vt 0.363636 0.157461
vt 0.272727 0.157461
vt 0.318182 0.236191
vt 0.545454 0.157461
vt 0.454545 0.157461
vt 0.500000 0.236191
vt 0.772726 0.236191
vt 0.954545 0.236191
vt 0.227273 0.236191
vt 0.409090 0.236191
vt 0.590909 0.236191
vt 0.818181 0.314921
vt 0.727272 0.314921
vt 0.772726 0.393651
vt 1.000000 0.314921
vt 0.909091 0.314921
vt 0.954545 0.393651
vt 0.272727 0.314921
vt 0.181818 0.314921
vt 0.227273 0.393651
vt 0.454545 0.314921
vt 0.363636 0.314921
vt 0.409090 0.393651
vt 0.636363 0.314921
vt 0.545454 0.314921
vt 0.590909 0.393651
vt 0.500000 0.393651
vt 0.545454 0.472382
vt 0.318182 0.393651
vt 0.363636 0.472382
vt 0.136363 0.393651
vt 0.181818 0.472382
vt 0.090909 0.314921
vt 0.863635 0.393651
vt 0.909090 0.472382
vt 0.681818 0.393651
vt 0.727272 0.472382
vt 0.045454 0.236191
vt 0.000000 0.157461
vt 0.590909 0.078731
vt 0.636363 0.000000
vt 0.818181 0.000000
vt 0.772726 0.078731
vt 0.863635 0.078731
vt 0.727272 0.157461
vt 0.681818 0.078731
vt 0.636363 0.157461
vt 0.090909 0.000000
vt 0.045454 0.078731
vt 0.136363 0.078731
vt 0.272727 0.000000
vt 0.227273 0.078731
vt 0.318182 0.078731
vt 0.454545 0.000000
vt 0.409090 0.078731
vt 0.500000 0.078731
vt 0.681818 0.236191
vt 0.909090 0.157461
vt 0.818181 0.157461
vt 0.863635 0.236191
vt 0.181818 0.157461
vt 0.090909 0.157461
vt 0.136363 0.236191
vt 0.363636 0.157461
vt 0.272727 0.157461
vt 0.318182 0.236191
vt 0.545454 0.157461
vt 0.454545 0.157461
vt 0.500000 0.236191
vt 0.772726 0.236191
vt 0.954545 0.236191
vt 0.227273 0.236191
vt 0.409090 0.236191
vt 0.590909 0.236191
vt 0.818181 0.314921
vt 0.727272 0.314921
vt 0.772726 0.393651
vt 1.000000 0.314921
vt 0.909091 0.314921
vt 0.954545 0.393651
vt 0.272727 0.314921
vt 0.181818 0.314921
vt 0.227273 0.393651
vt 0.454545 0.314921
vt 0.363636 0.314921
vt 0.409090 0.393651
vt 0.636363 0.314921
vt 0.545454 0.314921
vt 0.590909 0.393651
vt 0.500000 0.393651
vt 0.545454 0.472382
vt 0.318182 0.393651
vt 0.363636 0.472382
vt 0.136363 0.393651
vt 0.181818 0.472382
vt 0.090909 0.314921
vt 0.863635 0.393651
vt 0.909090 0.472382
vt 0.681818 0.393651
vt 0.727272 0.472382
vt 0.045454 0.236191
vt 0.000000 0.157461
vt 0.590909 0.078731
vt 0.636363 0.000000
vn 0.0250 -0.9967 0.0769
vn 0.1385 -0.9891 0.0500
vn -0.0654 -0.9967 0.0475
vn -0.0654 -0.9967 -0.0475
vn 0.0250 -0.9967 -0.0769
vn 0.9355 -0.2678 0.2305
vn 0.0697 -0.2681 0.9609
vn -0.8923 -0.2678 0.3634
vn -0.6210 -0.2680 -0.7366
vn 0.5081 -0.2680 -0.8186
vn 0.8055 -0.0928 0.5852
vn -0.3077 -0.0929 0.9469
vn -0.9957 -0.0928 0.0000
vn -0.3077 -0.0929 -0.9469
vn 0.8055 -0.0928 -0.5852
vn 0.4089 0.6617 0.6284
vn -0.4713 0.6617 0.5831
vn -0.7002 0.6617 -0.2680
vn 0.0385 0.6617 -0.7488
vn 0.7240 0.6617 -0.1947
vn 0.2680 0.9435 -0.1947
vn 0.4911 0.7947 -0.3568
vn 0.4089 0.6617 -0.6284
vn -0.1024 0.9435 -0.3151
vn -0.1876 0.7947 -0.5773
vn -0.4713 0.6617 -0.5831
vn -0.3313 0.9435 0.0000
vn -0.6071 0.7947 0.0000
vn -0.7002 0.6617 0.2680
vn -0.1024 0.9435 0.3151
vn -0.1876 0.7947 0.5773
vn 0.0385 0.6617 0.7488
vn 0.2680 0.9435 0.1947
vn 0.4911 0.7947 0.3568
vn 0.7240 0.6617 0.1947
vn 0.8897 0.3304 -0.3151
vn 0.7947 0.1876 -0.5773
vn 0.5746 0.3304 -0.7488
vn -0.0247 0.3304 -0.9435
vn -0.3035 0.1876 -0.9342
vn -0.5346 0.3304 -0.7779
vn -0.9050 0.3304 -0.2680
vn -0.9822 0.1876 0.0000
vn -0.9050 0.3304 0.2680
vn -0.5346 0.3304 0.7779
vn -0.3035 0.1876 0.9342
vn -0.0247 0.3304 0.9435
vn 0.5746 0.3304 0.7488
vn 0.7947 0.1876 0.5773
vn 0.8897 0.3304 0.3151
vn 0.3066 0.1256 -0.9435
vn 0.3050 -0.1609 -0.9387
vn 0.0697 -0.2681 -0.9609
vn -0.8026 0.1256 -0.5831
vn -0.7985 -0.1607 -0.5801
vn -0.8923 -0.2678 -0.3634
vn -0.8026 0.1256 0.5831
vn -0.7985 -0.1607 0.5801
vn -0.6210 -0.2680 0.7366
vn 0.3066 0.1256 0.9435
vn 0.3050 -0.1609 0.9387
vn 0.5081 -0.2680 0.8186
vn 0.9921 0.1256 0.0000
vn 0.9870 -0.1607 0.0000
vn 0.9355 -0.2678 -0.2305
vn 0.0897 -0.9891 -0.1172
vn 0.0322 -0.9946 -0.0990
vn -0.0050 -0.9888 -0.1493
vn -0.0827 -0.9888 -0.1241
vn -0.0832 -0.9947 -0.0604
vn -0.1415 -0.9891 -0.0410
vn -0.1415 -0.9891 0.0410
vn -0.0832 -0.9947 0.0604
vn -0.0827 -0.9888 0.1241
vn 0.1385 -0.9891 -0.0500
vn 0.1028 -0.9947 0.0000
vn 0.0809 -0.9967 0.0000
vn -0.0050 -0.9888 0.1493
vn 0.0322 -0.9946 0.0990
vn 0.0897 -0.9891 0.1172
usemtl Material.001
s off
f 1/1/1 14/2/1 13/3/1
f 2/4/2 14/5/2 16/6/2
f 1/7/3 13/8/3 18/9/3
f 1/10/4 18/11/4 20/12/4
f 1/13/5 20/14/5 17/15/5
f 2/4/6 16/6/6 23/16/6
f 3/17/7 15/18/7 25/19/7
f 4/20/8 19/21/8 27/22/8
f 5/23/9 21/24/9 29/25/9
f 6/26/10 22/27/10 31/28/10
f 2/4/11 23/16/11 26/29/11
f 3/17/12 25/19/12 28/30/12
f 4/20/13 27/22/13 30/31/13
f 5/23/14 29/25/14 32/32/14
f 6/26/15 31/28/15 24/33/15
f 7/34/16 33/35/16 38/36/16
f 8/37/17 34/38/17 40/39/17
f 9/40/18 35/41/18 41/42/18
f 10/43/19 36/44/19 42/45/19
f 11/46/20 37/47/20 39/48/20
f 39/48/21 42/49/21 12/50/21
f 39/48/22 37/47/22 42/49/22
f 37/47/23 10/43/23 42/49/23
f 42/45/24 41/51/24 12/52/24
f 42/45/25 36/44/25 41/51/25
f 36/44/26 9/40/26 41/51/26
f 41/42/27 40/53/27 12/54/27
f 41/42/28 35/41/28 40/53/28
f 35/41/29 8/55/29 40/53/29
f 40/39/30 38/56/30 12/57/30
f 40/39/31 34/38/31 38/56/31
f 34/38/32 7/34/32 38/56/32
f 38/36/33 39/58/33 12/59/33
f 38/36/34 33/35/34 39/58/34
f 33/35/35 11/46/35 39/58/35
f 24/33/36 37/47/36 11/46/36
f 24/33/37 31/28/37 37/47/37
f 31/28/38 10/43/38 37/47/38
f 32/32/39 36/44/39 10/43/39
f 32/32/40 29/25/40 36/44/40
f 29/25/41 9/40/41 36/44/41
f 30/31/42 35/41/42 9/40/42
f 30/31/43 27/22/43 35/41/43
f 27/22/44 8/55/44 35/41/44
f 28/30/45 34/38/45 8/37/45
f 28/30/46 25/19/46 34/38/46
f 25/19/47 7/34/47 34/38/47
f 26/29/48 33/35/48 7/34/48
f 26/29/49 23/16/49 33/35/49
f 23/16/50 11/46/50 33/35/50
f 31/28/51 32/32/51 10/43/51
f 31/28/52 22/27/52 32/32/52
f 22/27/53 5/23/53 32/32/53
f 29/25/54 30/31/54 9/40/54
f 29/25/55 21/24/55 30/31/55
f 21/24/56 4/20/56 30/31/56
f 27/22/57 28/60/57 8/55/57
f 27/22/58 19/21/58 28/60/58
f 19/21/59 3/61/59 28/60/59
f 25/19/60 26/29/60 7/34/60
f 25/19/61 15/18/61 26/29/61
f 15/18/62 2/4/62 26/29/62
f 23/16/63 24/33/63 11/46/63
f 23/16/64 16/6/64 24/33/64
f 16/6/65 6/26/65 24/33/65
f 17/15/66 22/27/66 6/26/66
f 17/15/67 20/14/67 22/27/67
f 20/14/68 5/23/68 22/27/68
f 20/12/69 21/24/69 5/23/69
f 20/12/70 18/11/70 21/24/70
f 18/11/71 4/20/71 21/24/71
f 18/9/72 19/21/72 4/20/72
f 18/9/73 13/8/73 19/21/73
f 13/8/74 3/61/74 19/21/74
f 16/6/75 17/62/75 6/26/75
f 16/6/76 14/5/76 17/62/76
f 14/5/77 1/63/77 17/62/77
f 13/3/78 15/18/78 3/17/78
f 13/3/79 14/2/79 15/18/79
f 14/2/80 2/4/80 15/18/80
f 43/64/1 56/65/1 55/66/1
f 44/67/2 56/68/2 58/69/2
f 43/70/3 55/71/3 60/72/3
f 43/73/4 60/74/4 62/75/4
f 43/76/5 62/77/5 59/78/5
f 44/67/6 58/69/6 65/79/6
f 45/80/7 57/81/7 67/82/7
f 46/83/8 61/84/8 69/85/8
f 47/86/9 63/87/9 71/88/9
f 48/89/10 64/90/10 73/91/10
f 44/67/11 65/79/11 68/92/11
f 45/80/12 67/82/12 70/93/12
f 46/83/13 69/85/13 72/94/13
f 47/86/14 71/88/14 74/95/14
f 48/89/15 73/91/15 66/96/15
f 49/97/16 75/98/16 80/99/16
f 50/100/17 76/101/17 82/102/17
f 51/103/18 77/104/18 83/105/18
f 52/106/19 78/107/19 84/108/19
f 53/109/20 79/110/20 81/111/20
f 81/111/21 84/112/21 54/113/21
f 81/111/22 79/110/22 84/112/22
f 79/110/23 52/106/23 84/112/23
f 84/108/24 83/114/24 54/115/24
f 84/108/25 78/107/25 83/114/25
f 78/107/26 51/103/26 83/114/26
f 83/105/27 82/116/27 54/117/27
f 83/105/28 77/104/28 82/116/28
f 77/104/29 50/118/29 82/116/29
f 82/102/30 80/119/30 54/120/30
f 82/102/31 76/101/31 80/119/31
f 76/101/32 49/97/32 80/119/32
f 80/99/33 81/121/33 54/122/33
f 80/99/34 75/98/34 81/121/34
f 75/98/35 53/109/35 81/121/35
f 66/96/36 79/110/36 53/109/36
f 66/96/37 73/91/37 79/110/37
f 73/91/38 52/106/38 79/110/38
f 74/95/39 78/107/39 52/106/39
f 74/95/40 71/88/40 78/107/40
f 71/88/41 51/103/41 78/107/41
f 72/94/42 77/104/42 51/103/42
f 72/94/43 69/85/43 77/104/43
f 69/85/44 50/118/44 77/104/44
f 70/93/45 76/101/45 50/100/45
f 70/93/46 67/82/46 76/101/46
f 67/82/47 49/97/47 76/101/47
f 68/92/48 75/98/48 49/97/48
f 68/92/49 65/79/49 75/98/49
f 65/79/50 53/109/50 75/98/50
f 73/91/51 74/95/51 52/106/51
f 73/91/52 64/90/52 74/95/52
f 64/90/53 47/86/53 74/95/53
f 71/88/54 72/94/54 51/103/54
f 71/88/55 63/87/55 72/94/55
f 63/87/56 46/83/56 72/94/56
f 69/85/57 70/123/57 50/118/57
f 69/85/58 61/84/58 70/123/58
f 61/84/59 45/124/59 70/123/59
f 67/82/60 68/92/60 49/97/60
f 67/82/61 57/81/61 68/92/61
f 57/81/62 44/67/62 68/92/62
f 65/79/63 66/96/63 53/109/63
f 65/79/64 58/69/64 66/96/64
f 58/69/65 48/89/65 66/96/65
f 59/78/66 64/90/66 48/89/66
f 59/78/67 62/77/67 64/90/67
f 62/77/68 47/86/68 64/90/68
f 62/75/69 63/87/69 47/86/69
f 62/75/70 60/74/70 63/87/70
f 60/74/71 46/83/71 63/87/71
f 60/72/72 61/84/72 46/83/72
f 60/72/73 55/71/73 61/84/73
f 55/71/74 45/124/74 61/84/74
f 58/69/75 59/125/75 48/89/75
f 58/69/76 56/68/76 59/125/76
f 56/68/77 43/126/77 59/125/77
f 55/66/78 57/81/78 45/80/78
f 55/66/79 56/65/79 57/81/79
f 56/65/80 44/67/80 57/81/80
f 85/127/1 98/128/1 97/129/1
f 86/130/2 98/131/2 100/132/2
f 85/133/3 97/134/3 102/135/3
f 85/136/4 102/137/4 104/138/4
f 85/139/5 104/140/5 101/141/5
f 86/130/6 100/132/6 107/142/6
f 87/143/7 99/144/7 109/145/7
f 88/146/8 103/147/8 111/148/8
f 89/149/9 105/150/9 113/151/9
f 90/152/10 106/153/10 115/154/10
f 86/130/11 107/142/11 110/155/11
f 87/143/12 109/145/12 112/156/12
f 88/146/13 111/148/13 114/157/13
f 89/149/14 113/151/14 116/158/14
f 90/152/15 115/154/15 108/159/15
f 91/160/16 117/161/16 122/162/16
f 92/163/17 118/164/17 124/165/17
f 93/166/18 119/167/18 125/168/18
f 94/169/19 120/170/19 126/171/19
f 95/172/20 121/173/20 123/174/20
f 123/174/21 126/175/21 96/176/21
f 123/174/22 121/173/22 126/175/22
f 121/173/23 94/169/23 126/175/23
f 126/171/24 125/177/24 96/178/24
f 126/171/25 120/170/25 125/177/25
f 120/170/26 93/166/26 125/177/26
f 125/168/27 124/179/27 96/180/27
f 125/168/28 119/167/28 124/179/28
f 119/167/29 92/181/29 124/179/29
f 124/165/30 122/182/30 96/183/30
f 124/165/31 118/164/31 122/182/31
f 118/164/32 91/160/32 122/182/32
f 122/162/33 123/184/33 96/185/33
f 122/162/34 117/161/34 123/184/34
f 117/161/35 95/172/35 123/184/35
f 108/159/36 121/173/36 95/172/36
f 108/159/37 115/154/37 121/173/37
f 115/154/38 94/169/38 121/173/38
f 116/158/39 120/170/39 94/169/39
f 116/158/40 113/151/40 120/170/40
f 113/151/41 93/166/41 120/170/41
f 114/157/42 119/167/42 93/166/42
f 114/157/43 111/148/43 119/167/43
f 111/148/44 92/181/44 119/167/44
f 112/156/45 118/164/45 92/163/45
f 112/156/46 109/145/46 118/164/46
f 109/145/47 91/160/47 118/164/47
f 110/155/48 117/161/48 91/160/48
f 110/155/49 107/142/49 117/161/49
f 107/142/50 95/172/50 117/161/50
f 115/154/51 116/158/51 94/169/51
f 115/154/52 106/153/52 116/158/52
f 106/153/53 89/149/53 116/158/53
f 113/151/54 114/157/54 93/166/54
f 113/151/55 105/150/55 114/157/55
f 105/150/56 88/146/56 114/157/56
f 111/148/57 112/186/57 92/181/57
f 111/148/58 103/147/58 112/186/58
f 103/147/59 87/187/59 112/186/59
f 109/145/60 110/155/60 91/160/60
f 109/145/61 99/144/61 110/155/61
f 99/144/62 86/130/62 110/155/62
f 107/142/63 108/159/63 95/172/63
f 107/142/64 100/132/64 108/159/64
f 100/132/65 90/152/65 108/159/65
f 101/141/66 106/153/66 90/152/66
f 101/141/67 104/140/67 106/153/67
f 104/140/68 89/149/68 106/153/68
f 104/138/69 105/150/69 89/149/69
f 104/138/70 102/137/70 105/150/70
f 102/137/71 88/146/71 105/150/71
f 102/135/72 103/147/72 88/146/72
f 102/135/73 97/134/73 103/147/73
f 97/134/74 87/187/74 103/147/74
f 100/132/75 101/188/75 90/152/75
f 100/132/76 98/131/76 101/188/76
f 98/131/77 85/189/77 101/188/77
f 97/129/78 99/144/78 87/143/78
f 97/129/79 98/128/79 99/144/79
f 98/128/80 86/130/80 99/144/80
