# Blender v2.90.0 OBJ File: 'Island1Object.blend'
# www.blender.org
mtllib Island1ObjectTex.mtl
o Cube
v 4.762340 2.460873 -4.720010
v 4.374760 1.293953 -4.390279
v 5.397281 2.460873 4.508363
v 4.965543 1.293953 4.196295
v -5.016316 2.460873 -4.677681
v -4.723827 1.293953 -4.350893
v -5.524270 2.460873 4.508363
v -5.196454 1.293953 4.196295
v -6.574948 1.293953 0.001472
v 6.286200 2.460873 0.000000
v -7.005800 2.460873 0.000000
v 5.792641 1.293953 0.001472
v -0.056377 1.293953 -5.690003
v 0.000000 2.460873 6.709494
v -0.056377 1.293953 6.244345
v 0.000000 2.460873 -6.116882
v -0.056377 1.293953 0.001472
v 0.000000 2.460873 0.000000
v -6.574948 1.293953 0.001472
v -7.005800 2.460873 0.000000
vt 0.178601 0.175435
vt 0.246255 0.008961
vt 0.345187 0.123770
vt 0.769162 0.129213
vt 0.684321 0.019374
vt 0.776935 0.025549
vt 0.986085 0.033611
vt 0.893200 0.131845
vt 0.893200 0.039334
vt 0.518169 0.176118
vt 0.369113 0.266409
vt 0.358178 0.126498
vt 0.677892 0.146349
vt 0.775454 0.040121
vt 0.771190 0.147187
vt 0.781586 0.144221
vt 0.879037 0.031005
vt 0.874648 0.145728
vt 0.775454 0.262768
vt 0.594057 0.320112
vt 0.664029 0.221354
vt 0.984444 0.261134
vt 0.891439 0.143389
vt 0.984444 0.146905
vt 0.022250 0.091811
vt 0.026727 0.222536
vt 0.099584 0.325365
vt 0.228990 0.325365
vt 0.668329 0.095805
vt 0.572103 0.015640
vt 0.879037 0.266379
vt 0.453193 0.016236
vt 0.572103 0.015640
vt 0.776935 0.269318
vt 0.675968 0.130786
vt 0.333801 0.269448
vt 0.122443 0.008341
vt 0.986085 0.133036
vt 0.469774 0.320112
vt 0.682474 0.031280
vt 0.786303 0.020924
vt 0.682474 0.270569
vt 0.891439 0.266156
vt 0.122443 0.008341
vt 0.786303 0.273891
vt 0.684321 0.281363
vn 0.0000 1.0000 0.0000
vn -0.3491 -0.3324 0.8762
vn -0.8712 -0.3221 -0.3705
vn 0.0000 -1.0000 0.0000
vn 0.9063 -0.3831 0.1787
vn 0.2644 -0.3426 -0.9015
vn 0.8827 -0.3737 -0.2850
vn -0.8966 -0.3307 0.2946
vn -0.2612 -0.3205 -0.9105
vn 0.3521 -0.3612 0.8634
usemtl Material
s off
f 18/1/1 7/2/1 14/3/1
f 15/4/2 7/5/2 8/6/2
f 20/7/3 6/8/3 19/9/3
f 17/10/4 4/11/4 15/12/4
f 10/13/5 4/14/5 12/15/5
f 16/16/6 2/17/6 13/18/6
f 2/19/7 10/13/7 12/15/7
f 2/20/4 17/10/4 13/21/4
f 8/22/8 11/23/8 9/24/8
f 5/25/1 18/1/1 16/26/1
f 1/27/1 18/1/1 10/28/1
f 6/29/4 17/10/4 19/30/4
f 6/31/9 16/16/9 13/18/9
f 17/10/4 8/32/4 9/33/4
f 4/34/10 14/35/10 15/4/10
f 18/1/1 3/36/1 10/28/1
f 18/1/1 11/37/1 7/2/1
f 15/4/2 14/35/2 7/5/2
f 20/7/3 5/38/3 6/8/3
f 17/10/4 12/39/4 4/11/4
f 10/13/5 3/40/5 4/14/5
f 16/16/6 1/41/6 2/17/6
f 2/19/7 1/42/7 10/13/7
f 2/20/4 12/39/4 17/10/4
f 8/22/8 7/43/8 11/23/8
f 5/25/1 20/44/1 18/1/1
f 1/27/1 16/26/1 18/1/1
f 6/29/4 13/21/4 17/10/4
f 6/31/9 5/45/9 16/16/9
f 17/10/4 15/12/4 8/32/4
f 4/34/10 3/46/10 14/35/10
f 18/1/1 14/3/1 3/36/1
o Cube.001
v 4.919705 3.490889 -4.875977
v 4.919705 2.457525 -4.875977
v 5.575627 3.490889 4.657336
v 5.575627 2.457525 4.657336
v -5.182074 3.490889 -4.832249
v -5.182074 2.457525 -4.832249
v -5.706812 3.490889 4.657336
v -5.706812 2.457525 4.657336
v -7.237298 2.457525 0.000000
v 6.493919 3.490889 0.000000
v -7.237298 3.490889 0.000000
v 6.493919 2.457525 0.000000
v 0.000000 2.457525 -6.319006
v 0.000000 3.490889 6.931200
v 0.000000 2.457525 6.931200
v 0.000000 3.490889 -6.319006
v 0.000000 2.457525 0.000000
v 0.000000 3.490889 0.000000
v -7.237298 2.457525 0.000000
v -7.237298 3.490889 0.000000
vt 0.495104 0.503565
vt 0.559817 0.344329
vt 0.654449 0.454146
vt 0.226557 0.519743
vt 0.134206 0.630570
vt 0.134206 0.519743
vt 0.015584 0.622088
vt 0.107935 0.523194
vt 0.107935 0.622088
vt 0.838616 0.511965
vt 0.678420 0.609006
vt 0.666667 0.458638
vt 0.015197 0.496701
vt 0.107547 0.381624
vt 0.107547 0.496701
vt 0.318907 0.498612
vt 0.226557 0.621919
vt 0.226557 0.498612
vt 0.015197 0.620913
vt 0.107547 0.620913
vt 0.920177 0.666722
vt 0.995379 0.560583
vt 0.227955 0.626403
vt 0.320306 0.503636
vt 0.320306 0.626403
vt 0.345551 0.423577
vt 0.349833 0.548619
vt 0.419523 0.646978
vt 0.543303 0.646978
vt 1.000000 0.425650
vt 0.896582 0.339493
vt 0.318907 0.368952
vt 0.226557 0.368952
vt 0.768784 0.340133
vt 0.896582 0.339493
vt 0.226557 0.368952
vt 0.134206 0.368952
vt 0.643558 0.593492
vt 0.441388 0.343736
vt 0.226557 0.630570
vt 0.015584 0.523194
vt 0.786605 0.666722
vt 0.015197 0.381624
vt 0.318907 0.621919
vt 0.227955 0.503636
vt 0.441388 0.343736
vn 0.0000 1.0000 0.0000
vn -0.3701 0.0000 0.9290
vn -0.9202 0.0000 -0.3914
vn 0.0000 -1.0000 0.0000
vn 0.9811 0.0000 0.1934
vn 0.2815 0.0000 -0.9596
vn 0.9516 0.0000 -0.3072
vn -0.9500 0.0000 0.3122
vn -0.2758 0.0000 -0.9612
vn 0.3776 0.0000 0.9260
usemtl Material
s off
f 38/47/11 27/48/11 34/49/11
f 34/50/12 28/51/12 35/52/12
f 40/53/13 26/54/13 39/55/13
f 37/56/14 24/57/14 35/58/14
f 30/59/15 24/60/15 32/61/15
f 36/62/16 22/63/16 33/64/16
f 21/65/17 32/61/17 22/66/17
f 22/67/14 37/56/14 33/68/14
f 27/69/18 29/70/18 28/71/18
f 25/72/11 38/47/11 36/73/11
f 21/74/11 38/47/11 30/75/11
f 26/76/14 37/56/14 39/77/14
f 25/78/19 33/64/19 26/79/19
f 37/56/14 28/80/14 29/81/14
f 23/82/20 35/52/20 24/83/20
f 38/47/11 23/84/11 30/75/11
f 38/47/11 31/85/11 27/48/11
f 34/50/12 27/86/12 28/51/12
f 40/53/13 25/87/13 26/54/13
f 37/56/14 32/88/14 24/57/14
f 30/59/15 23/89/15 24/60/15
f 36/62/16 21/90/16 22/63/16
f 21/65/17 30/59/17 32/61/17
f 22/67/14 32/88/14 37/56/14
f 27/69/18 31/91/18 29/70/18
f 25/72/11 40/92/11 38/47/11
f 21/74/11 36/73/11 38/47/11
f 26/76/14 33/68/14 37/56/14
f 25/78/19 36/62/19 33/64/19
f 37/56/14 35/58/14 28/80/14
f 23/82/20 34/50/20 35/52/20
f 38/47/11 34/49/11 23/84/11
o Cube.002
v 5.052886 3.811369 -5.007974
v 5.052886 3.495572 -5.007974
v 5.726564 3.811369 4.783414
v 5.726564 3.495572 4.783414
v -5.322357 3.811369 -4.963062
v -5.322357 3.495572 -4.963062
v -5.861300 3.811369 4.783414
v -5.861300 3.495572 4.783414
v -7.433217 3.495572 0.000000
v 6.669715 3.811369 0.000000
v -7.433217 3.811369 0.000000
v 6.669715 3.495572 0.000000
v 0.000000 3.495572 -6.490067
v 0.000000 3.811369 7.118834
v 0.000000 3.495572 7.118834
v 0.000000 3.811369 -6.490067
v 0.000000 3.495572 0.000000
v 0.000000 3.811369 0.000000
v -7.433217 3.495572 0.000000
v -7.433217 3.811369 0.000000
vt 0.167584 0.840607
vt 0.237416 0.668775
vt 0.339534 0.787279
vt 0.782188 0.842455
vt 0.689837 0.953282
vt 0.689837 0.842455
vt 0.797257 0.798867
vt 0.889607 0.699973
vt 0.889608 0.798867
vt 0.514584 0.842295
vt 0.354388 0.939335
vt 0.342635 0.788967
vt 0.901020 0.816042
vt 0.993370 0.700965
vt 0.993370 0.816042
vt 0.780205 0.827524
vt 0.687854 0.950831
vt 0.687854 0.827524
vt 0.901020 0.940253
vt 0.993370 0.940253
vt 0.596144 0.997052
vt 0.671347 0.890913
vt 0.799977 0.943892
vt 0.892328 0.821126
vt 0.892328 0.943892
vt 0.006201 0.754291
vt 0.010822 0.889225
vt 0.086024 0.995364
vt 0.219596 0.995364
vt 0.675968 0.755980
vt 0.572550 0.669823
vt 0.780205 0.697864
vt 0.687854 0.697864
vt 0.444752 0.670463
vt 0.572550 0.669823
vt 0.782188 0.691664
vt 0.689837 0.691664
vt 0.327781 0.937647
vt 0.109619 0.668135
vt 0.782188 0.953282
vt 0.797257 0.699973
vt 0.462572 0.997052
vt 0.901020 0.700965
vt 0.780205 0.950831
vt 0.799977 0.821126
vt 0.109619 0.668135
vn 0.0000 1.0000 0.0000
vn -0.3701 0.0000 0.9290
vn -0.9202 0.0000 -0.3914
vn 0.0000 -1.0000 0.0000
vn 0.9811 0.0000 0.1934
vn 0.2815 0.0000 -0.9596
vn 0.9516 0.0000 -0.3072
vn -0.9500 0.0000 0.3122
vn -0.2758 0.0000 -0.9612
vn 0.3776 0.0000 0.9260
usemtl Material
s off
f 58/93/21 47/94/21 54/95/21
f 54/96/22 48/97/22 55/98/22
f 60/99/23 46/100/23 59/101/23
f 57/102/24 44/103/24 55/104/24
f 50/105/25 44/106/25 52/107/25
f 56/108/26 42/109/26 53/110/26
f 41/111/27 52/107/27 42/112/27
f 42/113/24 57/102/24 53/114/24
f 47/115/28 49/116/28 48/117/28
f 45/118/21 58/93/21 56/119/21
f 41/120/21 58/93/21 50/121/21
f 46/122/24 57/102/24 59/123/24
f 45/124/29 53/110/29 46/125/29
f 57/102/24 48/126/24 49/127/24
f 43/128/30 55/98/30 44/129/30
f 58/93/21 43/130/21 50/121/21
f 58/93/21 51/131/21 47/94/21
f 54/96/22 47/132/22 48/97/22
f 60/99/23 45/133/23 46/100/23
f 57/102/24 52/134/24 44/103/24
f 50/105/25 43/135/25 44/106/25
f 56/108/26 41/136/26 42/109/26
f 41/111/27 50/105/27 52/107/27
f 42/113/24 52/134/24 57/102/24
f 47/115/28 51/137/28 49/116/28
f 45/118/21 60/138/21 58/93/21
f 41/120/21 56/119/21 58/93/21
f 46/122/24 53/114/24 57/102/24
f 45/124/29 56/108/29 53/110/29
f 57/102/24 55/104/24 48/126/24
f 43/128/30 54/96/30 55/98/30
f 58/93/21 54/95/21 43/130/21
