# Blender v2.90.0 OBJ File: 'Mound.blend'
# www.blender.org
o Cube
v -1.981577 1.673516 1.340521
v -2.663252 -1.766415 1.925412
v -1.717849 1.673516 -1.982600
v -2.815383 -1.766415 -2.561462
v 1.397879 1.673516 1.340521
v 1.899687 -1.766415 1.925412
v 2.149030 1.673516 -1.419237
v 2.913890 -1.766415 -1.800810
v 3.370281 -1.766415 0.062301
v -2.656711 1.673516 -0.039358
v 2.487047 1.673516 -0.039358
v -3.297129 -1.766415 0.062301
v 0.036576 -1.766415 2.812840
v 0.036576 -1.766415 -4.239666
v 0.018000 1.673516 1.997777
v 0.036576 -1.766415 0.062301
v 0.018000 1.914058 -0.039358
v -2.462054 -0.046449 1.554610
v 2.686588 -0.046449 -1.651531
v -2.247229 -0.046449 -2.353742
v 1.750308 -0.046449 1.788400
v -3.047230 -0.046449 0.068434
v 2.804808 -0.046449 0.068434
v 0.030342 -0.046449 2.607645
v 0.030342 -0.046449 -3.570906
v 0.018000 1.673516 -2.753492
v -2.755184 -0.906432 1.864338
v -2.721434 -0.906432 -2.654957
v 1.968712 -0.906432 1.990191
v -3.411421 -0.906432 0.061359
v 3.328014 -0.906432 0.061359
v 0.039880 -0.906432 2.908922
v 0.039880 -0.906432 -4.213583
v 3.018691 -0.906432 -1.867473
v 2.518258 0.475338 -1.577616
v -2.311636 0.475338 1.486820
v -2.082445 0.475338 -2.236353
v 1.639941 0.475338 1.649351
v -2.922849 0.475338 0.035868
v 2.702779 0.475338 0.035868
v 0.026458 0.475338 -3.315917
v 0.026458 0.475338 2.417878
vt 0.223358 0.640095
vt 0.378906 0.572121
vt 0.378906 0.730846
vt 0.805271 0.728727
vt 0.707669 0.895186
vt 0.720157 0.703787
vt 0.441988 0.747428
vt 0.520187 0.865591
vt 0.435937 0.868324
vt 0.214313 0.685863
vt 0.224968 0.441406
vt 0.436392 0.510251
vt 0.677452 0.741923
vt 0.590995 0.629700
vt 0.711701 0.666254
vt 0.877870 0.767492
vt 0.763021 0.783595
vt 0.800655 0.708451
vt 0.000000 0.631894
vt 0.072323 0.798145
vt 0.805271 0.956185
vt 0.725271 0.965963
vt 0.193645 0.519872
vt 0.106395 0.571693
vt 0.072286 0.700706
vt 0.127185 0.783054
vt 0.199657 0.851647
vt 0.360183 0.846416
vt 0.524141 0.953935
vt 0.440560 0.971625
vt 0.436392 0.748381
vt 0.033294 0.821532
vt 0.174014 0.737446
vt 0.193573 0.818783
vt 0.272356 0.797908
vt 0.009819 0.917917
vt 0.202425 0.854374
vt 0.224335 0.916789
vt 0.338566 0.868697
vt 0.404104 0.979646
vt 0.344093 0.992188
vt 0.670479 0.899113
vt 0.627085 0.993807
vt 0.607259 0.904742
vt 0.817208 0.675707
vt 0.745828 0.574648
vt 0.855297 0.625387
vt 0.943705 0.694451
vt 0.596853 0.592616
vt 0.598275 0.525781
vt 0.406159 0.743893
vt 0.345199 0.720509
vt 0.682963 0.692552
vt 0.618844 0.665715
vt 0.553559 0.899204
vt 0.562595 0.661738
vt 0.282095 0.867011
vt 0.287433 0.717364
vt 0.626110 0.473940
vt 0.770547 0.524177
vt 0.883209 0.575881
vt 0.961682 0.639897
vt 0.570547 0.993150
vt 0.287433 0.986293
vt 0.225705 0.968832
vt 0.001953 0.968832
vt 0.027683 0.856469
vt 0.399176 0.869528
vt 0.456494 0.678033
vt 0.421090 0.666678
vt 0.726516 0.633157
vt 0.902966 0.739987
vt 0.311901 0.507812
vt 0.792689 0.886606
vt 0.524141 0.754757
vt 0.068443 0.525311
vt 0.576500 0.714278
vt 0.821141 0.831008
vt 0.045862 0.741712
vt 0.690319 0.970619
vn 0.0056 0.9999 0.0142
vn 0.5557 0.7198 -0.4160
vn 0.0523 0.7426 -0.6677
vn 0.8111 0.3070 -0.4979
vn 0.0640 0.4272 -0.9019
vn 0.9491 0.2058 0.2384
vn 0.4429 0.7275 0.5239
vn 0.6297 0.3117 0.7116
vn 0.0000 -1.0000 0.0000
vn -0.6474 -0.6200 -0.4433
vn 0.0733 -0.5874 -0.8060
vn -0.7232 0.6906 0.0034
vn -0.6876 0.3465 -0.6380
vn -0.9716 0.2355 0.0237
vn 0.0390 0.3288 0.9436
vn -0.4643 0.7043 0.5369
vn -0.6694 0.2718 0.6913
vn -0.5356 -0.6311 0.5611
vn 0.0475 -0.6735 0.7377
vn 0.7170 0.6741 0.1775
vn 0.0456 0.7220 0.6903
vn 0.4598 -0.6939 0.5542
vn 0.7805 -0.6022 0.1675
vn 0.6250 -0.6856 -0.3733
vn -0.4624 0.7371 -0.4928
vn -0.7531 0.2799 -0.5954
vn 0.0679 0.5261 -0.8477
vn 0.0796 0.2945 -0.9523
vn 0.6513 0.1162 0.7499
vn 0.0240 0.3328 0.9427
vn 0.0439 0.1191 0.9919
vn 0.7960 0.3953 -0.4584
vn 0.9461 0.2407 0.2166
vn 0.8488 0.1407 -0.5096
vn -0.6709 0.3601 0.6482
vn -0.9872 0.1505 0.0528
vn -0.7107 0.1972 0.6753
vn -0.6814 0.4530 -0.5749
vn 0.8958 0.3684 0.2487
vn -0.7111 -0.7005 0.0591
vn 0.6295 0.3236 0.7064
vn -0.9474 0.3182 0.0338
s 1
f 17/1/1 7/2/2 26/3/3
f 26/4/3 35/5/4 41/6/5
f 40/7/6 5/8/7 38/9/8
f 16/10/9 4/11/10 14/12/11
f 10/13/12 37/14/13 39/15/14
f 42/16/15 1/17/16 36/18/17
f 36/18/17 10/13/12 39/15/14
f 2/19/18 16/10/9 13/20/19
f 35/5/4 11/21/20 40/22/6
f 5/23/7 17/1/1 15/24/21
f 1/25/16 17/1/1 10/26/12
f 6/27/22 16/10/9 9/28/23
f 38/9/8 15/29/21 42/30/15
f 16/10/9 8/31/24 9/28/23
f 37/32/13 26/33/3 41/34/5
f 17/1/1 3/35/25 10/26/12
f 28/36/26 25/37/27 33/38/28
f 29/39/29 24/40/30 32/41/31
f 19/42/32 31/43/33 34/44/34
f 18/45/35 30/46/36 27/47/37
f 32/48/31 18/45/35 27/47/37
f 30/46/36 20/49/38 28/50/26
f 23/51/39 29/39/29 31/52/33
f 25/53/27 34/44/34 33/54/28
f 33/54/28 8/55/24 14/56/11
f 31/52/33 6/57/22 9/58/23
f 30/46/36 4/59/10 12/60/40
f 32/48/31 2/61/18 13/62/19
f 27/47/37 12/60/40 2/61/18
f 8/55/24 31/43/33 9/63/23
f 29/39/29 13/64/19 6/57/22
f 28/36/26 14/65/11 4/66/10
f 20/67/38 41/34/5 25/37/27
f 21/68/41 42/30/15 24/40/30
f 35/69/4 23/51/39 19/70/32
f 18/45/35 39/15/14 22/71/42
f 24/72/30 36/18/17 18/45/35
f 39/15/14 20/49/38 22/71/42
f 23/51/39 38/9/8 21/68/41
f 41/6/5 19/42/32 25/53/27
f 17/1/1 11/73/20 7/2/2
f 26/4/3 7/74/2 35/5/4
f 40/7/6 11/75/20 5/8/7
f 16/10/9 12/76/40 4/11/10
f 10/13/12 3/77/25 37/14/13
f 42/16/15 15/78/21 1/17/16
f 36/18/17 1/17/16 10/13/12
f 2/19/18 12/76/40 16/10/9
f 35/5/4 7/74/2 11/21/20
f 5/23/7 11/73/20 17/1/1
f 1/25/16 15/24/21 17/1/1
f 6/27/22 13/20/19 16/10/9
f 38/9/8 5/8/7 15/29/21
f 16/10/9 14/12/11 8/31/24
f 37/32/13 3/79/25 26/33/3
f 17/1/1 26/3/3 3/35/25
f 28/36/26 20/67/38 25/37/27
f 29/39/29 21/68/41 24/40/30
f 19/42/32 23/80/39 31/43/33
f 18/45/35 22/71/42 30/46/36
f 32/48/31 24/72/30 18/45/35
f 30/46/36 22/71/42 20/49/38
f 23/51/39 21/68/41 29/39/29
f 25/53/27 19/42/32 34/44/34
f 33/54/28 34/44/34 8/55/24
f 31/52/33 29/39/29 6/57/22
f 30/46/36 28/50/26 4/59/10
f 32/48/31 27/47/37 2/61/18
f 27/47/37 30/46/36 12/60/40
f 8/55/24 34/44/34 31/43/33
f 29/39/29 32/41/31 13/64/19
f 28/36/26 33/38/28 14/65/11
f 20/67/38 37/32/13 41/34/5
f 21/68/41 38/9/8 42/30/15
f 35/69/4 40/7/6 23/51/39
f 18/45/35 36/18/17 39/15/14
f 24/72/30 42/16/15 36/18/17
f 39/15/14 37/14/13 20/49/38
f 23/51/39 40/7/6 38/9/8
f 41/6/5 35/5/4 19/42/32
o Cube.001
v -1.981577 1.671654 1.340521
v -1.717849 1.671654 -1.982600
v 1.397879 1.671654 1.340521
v 2.149030 1.671654 -1.419237
v -2.656711 1.671654 -0.039358
v 2.487047 1.671654 -0.039358
v 0.018000 1.671654 1.997777
v 0.018000 1.912196 -0.039358
v 0.018000 1.671654 -2.753492
v -2.655593 1.888235 -0.036732
v -1.716731 1.888235 -1.979974
v 2.488165 1.888235 -0.036732
v 1.398997 1.888235 1.343147
v 0.019118 1.888235 2.000403
v -1.980459 1.888235 1.343147
v 2.150148 1.888235 -1.416611
v 0.019118 2.128777 -0.036732
v 0.019118 1.888235 -2.750866
v 1.133506 1.002210 1.751785
v 0.916646 1.002210 1.855079
v 1.133682 1.036248 1.752198
v 0.916822 1.036248 1.855492
v 2.380013 0.959047 0.381801
v 2.232778 0.959047 0.568335
v 2.380164 0.988325 0.382156
v 2.232929 0.988325 0.568690
v -2.449731 0.776647 0.983414
v -2.549374 0.776647 0.779757
v -2.449566 0.808613 0.983801
v -2.549209 0.808613 0.780145
v -1.298086 0.533353 -2.646743
v -1.064916 0.533353 -2.750294
v -1.297936 0.562445 -2.646390
v -1.064766 0.562445 -2.749941
v 1.227853 0.840031 -2.367222
v 1.734888 0.840031 -2.049762
v 1.228119 0.891562 -2.366597
v 1.735154 0.891562 -2.049138
vt 0.250682 0.171570
vt 0.406230 0.239543
vt 0.339225 0.303852
vt 0.220968 0.291792
vt 0.133718 0.239971
vt 0.099609 0.110958
vt 0.299679 0.013756
vt 0.154508 0.028610
vt 0.700746 0.251052
vt 0.856294 0.183078
vt 0.856294 0.341803
vt 0.671032 0.130829
vt 0.583782 0.182650
vt 0.549673 0.311663
vt 0.604572 0.394011
vt 0.749743 0.408865
vt 0.517899 0.184193
vt 0.519515 0.312348
vt 0.503255 0.184303
vt 0.480305 0.099443
vt 0.408193 0.034931
vt 0.494918 0.099660
vt 0.950422 0.188874
vt 0.935002 0.131502
vt 0.949490 0.133423
vt 0.519515 0.013866
vt 0.534160 0.013756
vt 0.926592 0.275999
vt 0.989471 0.239235
vt 0.988003 0.253229
vt 0.890826 0.132497
vt 0.830239 0.155091
vt 0.828079 0.155017
vt 0.885634 0.223288
vt 0.899219 0.340069
vt 0.884586 0.339569
vt 0.488642 0.305074
vt 0.496770 0.255060
vt 0.503255 0.305291
vt 0.601865 0.019884
vt 0.588021 0.106297
vt 0.576634 0.086126
vt 0.925963 0.387570
vt 0.975793 0.369565
vt 0.977752 0.369825
vt 0.991748 0.239537
vt 0.954875 0.092089
vt 0.912055 0.078294
vt 0.954875 0.024471
vt 0.935935 0.186953
vt 0.941079 0.277920
vt 0.990280 0.253531
vt 0.979795 0.355002
vt 0.977837 0.354742
vt 0.912055 0.104403
vt 0.864687 0.065839
vt 0.912055 0.024471
vt 0.911475 0.385649
vt 0.829472 0.168491
vt 0.827313 0.168417
vt 0.806661 0.024471
vt 0.864687 0.074958
vt 0.806661 0.094861
vt 0.900266 0.223788
vt 0.905459 0.132996
vt 0.407350 0.023363
vt 0.406230 0.034902
vt 0.750479 0.110547
vt 0.653124 0.090265
vt 0.696385 0.014725
vt 0.809664 0.375244
vt 0.807698 0.375177
vt 0.503255 0.013756
vt 0.409313 0.023392
vt 0.423762 0.216157
vt 0.426798 0.179234
vt 0.427238 0.216209
vt 0.423321 0.179183
vt 0.482157 0.254844
vt 0.406230 0.080819
vt 0.789289 0.118769
vt 0.534160 0.312239
vt 0.649723 0.104661
vt 0.912055 0.088921
vt 0.864687 0.076644
vt 0.864687 0.064569
vt 0.660390 0.103136
vn -0.4792 -0.8776 -0.0125
vn 0.7170 -0.6646 -0.2104
vn 0.7636 -0.6352 -0.1157
vn 0.5767 -0.7483 0.3277
vn -0.4453 -0.6131 0.6525
vn -0.2340 -0.6545 0.7190
vn -0.7103 -0.6629 -0.2366
vn -0.7418 -0.6422 -0.1930
vn -0.4223 0.9064 0.0129
vn 0.6601 0.6376 -0.3972
vn -0.3203 0.6174 -0.7184
vn 0.4869 0.6703 0.5600
vn -0.3786 0.5735 0.7265
vn -0.4704 0.6286 0.6194
vn -0.7809 0.6229 -0.0456
vn -0.5722 0.6543 -0.4944
vn -0.2037 -0.6494 -0.7326
vn -0.2517 0.1223 -0.9600
vn 0.3249 0.1020 0.9402
vn 0.6318 0.0895 0.7699
vn -0.7887 0.0763 0.6100
vn 0.0489 -0.9067 0.4189
vn 0.7773 0.6172 0.1219
vn -0.1204 -0.9454 -0.3027
vn 0.3992 -0.9163 0.0314
vn 0.8848 0.0556 0.4625
vn 0.3420 -0.9062 -0.2487
vn -0.1755 -0.9411 0.2889
vn 0.4340 -0.9008 -0.0130
vn -0.0545 -0.9620 0.2676
vn 0.7452 0.0680 0.6633
vn -0.9436 0.0857 0.3197
vn -0.2831 -0.9266 -0.2473
vn -0.4466 -0.8947 -0.0029
vn 0.2415 -0.9174 -0.3161
vn -0.6112 0.1156 -0.7830
vn 0.4501 0.1255 -0.8841
vn 0.6657 0.1110 -0.7379
s 1
f 50/81/43 46/82/44 48/83/45
f 50/81/43 45/84/46 49/85/47
f 43/86/48 50/81/43 49/85/47
f 44/87/49 50/81/43 47/88/50
f 59/89/51 58/90/52 60/91/53
f 55/92/54 59/89/51 56/93/55
f 57/94/56 59/89/51 52/95/57
f 59/89/51 53/96/58 52/95/57
f 50/97/43 56/98/55 59/99/51
f 51/100/59 76/101/60 60/102/53
f 49/103/47 57/104/56 43/105/48
f 50/97/43 60/106/53 51/107/59
f 55/108/54 64/109/61 63/110/62
f 43/111/48 71/112/63 69/113/64
f 47/114/50 53/115/58 44/116/49
f 48/117/45 58/118/52 54/119/65
f 46/120/44 77/121/66 78/122/67
f 48/123/45 67/124/68 65/125/69
f 62/126/70 63/110/62 64/109/61
f 45/127/46 62/128/70 49/129/47
f 49/103/47 64/109/61 56/130/55
f 45/131/46 63/110/62 61/132/71
f 66/133/72 67/124/68 68/134/73
f 48/135/45 66/136/72 45/137/46
f 54/138/65 68/134/73 67/124/68
f 45/131/46 68/134/73 55/108/54
f 69/113/64 72/139/74 70/140/75
f 43/141/48 70/142/75 47/143/50
f 47/114/50 72/139/74 52/144/57
f 57/145/56 72/139/74 71/112/63
f 73/146/76 76/101/60 74/147/77
f 44/148/49 74/149/77 51/150/59
f 44/116/49 75/151/78 73/152/76
f 53/153/58 76/101/60 75/154/78
f 78/155/67 79/156/79 80/157/80
f 51/100/59 79/156/79 77/158/66
f 58/118/52 79/156/79 60/102/53
f 46/159/44 80/157/80 58/118/52
f 50/81/43 51/160/59 46/82/44
f 50/81/43 48/83/45 45/84/46
f 43/86/48 47/88/50 50/81/43
f 44/87/49 51/160/59 50/81/43
f 59/89/51 54/161/65 58/90/52
f 55/92/54 54/161/65 59/89/51
f 57/94/56 56/93/55 59/89/51
f 59/89/51 60/91/53 53/96/58
f 50/97/43 49/162/47 56/98/55
f 51/100/59 74/147/77 76/101/60
f 49/103/47 56/130/55 57/104/56
f 50/97/43 59/99/51 60/106/53
f 55/108/54 56/130/55 64/109/61
f 43/111/48 57/145/56 71/112/63
f 47/114/50 52/144/57 53/115/58
f 48/117/45 46/159/44 58/118/52
f 46/120/44 51/163/59 77/121/66
f 48/123/45 54/138/65 67/124/68
f 62/126/70 61/132/71 63/110/62
f 45/127/46 61/164/71 62/128/70
f 49/103/47 62/126/70 64/109/61
f 45/131/46 55/108/54 63/110/62
f 66/133/72 65/125/69 67/124/68
f 48/135/45 65/165/69 66/136/72
f 54/138/65 55/108/54 68/134/73
f 45/131/46 66/133/72 68/134/73
f 69/113/64 71/112/63 72/139/74
f 43/141/48 69/166/64 70/142/75
f 47/114/50 70/140/75 72/139/74
f 57/145/56 52/144/57 72/139/74
f 73/146/76 75/154/78 76/101/60
f 44/148/49 73/167/76 74/149/77
f 44/116/49 53/115/58 75/151/78
f 53/153/58 60/102/53 76/101/60
f 78/155/67 77/158/66 79/156/79
f 51/100/59 60/102/53 79/156/79
f 58/118/52 80/157/80 79/156/79
f 46/159/44 78/155/67 80/157/80
