{
    "asset" : {
        "generator" : "Khronos glTF Blender I/O v0.9.36",
        "version" : "2.0"
    },
    "scene" : 0,
    "scenes" : [
        {
            "name" : "Scene",
            "nodes" : [
                5,
                6
            ]
        }
    ],
    "nodes" : [
        {
            "name" : "B3",
            "rotation" : [
                4.763367478233249e-09,
                2.2809102162568706e-08,
                -0.2164396494626999,
                0.9762960076332092
            ],
            "translation" : [
                0,
                1,
                0
            ]
        },
        {
            "children" : [
                0
            ],
            "name" : "B2",
            "rotation" : [
                1.1622485196483012e-08,
                4.559063526698992e-08,
                -0.2164396345615387,
                0.9762960076332092
            ],
            "scale" : [
                0.9999999403953552,
                0.9999999403953552,
                1
            ],
            "translation" : [
                0,
                1,
                0
            ]
        },
        {
            "children" : [
                1
            ],
            "name" : "B1",
            "rotation" : [
                0,
                0,
                -0.2164396494626999,
                0.9762960076332092
            ],
            "translation" : [
                0,
                1,
                0
            ]
        },
        {
            "children" : [
                2
            ],
            "name" : "Root"
        },
        {
            "mesh" : 0,
            "name" : "Jelly Cube",
            "skin" : 0
        },
        {
            "children" : [
                4,
                3
            ],
            "name" : "Jelly Cube Armature"
        },
        {
            "name" : "Camera",
            "rotation" : [
                0.7071067690849304,
                0,
                0,
                0.7071067690849304
            ],
            "translation" : [
                0,
                2,
                15
            ]
        }
    ],
    "animations" : [
        {
            "channels" : [
                {
                    "sampler" : 0,
                    "target" : {
                        "node" : 2,
                        "path" : "rotation"
                    }
                },
                {
                    "sampler" : 1,
                    "target" : {
                        "node" : 1,
                        "path" : "rotation"
                    }
                },
                {
                    "sampler" : 2,
                    "target" : {
                        "node" : 0,
                        "path" : "rotation"
                    }
                }
            ],
            "name" : "ArmatureAction.001",
            "samplers" : [
                {
                    "input" : 7,
                    "interpolation" : "CUBICSPLINE",
                    "output" : 8
                },
                {
                    "input" : 9,
                    "interpolation" : "CUBICSPLINE",
                    "output" : 10
                },
                {
                    "input" : 11,
                    "interpolation" : "CUBICSPLINE",
                    "output" : 12
                }
            ]
        }
    ],
    "meshes" : [
        {
            "name" : "Body",
            "primitives" : [
                {
                    "attributes" : {
                        "POSITION" : 0,
                        "NORMAL" : 1,
                        "TEXCOORD_0" : 2,
                        "JOINTS_0" : 3,
                        "WEIGHTS_0" : 4
                    },
                    "indices" : 5
                }
            ]
        }
    ],
    "skins" : [
        {
            "inverseBindMatrices" : 6,
            "joints" : [
                3,
                2,
                1,
                0
            ],
            "name" : "Jelly Cube Armature"
        }
    ],
    "accessors" : [
        {
            "bufferView" : 0,
            "componentType" : 5126,
            "count" : 240,
            "max" : [
                1,
                4,
                1
            ],
            "min" : [
                -1,
                0,
                -1
            ],
            "type" : "VEC3"
        },
        {
            "bufferView" : 1,
            "componentType" : 5126,
            "count" : 240,
            "type" : "VEC3"
        },
        {
            "bufferView" : 2,
            "componentType" : 5126,
            "count" : 240,
            "type" : "VEC2"
        },
        {
            "bufferView" : 3,
            "componentType" : 5123,
            "count" : 240,
            "type" : "VEC4"
        },
        {
            "bufferView" : 4,
            "componentType" : 5126,
            "count" : 240,
            "type" : "VEC4"
        },
        {
            "bufferView" : 5,
            "componentType" : 5123,
            "count" : 972,
            "type" : "SCALAR"
        },
        {
            "bufferView" : 6,
            "componentType" : 5126,
            "count" : 4,
            "type" : "MAT4"
        },
        {
            "bufferView" : 7,
            "componentType" : 5126,
            "count" : 3,
            "max" : [
                1.6666666666666667
            ],
            "min" : [
                0.041666666666666664
            ],
            "type" : "SCALAR"
        },
        {
            "bufferView" : 8,
            "componentType" : 5126,
            "count" : 9,
            "type" : "VEC4"
        },
        {
            "bufferView" : 9,
            "componentType" : 5126,
            "count" : 3,
            "max" : [
                1.75
            ],
            "min" : [
                0.125
            ],
            "type" : "SCALAR"
        },
        {
            "bufferView" : 10,
            "componentType" : 5126,
            "count" : 9,
            "type" : "VEC4"
        },
        {
            "bufferView" : 11,
            "componentType" : 5126,
            "count" : 3,
            "max" : [
                1.9166666666666667
            ],
            "min" : [
                0.2916666666666667
            ],
            "type" : "SCALAR"
        },
        {
            "bufferView" : 12,
            "componentType" : 5126,
            "count" : 9,
            "type" : "VEC4"
        }
    ],
    "bufferViews" : [
        {
            "buffer" : 0,
            "byteLength" : 2880,
            "byteOffset" : 0
        },
        {
            "buffer" : 0,
            "byteLength" : 2880,
            "byteOffset" : 2880
        },
        {
            "buffer" : 0,
            "byteLength" : 1920,
            "byteOffset" : 5760
        },
        {
            "buffer" : 0,
            "byteLength" : 1920,
            "byteOffset" : 7680
        },
        {
            "buffer" : 0,
            "byteLength" : 3840,
            "byteOffset" : 9600
        },
        {
            "buffer" : 0,
            "byteLength" : 1944,
            "byteOffset" : 13440
        },
        {
            "buffer" : 0,
            "byteLength" : 256,
            "byteOffset" : 15384
        },
        {
            "buffer" : 0,
            "byteLength" : 12,
            "byteOffset" : 15640
        },
        {
            "buffer" : 0,
            "byteLength" : 144,
            "byteOffset" : 15652
        },
        {
            "buffer" : 0,
            "byteLength" : 12,
            "byteOffset" : 15796
        },
        {
            "buffer" : 0,
            "byteLength" : 144,
            "byteOffset" : 15808
        },
        {
            "buffer" : 0,
            "byteLength" : 12,
            "byteOffset" : 15952
        },
        {
            "buffer" : 0,
            "byteLength" : 144,
            "byteOffset" : 15964
        }
    ],
    "buffers" : [
        {
            "byteLength" : 16108,
            "uri" : "data:application/octet-stream;base64,"
        }
    ]
}
